<?xml version="1.0" standalone="no"?>
<!DOCTYPE svg PUBLIC "-//W3C//DTD SVG 1.1//EN" "http://www.w3.org/Graphics/SVG/1.1/DTD/svg11.dtd" >
<svg xmlns="http://www.w3.org/2000/svg" xmlns:xlink="http://www.w3.org/1999/xlink" version="1.1">
<metadata>
Created by FontForge 20170731 at Fri Jul 20 05:07:32 2012
 By Aleksey,,,
(c) 2004-2010 Typodermic Fonts. This font is not freely distributable. Visit typodermic.com for more info.
</metadata>
<defs>
<font id="LarabiefontRg-Regular" horiz-adv-x="615" >
  <font-face 
    font-family="Larabiefont Rg"
    font-weight="400"
    font-stretch="normal"
    units-per-em="1000"
    panose-1="2 0 5 9 2 0 0 2 0 4"
    ascent="750"
    descent="-250"
    x-height="508"
    cap-height="722"
    bbox="-26 -215 643 978"
    underline-thickness="20"
    underline-position="-163"
    unicode-range="U+0017-F8FF"
  />
<missing-glyph 
d="M495 822q81 0 81 -79v-878q0 -35 -23.5 -57t-57.5 -22h-379q-31 0 -54.5 22.5t-23.5 56.5v878q0 79 78 79h379zM186 707q-3 1 -12 1q-15 0 -27.5 -8.5t-17.5 -25.5l-33 -125q-3 -9 -3 -17q0 -17 13.5 -29.5t38.5 -12.5q31 0 40 35l21 81l236 -63l-38 -141l-178 -70
q-25 -10 -31 -32l-19 -70q-1 -5 -1.5 -8.5t-0.5 -5.5q0 -16 13.5 -29t41.5 -13q27 0 36 32l12 47l180 71q24 9 30 31l57 219q0 16 -10 29t-24 17zM260 42q0 16 -6.5 32t-18 28.5t-27.5 20t-34 7.5q-17 0 -33 -6.5t-28.5 -17.5t-20 -27.5t-7.5 -35.5q0 -17 6.5 -33t18.5 -28
t28 -19.5t35 -7.5q16 0 32 6.5t28 18t19.5 27.5t7.5 35z" />
    <glyph glyph-name=".notdef" 
d="M495 822q81 0 81 -79v-878q0 -35 -23.5 -57t-57.5 -22h-379q-31 0 -54.5 22.5t-23.5 56.5v878q0 79 78 79h379zM186 707q-3 1 -12 1q-15 0 -27.5 -8.5t-17.5 -25.5l-33 -125q-3 -9 -3 -17q0 -17 13.5 -29.5t38.5 -12.5q31 0 40 35l21 81l236 -63l-38 -141l-178 -70
q-25 -10 -31 -32l-19 -70q-1 -5 -1.5 -8.5t-0.5 -5.5q0 -16 13.5 -29t41.5 -13q27 0 36 32l12 47l180 71q24 9 30 31l57 219q0 16 -10 29t-24 17zM260 42q0 16 -6.5 32t-18 28.5t-27.5 20t-34 7.5q-17 0 -33 -6.5t-28.5 -17.5t-20 -27.5t-7.5 -35.5q0 -17 6.5 -33t18.5 -28
t28 -19.5t35 -7.5q16 0 32 6.5t28 18t19.5 27.5t7.5 35z" />
    <glyph glyph-name=".null" horiz-adv-x="0" 
 />
    <glyph glyph-name="nonmarkingreturn" 
 />
    <glyph glyph-name="uni0017" 
 />
    <glyph glyph-name="space" unicode=" " 
 />
    <glyph glyph-name="exclam" unicode="!" 
d="M365 722q10 0 10 -11l-46 -518q0 -8 -19 -8q-20 0 -20 8l-36 518q0 11 13 11h98zM308 133q29 0 49 -20.5t20 -49.5t-20 -49.5t-49 -20.5t-49.5 20.5t-20.5 49.5t20.5 49.5t49.5 20.5z" />
    <glyph glyph-name="quotedbl" unicode="&#x22;" 
d="M211 390q0 -9 -12 -9q-10 0 -11 9l-25 318q0 14 13 14h54q11 0 11 -14zM423 390q0 -9 -12 -9q-10 0 -11 9l-25 318q0 14 13 14h54q11 0 11 -14z" />
    <glyph glyph-name="numbersign" unicode="#" 
d="M276 809q27 0 27 -25q0 -7 -1 -8l-68 -258q0 -10 12 -10h206q10 0 12 8l72 273q5 20 23 20q27 0 27 -25q0 -7 -1 -8l-68 -258q0 -10 12 -10h13q25 0 25 -26q0 -25 -25 -25h-33q-9 0 -10 -10l-48 -177q0 -14 12 -14h58q25 0 25 -25q0 -26 -25 -26h-78q-11 0 -12 -9
l-69 -257q-6 -19 -23 -19q-27 0 -27 25q0 6 1 7l63 238q0 15 -11 15h-205q-11 0 -12 -9l-69 -257q-6 -19 -23 -19q-27 0 -27 25q0 6 1 7l63 238q0 15 -11 15h-16q-25 0 -25 26q0 25 25 25h35q10 0 12 8l48 178q0 15 -12 15h-67q-26 0 -26 25q0 26 26 26h87q9 0 12 8l72 273
q5 20 23 20zM226 457q-9 0 -10 -10l-48 -177q0 -14 11 -14h205q10 0 12 8l48 178q0 15 -12 15h-206z" />
    <glyph glyph-name="dollar" unicode="$" 
d="M236 815q21 0 21 -25v-56q0 -12 12 -12h72q12 0 12 12v56q0 25 21 25t21 -25v-56q0 -12 12 -12h24q19 0 37 -5t32 -13.5t22 -20t8 -24.5v-39q0 -26 -26 -26q-25 0 -25 26q0 51 -48 51h-24q-12 0 -12 -12v-255q0 -10 22 -14q49 -11 81 -37.5t32 -78.5v-164q0 -46 -30 -78
t-79 -32h-14q-12 0 -12 -12v-50q0 -25 -21 -25t-21 25v50q0 12 -12 12h-72q-12 0 -12 -12v-50q0 -25 -21 -25q-20 0 -20 25v50q0 12 -12 12q-54 0 -86.5 28.5t-32.5 71.5v20q0 26 26 26q25 0 25 -26t18.5 -47.5t49.5 -21.5q12 12 12 279q0 11 -12 11q-23 0 -44.5 7.5t-38 22
t-26.5 34.5t-10 45v153q0 21 9.5 42t24.5 38.5t34 28t39 10.5h12q12 0 12 12v56q0 25 20 25zM269 671q-12 0 -12 -12v-255q0 -11 12 -11h72q12 0 12 11v255q0 12 -12 12h-72zM192 671q-24 0 -40 -19.5t-16 -48.5v-153q0 -26 18.5 -41.5t49.5 -15.5q12 0 12 11v255
q0 12 -12 12h-12zM408 340q-13 0 -13 -11v-266q0 -12 12 -12h14q21 0 39.5 17t18.5 42v164q0 29 -22 47.5t-49 18.5zM269 341q-12 0 -12 -11v-267q0 -12 12 -12h72q12 0 12 12v267q0 11 -12 11h-72z" />
    <glyph glyph-name="percent" unicode="%" 
d="M193 722q35 0 58.5 -23.5t23.5 -57.5v-152q0 -34 -23.5 -57.5t-58.5 -23.5h-88q-35 0 -58.5 23.5t-23.5 57.5v152q0 34 23.5 57.5t58.5 23.5h88zM544 786q27 0 27 -24q0 -7 -4 -14l-476 -798q-10 -13 -23 -13q-27 0 -27 25q0 8 4 12l477 798q8 14 22 14zM510 315
q35 0 58.5 -24t23.5 -58v-151q0 -35 -23.5 -58.5t-58.5 -23.5h-79q-34 0 -58 23.5t-24 58.5v151q0 34 24 58t58 24h79zM105 671q-30 0 -30 -30v-152q0 -30 30 -30h88q31 0 31 30v152q0 30 -31 30h-88zM431 263q-30 0 -30 -30v-151q0 -31 30 -31h79q31 0 31 31v151
q0 30 -31 30h-79z" />
    <glyph glyph-name="ampersand" unicode="&#x26;" 
d="M334 722q24 0 43.5 -19.5t19.5 -43.5v-137q0 -12 -8 -20l-130 -115q-5 -5 -5 -8t2 -9l170 -200q5 -5 9 -5q3 0 10 7t15.5 18t17.5 24.5t17 27.5q9 11 20 11q26 0 26 -25q0 -9 -6.5 -21t-16.5 -25t-21.5 -27.5t-21.5 -28.5q-2 -2 -2 -6q0 -3 11 -16.5t23.5 -30t23.5 -31.5
t11 -21q0 -23 -25 -23q-8 0 -20.5 11t-24.5 24.5t-21 24.5t-12 11t-9 -6l-23 -36q-9 -14 -18.5 -20.5t-16.5 -6.5h-237q-28 0 -45.5 16t-17.5 40v224q0 12 10 19l88 78q4 5 4 10q0 4 -3 7l-93 112q-4 3 -5 7.5t-1 8.5v137q0 12 5.5 23.5t14.5 20t20 14t23 5.5h199zM135 671
q-12 0 -12 -12v-124q0 -4 3 -7l83 -100q3 -4 9 -4q5 0 7 2l118 104q2 2 3 8v121q0 12 -12 12h-199zM207 340q-11 0 -15 -4l-63 -61q-3 -3 -6 -12v-200q0 -12 12 -12h218q5 0 13 8t16 18.5t13.5 21.5t5.5 17q0 5 -1 6l-181 215q-2 3 -12 3z" />
    <glyph glyph-name="quotesingle" unicode="'" 
d="M317 390q0 -9 -12 -9q-10 0 -11 9l-25 318q0 14 13 14h54q11 0 11 -14z" />
    <glyph glyph-name="parenleft" unicode="(" 
d="M440 -85q-1 1 -2 1q-4 0 -7 1q-63 21 -115 65.5t-88.5 105t-57 134.5t-20.5 155q0 77 18 146t51.5 124.5t81.5 96t109 60.5q1 1 9 1q25 0 25 -27q0 -19 -18 -23q-52 -18 -93.5 -53t-70 -83.5t-44 -109t-15.5 -128.5q0 -74 17.5 -141t49.5 -122t77 -94.5t100 -58.5
q18 -5 18 -22q0 -28 -25 -28z" />
    <glyph glyph-name="parenright" unicode=")" 
d="M367 55q-76 -106 -192 -140q-25 0 -25 27q0 18 18 23q55 19 100 58.5t77 94.5t49.5 122t17.5 141q0 69 -15.5 129t-44 108.5t-70 83.5t-93.5 53q-18 4 -18 23q0 27 25 27q8 0 9 -1q60 -20 108 -59.5t81.5 -94.5t51.5 -123.5t18 -146.5q0 -191 -97 -325z" />
    <glyph glyph-name="asterisk" unicode="*" 
d="M312 723q26 0 26 -25v-111q0 -11 10 -11q1 1 2 1q3 0 6 1l81 50q11 8 29 8q26 0 26 -26q0 -16 -19 -26l-87 -49q-9 -5 -9 -10q0 -7 9 -10l86 -43q20 -11 20 -29q0 -27 -27 -27q-10 0 -16 2t-12 6l-82 49q-2 0 -3.5 0.5t-2.5 0.5t-2 1q-9 0 -9 -14v-112q0 -33 -27 -33
q-28 0 -28 33v110q0 12 -7 12q-1 0 -2.5 -1t-4.5 -2l-87 -52q-8 -5 -15.5 -8t-17.5 -3q-11 0 -18.5 8t-7.5 19q0 18 26 32l93 49q7 3 7 9q0 7 -7 10l-99 50q-20 9 -20 28q0 27 28 27q10 0 16 -2.5t15 -7.5l88 -51q2 -2 7 -2q11 0 11 12v112q0 25 24 25z" />
    <glyph glyph-name="plus" unicode="+" 
d="M309 586q25 0 25 -26v-159q0 -12 12 -12h160q25 0 25 -26q0 -25 -25 -25h-160q-12 0 -12 -12v-163q0 -26 -25 -26q-26 0 -26 26v163q0 12 -12 12h-161q-26 0 -26 25q0 26 26 26h161q12 0 12 12v159q0 26 26 26z" />
    <glyph glyph-name="comma" unicode="," 
d="M308 120q25 0 43.5 -18.5t18.5 -44.5q0 -48 -7 -94t-19.5 -82t-29.5 -58t-38 -22q-17 0 -17 21q0 13 5 24.5t10.5 23.5t10.5 26.5t5 32.5q0 15 -7 30t-15.5 30.5t-15.5 32t-7 35.5q0 26 17.5 44.5t45.5 18.5z" />
    <glyph glyph-name="hyphen" unicode="-" 
d="M506 389q25 0 25 -26q0 -25 -25 -25h-396q-26 0 -26 25q0 26 26 26h396z" />
    <glyph glyph-name="period" unicode="." 
d="M308 133q29 0 49 -20.5t20 -49.5t-20 -49.5t-49 -20.5t-49.5 20.5t-20.5 49.5t20.5 49.5t49.5 20.5z" />
    <glyph glyph-name="slash" unicode="/" 
d="M546 786q27 0 27 -24q0 -7 -4 -14l-477 -798q-10 -13 -23 -13q-27 0 -27 25q0 7 5 12l476 798q8 14 23 14z" />
    <glyph glyph-name="zero" unicode="0" 
d="M532 63q0 -28 -18 -45.5t-47 -17.5h-323q-25 0 -43.5 18t-18.5 45v596q0 63 62 63h323q65 0 65 -63v-596zM479 659q0 12 -12 12h-323q-11 0 -11 -12v-596q0 -12 11 -12h323q12 0 12 12v596z" />
    <glyph glyph-name="one" unicode="1" 
d="M422 722q16 0 16 -20v-676q0 -26 -26 -26q-25 0 -25 26v588q0 13 -10 13q-5 0 -9 -4l-149 -126q-8 -7 -16 -7q-26 0 -26 27q0 6 2.5 10.5t6.5 9.5q82 70 210 174q13 11 26 11z" />
    <glyph glyph-name="two" unicode="2" 
d="M489 722q26 0 26 -25v-170q0 -11 -7 -18l-382 -404q-4 -3 -4 -8v-34q0 -12 12 -12h384q26 0 26 -25q0 -26 -26 -26h-421q-26 0 -26 26v85q0 12 7 18l382 405q4 4 4 8v117q0 12 -12 12h-299q-12 0 -12 -12v-132q0 -26 -26 -26q-25 0 -25 26v170q0 25 25 25h374z" />
    <glyph glyph-name="three" unicode="3" 
d="M471 722q25 0 25 -25v-28l-108 -183q-6 -9 -6 -21q0 -9 16 -9h73q24 0 46 -15t22 -44v-133q0 -65 -35.5 -114t-94 -82.5t-133 -50.5t-151.5 -17q-24 0 -36.5 4t-12.5 23q0 25 25 25q79 0 149.5 15t123 42.5t83.5 66.5t31 88v129q0 11 -12 11h-163q-19 0 -19 12q0 11 8 22
l135 220q0 13 -12 13h-298q-26 0 -26 26q0 25 26 25h344z" />
    <glyph glyph-name="four" unicode="4" 
d="M414 376q25 0 25 -25v-153q0 -12 12 -12h62q25 0 25 -25q0 -26 -25 -26h-62q-12 0 -12 -12v-97q0 -26 -25 -26q-26 0 -26 26v97q0 12 -12 12h-273q-26 0 -26 21q0 7 1 9l112 536q4 21 24 21q27 0 27 -24q0 -6 -1 -8l-103 -493q0 -11 12 -11h227q12 0 12 12v153
q0 25 26 25z" />
    <glyph glyph-name="five" unicode="5" 
d="M432 461q19 0 38 -6.5t33.5 -18t23.5 -28t9 -35.5v-72q0 -91 -32 -149.5t-89 -92t-136.5 -46.5t-175.5 -13q-24 0 -24 23q0 28 28 28q82 0 151.5 12t119.5 40.5t78.5 76.5t28.5 121v72q0 17 -17.5 27t-35.5 10h-236q-10 0 -21 -6.5t-21.5 -14t-20.5 -14t-17 -6.5
q-19 0 -19 29v299q0 25 25 25h353q26 0 26 -25q0 -26 -26 -26h-315q-12 0 -12 -12v-193q0 -10 12 -10q6 0 14 2.5t22 2.5h236z" />
    <glyph glyph-name="six" unicode="6" 
d="M435 722q24 0 24 -24q0 -26 -26 -26h-18q-56 0 -108 -17t-92.5 -46.5t-65 -70t-24.5 -87.5v-69q0 -12 11 -12h380q26 0 26 -25v-319q0 -26 -26 -26h-417q-26 0 -26 26v425q0 58 28.5 108t76 86t109.5 56.5t130 20.5h18zM490 308q0 11 -11 11h-343q-11 0 -11 -11v-245
q0 -12 11 -12h343q11 0 11 12v245z" />
    <glyph glyph-name="seven" unicode="7" 
d="M503 722q26 0 26 -25v-133l-192 -547q-8 -17 -25 -17q-27 0 -27 26q0 2 1 4t2 5l190 530v94q0 12 -12 12h-317q-12 0 -12 -12v-96q0 -26 -25 -26q-26 0 -26 26v134q0 25 26 25h391z" />
    <glyph glyph-name="eight" unicode="8" 
d="M472 722q25 0 25 -25v-255q0 -8 8 -10.5t18 -4.5t18 -6.5t8 -16.5v-378q0 -26 -26 -26h-431q-26 0 -26 26v378q0 26 39 26q11 0 11 12v255q0 25 26 25h330zM179 671q-11 0 -11 -12v-217q0 -12 11 -12h256q11 0 11 12v217q0 12 -11 12h-256zM497 367q0 12 -11 12h-357
q-11 0 -11 -12v-304q0 -12 11 -12h357q11 0 11 12v304z" />
    <glyph glyph-name="nine" unicode="9" 
d="M516 722q26 0 26 -25v-426q0 -59 -28.5 -108.5t-76.5 -85.5t-110 -56.5t-129 -20.5h-17q-14 0 -19.5 6.5t-5.5 17.5q0 26 26 26h18q55 0 107.5 17t93 46.5t65 70t24.5 87.5v69q0 12 -11 12h-380q-26 0 -26 25v320q0 25 26 25h417zM136 671q-11 0 -11 -12v-244
q0 -12 11 -12h343q11 0 11 12v244q0 12 -11 12h-343z" />
    <glyph glyph-name="colon" unicode=":" 
d="M308 531q29 0 49 -20.5t20 -49.5t-20 -49.5t-49 -20.5t-49.5 20.5t-20.5 49.5t20.5 49.5t49.5 20.5zM308 133q29 0 49 -20.5t20 -49.5t-20 -49.5t-49 -20.5t-49.5 20.5t-20.5 49.5t20.5 49.5t49.5 20.5z" />
    <glyph glyph-name="semicolon" unicode=";" 
d="M308 531q29 0 49 -20.5t20 -49.5t-20 -49.5t-49 -20.5t-49.5 20.5t-20.5 49.5t20.5 49.5t49.5 20.5zM304 120q26 0 44.5 -18.5t18.5 -44.5q0 -48 -7 -94t-19.5 -82t-30 -58t-37.5 -22q-18 0 -18 21q0 13 5 24.5t11 23.5t11 26.5t5 32.5q0 15 -7 30t-16 30.5t-16 32
t-7 35.5q0 26 18 44.5t45 18.5z" />
    <glyph glyph-name="less" unicode="&#x3c;" 
d="M396 559q26 0 26 -27q0 -6 -8 -17l-153 -153q-2 -6 -2 -8t2 -8l153 -153q8 -8 8 -18q0 -26 -26 -26q-11 0 -19 8l-141 135q-43 42 -43 62t43 62l141 135q8 8 19 8z" />
    <glyph glyph-name="equal" unicode="=" 
d="M506 492q25 0 25 -26t-25 -26h-396q-26 0 -26 26t26 26h396zM506 287q25 0 25 -26t-25 -26h-396q-26 0 -26 26t26 26h396z" />
    <glyph glyph-name="greater" unicode="&#x3e;" 
d="M219 559q11 0 19 -8l141 -135q43 -42 43 -62t-43 -62l-141 -135q-8 -8 -19 -8q-26 0 -26 26q0 10 9 18l152 153q2 6 2 8t-2 8l-152 153q-9 9 -9 17q0 27 26 27z" />
    <glyph glyph-name="question" unicode="?" 
d="M486 722q25 0 25 -25v-236q0 -13 -12 -22l-169 -126q-5 -3 -5 -9v-107q0 -26 -26 -26q-25 0 -25 26v127q0 13 13 22l169 126q4 3 4 9v178q0 12 -11 12h-284q-11 0 -11 -12v-100q0 -25 -26 -25q-25 0 -25 25v138q0 25 25 25h358zM298 133q29 0 49.5 -20.5t20.5 -49.5
t-20.5 -49.5t-49.5 -20.5t-49.5 20.5t-20.5 49.5t20.5 49.5t49.5 20.5z" />
    <glyph glyph-name="at" unicode="@" 
d="M510 722q83 0 83 -185v-214q0 -163 -73 -163h-68q-34 0 -52 22q-24 -21 -46 -21h-113q-79 0 -79 108v200q0 101 88 101h83q26 0 48 -19q12 19 28 19q22 0 22 -28v-307q0 -28 42 -28h23q25 0 35.5 29t10.5 89v202q0 145 -53 145h-352q-32 0 -46.5 -42t-14.5 -127v-292
q0 -160 61 -160h356q30 0 30 -25q0 -26 -24 -26h-386q-92 0 -92 211v292q0 219 89 219h400zM254 524q-37 0 -37 -50v-214q0 -49 45 -49h71q47 0 47 49v218q0 46 -40 46h-86z" />
    <glyph glyph-name="A" unicode="A" 
d="M374 722q36 0 61 -23t30 -58l86 -612q1 -1 1 -5q0 -24 -27 -24q-21 0 -24 22l-28 188q-1 10 -12 10h-307q-11 0 -12 -10l-28 -188q-3 -22 -24 -22q-27 0 -27 24q0 4 1 5l86 612q5 35 29 58t62 23h133zM241 671q-36 0 -41 -37l-47 -353q0 -10 11 -10h287q12 0 12 10
l-48 353q-5 37 -41 37h-133z" />
    <glyph glyph-name="B" unicode="B" 
d="M467 722q65 0 65 -63v-223q0 -39 -44 -59q44 -18 44 -57v-257q0 -27 -18 -45t-47 -18h-360q-25 0 -25 26v671q0 25 25 25h360zM144 671q-11 0 -11 -12v-242q0 -12 11 -12h282q53 0 53 52v202q0 12 -12 12h-323zM144 354q-11 0 -11 -11v-280q0 -12 11 -12h324q12 0 12 12
v240q0 22 -16.5 36.5t-37.5 14.5h-282z" />
    <glyph glyph-name="C" unicode="C" 
d="M506 223q26 0 26 -24v-136q0 -27 -18 -45t-47 -18h-323q-25 0 -43.5 18t-18.5 45v596q0 63 62 63h323q65 0 65 -63v-79q0 -21 -26 -21q-27 0 -27 21v79q0 12 -12 12h-323q-11 0 -11 -12v-596q0 -12 11 -12h323q12 0 12 12v136q0 24 27 24z" />
    <glyph glyph-name="D" unicode="D" 
d="M219 722q76 0 139.5 -28t109 -77t70.5 -115t25 -142q0 -77 -25 -143t-70.5 -114t-109 -75.5t-139.5 -27.5h-141q-26 0 -26 26v671q0 25 26 25h141zM511 360q0 68 -21.5 125t-60 98.5t-92.5 64.5t-118 23h-104q-11 0 -11 -12v-596q0 -12 11 -12h104q66 0 120 23t92 64
t59 97.5t21 124.5z" />
    <glyph glyph-name="E" unicode="E" 
d="M497 722q26 0 26 -25q0 -26 -26 -26h-362q-12 0 -12 -12v-243q0 -12 12 -12h237q25 0 25 -25q0 -26 -25 -26h-237q-12 0 -12 -12v-278q0 -12 12 -12h382q26 0 26 -25q0 -26 -26 -26h-419q-26 0 -26 26v671q0 25 26 25h399z" />
    <glyph glyph-name="F" unicode="F" 
d="M508 722q26 0 26 -25q0 -26 -26 -26h-364q-11 0 -11 -12v-243q0 -12 11 -12h237q26 0 26 -25q0 -26 -26 -26h-237q-11 0 -11 -12v-315q0 -26 -26 -26q-25 0 -25 26v671q0 25 25 25h401z" />
    <glyph glyph-name="G" unicode="G" 
d="M451 722q65 0 65 -63v-79q0 -21 -27 -21q-26 0 -26 21v79q0 12 -12 12h-323q-12 0 -12 -12v-596q0 -12 12 -12h323q12 0 12 12v247q0 12 -12 12h-153q-25 0 -25 25q0 26 25 26h192q26 0 26 -26v-283q0 -6 5.5 -13t11.5 -13.5t11.5 -12.5t5.5 -11q0 -10 -7 -17t-16 -7
q-19 0 -38 25q-20 -15 -38 -15h-323q-26 0 -44.5 18t-18.5 45v596q0 63 63 63h323z" />
    <glyph glyph-name="H" unicode="H" 
d="M83 722q25 0 25 -25v-294q0 -12 12 -12h375q12 0 12 12v294q0 25 25 25q26 0 26 -25v-671q0 -26 -26 -26q-25 0 -25 26v303q0 11 -12 11h-375q-12 0 -12 -11v-303q0 -26 -25 -26q-26 0 -26 26v671q0 25 26 25z" />
    <glyph glyph-name="I" unicode="I" 
d="M468 722q26 0 26 -25q0 -26 -26 -26h-125q-12 0 -12 -12v-596q0 -12 12 -12h125q26 0 26 -25q0 -26 -26 -26h-321q-26 0 -26 26q0 25 26 25h121q12 0 12 12v596q0 12 -12 12h-121q-26 0 -26 26q0 25 26 25h321z" />
    <glyph glyph-name="J" unicode="J" 
d="M499 722q25 0 25 -25v-671q0 -26 -25 -26h-383q-25 0 -25 26v146q0 26 25 26q26 0 26 -26v-109q0 -12 12 -12h307q12 0 12 12v596q0 12 -12 12h-233q-25 0 -25 26q0 25 25 25h271z" />
    <glyph glyph-name="K" unicode="K" 
d="M93 722q26 0 26 -25v-294q0 -12 11 -12h40q7 3 9 5l293 316q9 10 20 10q25 0 25 -26q0 -8 -6 -17l-252 -268q-4 -4 -4 -10q0 -10 13 -10h197q17 0 32 -7t26.5 -18.5t18 -27t6.5 -33.5v-279q0 -26 -26 -26t-26 26v279q0 35 -31 35h-335q-11 0 -11 -11v-303q0 -26 -26 -26
q-25 0 -25 26v671q0 25 25 25z" />
    <glyph glyph-name="L" unicode="L" 
d="M93 722q26 0 26 -25v-634q0 -12 11 -12h391q25 0 25 -25q0 -26 -25 -26h-428q-25 0 -25 26v671q0 25 25 25z" />
    <glyph glyph-name="M" unicode="M" 
d="M520 722q23 0 23 -31v-665q0 -26 -26 -26q-25 0 -25 26v517q0 14 -12 14q-6 0 -11 -8l-125 -254q-9 -20 -27 -20q-17 0 -27 19l-144 266q-6 9 -11 9q-12 0 -12 -13v-530q0 -26 -25 -26q-26 0 -26 26v665q0 31 22 31q16 0 27 -18l184 -331q5 -8 11 -8q5 0 10 8l168 329
q11 20 26 20z" />
    <glyph glyph-name="N" unicode="N" 
d="M104 722q32 0 49 -30l327 -591q5 -8 12 -8q10 0 10 14v590q0 25 26 25q25 0 25 -25v-649q0 -48 -39 -48q-35 0 -55 35l-324 582q-5 9 -12 9q-10 0 -10 -13v-587q0 -26 -26 -26q-25 0 -25 26v653q0 43 42 43z" />
    <glyph glyph-name="O" unicode="O" 
d="M467 722q65 0 65 -63v-596q0 -27 -18 -45t-47 -18h-323q-25 0 -43.5 18t-18.5 45v596q0 63 62 63h323zM144 671q-11 0 -11 -12v-596q0 -12 11 -12h323q12 0 12 12v596q0 12 -12 12h-323z" />
    <glyph glyph-name="P" unicode="P" 
d="M511 722q26 0 26 -25v-345q0 -26 -26 -26h-370q-12 0 -12 -11v-289q0 -26 -25 -26q-26 0 -26 26v671q0 25 26 25h407zM141 671q-12 0 -12 -12v-270q0 -12 12 -12h333q12 0 12 12v270q0 12 -12 12h-333z" />
    <glyph glyph-name="Q" unicode="Q" 
d="M449 722q65 0 65 -63v-596q0 -27 -18.5 -45t-46.5 -18h-34q-13 0 -13 -9l2 -8q33 -49 59 -49h64q25 0 25 -26t-25 -26h-64q-26 0 -47 7.5t-34 27.5l-50 78q-3 5 -9 5h-197q-27 0 -45 18t-18 45v596q0 63 63 63h323zM126 671q-12 0 -12 -12v-596q0 -12 12 -12h149
q14 0 14 10l-16 32q-5 10 -5 22q0 25 26 25q19 0 33 -27l29 -56q6 -6 10 -6h83q11 0 11 12v596q0 12 -11 12h-323z" />
    <glyph glyph-name="R" unicode="R" 
d="M504 722q26 0 26 -25v-339q0 -26 -26 -26h-62q-12 0 -12 -10q0 -5 1 -6l110 -280q2 -8 2 -10q0 -26 -27 -26q-18 0 -22 16l-121 308q-5 8 -12 8h-226q-12 0 -12 -12v-294q0 -26 -25 -26q-26 0 -26 26v671q0 25 26 25h406zM479 659q0 12 -12 12h-332q-12 0 -12 -12v-264
q0 -12 12 -12h332q12 0 12 12v264z" />
    <glyph glyph-name="S" unicode="S" 
d="M506 722q25 0 25 -25v-77q0 -26 -25 -26q-26 0 -26 26v39q0 12 -12 12h-319q-12 0 -12 -12v-255q0 -11 12 -11h357q25 0 25 -26v-341q0 -26 -25 -26h-396q-26 0 -26 26v94q0 26 26 26q25 0 25 -26v-57q0 -12 12 -12h321q12 0 12 12v267q0 11 -12 11h-356q-26 0 -26 26
v330q0 25 26 25h394z" />
    <glyph glyph-name="T" unicode="T" 
d="M528 722q25 0 25 -25q0 -26 -25 -26h-184q-12 0 -12 -12v-633q0 -26 -26 -26q-25 0 -25 26v633q0 12 -12 12h-182q-25 0 -25 26q0 25 25 25h441z" />
    <glyph glyph-name="U" unicode="U" 
d="M98 722q25 0 25 -25v-618q0 -28 26 -28h323q20 0 20 28v618q0 25 25 25q26 0 26 -25v-618q0 -32 -20 -55.5t-51 -23.5h-323q-31 0 -54 22t-23 57v618q0 25 26 25z" />
    <glyph glyph-name="V" unicode="V" 
d="M525 722q27 0 27 -24v-3.5t-1 -4.5l-86 -608q-5 -35 -29 -58.5t-62 -23.5h-133q-38 0 -62 23.5t-29 58.5l-86 608q-1 2 -1 4.5v3.5q0 24 27 24q12 0 17 -5.5t7 -16.5l86 -611q5 -38 41 -38h133q15 0 26.5 9.5t14.5 28.5l86 611q2 11 7 16.5t17 5.5z" />
    <glyph glyph-name="W" unicode="W" 
d="M87 722q26 0 26 -25v-619q0 -27 27 -27h114q33 0 33 32v371q0 26 25 26q26 0 26 -26v-371q0 -32 36 -32h106q22 0 22 27v619q0 25 26 25q25 0 25 -25v-619q0 -35 -22 -56.5t-51 -21.5h-112q-41 0 -53 30q-15 -30 -58 -30h-117q-36 0 -57 22t-21 56v619q0 25 25 25z" />
    <glyph glyph-name="X" unicode="X" 
d="M123 722q14 0 20 -11l154 -253q6 -7 11 -7q6 0 10 7l154 253q5 11 20 11q26 0 26 -25q0 -8 -3 -14l-174 -285q-2 -6 -2 -5l2 -6l212 -347q5 -7 5 -14q0 -26 -27 -26q-14 0 -21 12l-192 315q-4 7 -10 7q-5 0 -11 -7l-192 -315q-8 -12 -21 -12q-27 0 -27 26q0 7 5 14
l212 347l2 6q0 -1 -2 5l-174 285q-3 6 -3 14q0 25 26 25z" />
    <glyph glyph-name="Y" unicode="Y" 
d="M97 722q14 0 22 -15l177 -378q4 -10 10 -10q8 0 11 10l179 378q7 15 22 15q27 0 27 -24q0 -2 -2 -12l-209 -445v-215q0 -26 -25 -26q-26 0 -26 26v215l-211 445q-2 10 -2 12q0 24 27 24z" />
    <glyph glyph-name="Z" unicode="Z" 
d="M467 722q33 0 33 -28q0 -12 -10 -29l-326 -596q-2 -8 -2 -7q0 -11 13 -11h325q25 0 25 -25q0 -26 -25 -26h-388q-23 0 -23 28q0 14 9 29l318 597q1 1 1 7q0 10 -12 10h-276q-25 0 -25 26q0 25 25 25h338z" />
    <glyph glyph-name="bracketleft" unicode="[" 
d="M358 -163q25 0 25 -26q0 -25 -25 -25h-47q-32 0 -55.5 20t-23.5 51v788q0 31 22 54t57 23h47q25 0 25 -25q0 -26 -25 -26h-47q-28 0 -28 -26v-788q0 -20 28 -20h47z" />
    <glyph glyph-name="backslash" unicode="\" 
d="M69 786q15 0 23 -14l477 -798q4 -4 4 -14q0 -23 -28 -23q-12 0 -22 13l-476 798q-5 7 -5 14q0 24 27 24z" />
    <glyph glyph-name="bracketright" unicode="]" 
d="M304 722q35 0 57 -23t22 -54v-788q0 -31 -23.5 -51t-55.5 -20h-47q-25 0 -25 25q0 26 25 26h47q28 0 28 20v788q0 26 -28 26h-47q-25 0 -25 26q0 25 25 25h47z" />
    <glyph glyph-name="asciicircum" unicode="^" 
d="M308 715q8 -1 24.5 -11t37.5 -32l134 -142q9 -9 9 -17q0 -27 -27 -27q-10 0 -18 8l-151 153q-3 3 -9 3q-5 0 -9 -3l-152 -153q-8 -8 -19 -8q-25 0 -25 27q0 9 8 17l135 141q41 42 62 44z" />
    <glyph glyph-name="underscore" unicode="_" 
d="M615 -91q26 0 26 -26q0 -25 -26 -25h-615q-26 0 -26 25q0 26 26 26h615z" />
    <glyph glyph-name="grave" unicode="`" 
d="M259 764q14 0 23 -13l95 -142q5 -5 5 -14q0 -22 -28 -22q-13 0 -23 13l-95 142q-4 7 -4 14q0 22 27 22z" />
    <glyph glyph-name="a" unicode="a" 
d="M464 508q13 0 25 -6.5t21 -16.5t14 -22.5t5 -25.5v-437h-417q-26 0 -26 26v174q0 63 65 75l317 56q10 1 10 12v94q0 20 -18 20h-311q-12 0 -12 -12v-47q0 -25 -25 -25q-26 0 -26 25v84q0 26 26 26h352zM157 224q-10 -2 -15 -9t-5 -15v-137q0 -12 12 -12h317q12 0 12 12
v204q0 11 -14 11z" />
    <glyph glyph-name="b" unicode="b" 
d="M106 722q26 0 26 -25v-177q0 -12 11 -12h310q82 0 82 -79v-352q0 -77 -81 -77h-374v697q0 25 26 25zM483 70v363q0 8 -7 16t-13 8h-320q-11 0 -11 -12v-382q0 -12 11 -12h325q10 0 15 15v4z" />
    <glyph glyph-name="c" unicode="c" 
d="M506 508q25 0 25 -26v-94q0 -26 -25 -26q-26 0 -26 26v57q0 12 -12 12h-321q-12 0 -12 -12v-382q0 -12 12 -12h321q12 0 12 12v66q0 26 26 26q25 0 25 -26v-103q0 -26 -25 -26h-396q-26 0 -26 26v456q0 26 26 26h396z" />
    <glyph glyph-name="d" unicode="d" 
d="M509 722q26 0 26 -25v-697h-374q-81 0 -81 77v352q0 79 82 79h310q11 0 11 12v177q0 25 26 25zM483 445q0 12 -11 12h-319q-7 0 -14 -8t-7 -16v-367q6 -15 15 -15h325q11 0 11 12v382z" />
    <glyph glyph-name="e" unicode="e" 
d="M506 508q25 0 25 -26v-218q0 -25 -25 -25h-359q-12 0 -12 -12v-164q0 -12 12 -12h321q12 0 12 12v66q0 26 26 26q25 0 25 -26v-103q0 -26 -25 -26h-396q-26 0 -26 26v456q0 26 26 26h396zM480 445q0 12 -12 12h-321q-12 0 -12 -12v-143q0 -12 12 -12h321q12 0 12 12v143z
" />
    <glyph glyph-name="f" unicode="f" 
d="M514 722q25 0 25 -25v-82q0 -26 -25 -26q-26 0 -26 26v44q0 12 -12 12h-243q-12 0 -12 -12v-139q0 -12 12 -12h142q26 0 26 -26q0 -25 -26 -25h-142q-12 0 -12 -12v-421q0 -25 -25 -25q-26 0 -26 25v421q0 12 -12 12h-57q-25 0 -25 25q0 26 25 26h57q12 0 12 12v177
q0 25 26 25h318z" />
    <glyph glyph-name="g" unicode="g" 
d="M535 508v-659q0 -29 -17.5 -46t-45.5 -17h-311q-26 0 -26 25q0 26 26 26h283q13 0 26 10t13 24v117q0 12 -11 12h-310q-82 0 -82 79v352q0 77 81 77h374zM483 445q0 12 -11 12h-325q-10 0 -14 -15l-1 -4v-365q0 -6 7 -14t14 -8h319q11 0 11 12v382z" />
    <glyph glyph-name="h" unicode="h" 
d="M535 30q0 -30 -27 -30q-25 0 -25 30v403q0 8 -7 16t-13 8h-320q-11 0 -11 -12v-419q0 -26 -26 -26t-26 26v671q0 25 26 25t26 -25v-177q0 -12 11 -12h310q82 0 82 -79v-399z" />
    <glyph glyph-name="i" unicode="i" 
d="M283 722q24 0 39.5 -15.5t15.5 -38.5t-15.5 -38.5t-39.5 -15.5q-22 0 -38.5 15.5t-16.5 38.5t16.5 38.5t38.5 15.5zM506 26q0 -26 -26 -26h-345q-25 0 -25 26q0 25 25 25h136q12 0 12 12v382q0 12 -12 12h-121q-25 0 -25 25q0 26 25 26h159q25 0 25 -26v-419
q0 -12 12 -12h134q26 0 26 -25z" />
    <glyph glyph-name="j" unicode="j" 
d="M466 508q26 0 26 -26v-671q0 -25 -26 -25h-332q-26 0 -26 25v83q0 26 26 26t26 -26v-45q0 -12 11 -12h258q11 0 11 12v596q0 12 -11 12h-119q-26 0 -26 25q0 26 26 26h156zM442 722q23 0 38.5 -15.5t15.5 -38.5t-15.5 -38.5t-38.5 -15.5t-39 15.5t-16 38.5t16 38.5
t39 15.5z" />
    <glyph glyph-name="k" unicode="k" 
d="M116 722q26 0 26 -25v-399q0 -13 12 -13h30q1 0 3 1l4 2l287 216q4 4 14 4q25 0 25 -26q0 -13 -13 -22l-255 -192q-7 -7 -7 -11q0 -2 7 -9l255 -200q13 -9 13 -21q0 -27 -25 -27q-9 0 -14 5l-286 227q-5 3 -8 3h-28q-14 0 -14 -12v-197q0 -26 -26 -26q-25 0 -25 26v671
q0 25 25 25z" />
    <glyph glyph-name="l" unicode="l" 
d="M264 722q63 0 63 -63v-596q0 -12 12 -12h129q26 0 26 -25q0 -26 -26 -26h-321q-26 0 -26 26q0 25 26 25h117q12 0 12 12v596q0 12 -12 12h-79q-25 0 -25 26q0 25 25 25h79z" />
    <glyph glyph-name="m" unicode="m" 
d="M59 508h201q28 0 45 -30q21 30 42 30h119q18 0 34 -7.5t28.5 -20t20 -30t7.5 -38.5v-386q0 -26 -26 -26t-26 26v386q0 19 -12 32t-26 13h-94q-42 0 -42 -40v-391q0 -26 -26 -26t-26 26v391q0 40 -38 40h-118q-11 0 -11 -12v-419q0 -26 -26 -26t-26 26v482z" />
    <glyph glyph-name="n" unicode="n" 
d="M84 508h358q18 0 34 -7t28 -20t19.5 -30.5t7.5 -38.5v-386q0 -26 -25 -26q-26 0 -26 26v386q0 19 -12 32t-26 13h-295q-12 0 -12 -12v-419q0 -26 -25 -26q-26 0 -26 26v482z" />
    <glyph glyph-name="o" unicode="o" 
d="M468 508q63 0 63 -63v-382q0 -26 -17 -44.5t-46 -18.5h-321q-28 0 -45.5 18t-17.5 45v382q0 12 5.5 23t14 20t20 14.5t23.5 5.5h321zM147 457q-12 0 -12 -12v-382q0 -12 12 -12h321q12 0 12 12v382q0 12 -12 12h-321z" />
    <glyph glyph-name="p" unicode="p" 
d="M80 508h374q81 0 81 -77v-352q0 -79 -82 -79h-310q-11 0 -11 -12v-177q0 -25 -26 -25t-26 25v697zM483 442q0 15 -15 15h-325q-11 0 -11 -12v-382q0 -12 11 -12h320q6 0 13 7.5t7 14.5v369z" />
    <glyph glyph-name="q" unicode="q" 
d="M535 508v-697q0 -25 -26 -25t-26 25v177q0 12 -11 12h-310q-82 0 -82 79v352q0 77 81 77h374zM147 457q-14 0 -14 -15v-369q0 -22 20 -22h319q11 0 11 12v382q0 12 -11 12h-325z" />
    <glyph glyph-name="r" unicode="r" 
d="M253 508q15 0 30 -25q16 25 36 25h191q26 0 26 -26v-101q0 -26 -26 -26q-25 0 -25 26v64q0 12 -12 12h-139q-24 0 -40 -17t-16 -39v-338q0 -12 12 -12h132q25 0 25 -25q0 -26 -25 -26h-317q-26 0 -26 26q0 25 26 25h111q11 0 11 12v382q0 12 -11 12h-100q-25 0 -25 25
q0 26 25 26h137z" />
    <glyph glyph-name="s" unicode="s" 
d="M468 508q26 0 44.5 -17.5t18.5 -45.5v-42q0 -26 -25 -26q-26 0 -26 26v42q0 12 -12 12h-321q-12 0 -12 -12v-132q0 -11 12 -11h322q62 0 62 -52v-187q0 -26 -17 -44.5t-46 -18.5h-321q-63 0 -63 63v64q0 26 26 26q25 0 25 -26v-64q0 -12 12 -12h321q12 0 12 12v176
q0 11 -12 11h-321q-63 0 -63 63v132q0 12 5.5 23t14 20t20 14.5t23.5 5.5h321z" />
    <glyph glyph-name="t" unicode="t" 
d="M199 508q12 0 12 12v177q0 25 25 25q26 0 26 -25v-177q0 -12 12 -12h215q26 0 26 -26q0 -25 -26 -25h-215q-12 0 -12 -12v-382q0 -12 12 -12h178q12 0 12 12v106q0 26 25 26q26 0 26 -26v-106q0 -26 -20 -44.5t-43 -18.5h-178q-11 0 -22 5.5t-20 14t-15 20t-6 23.5v382
q0 12 -12 12h-73q-26 0 -26 25q0 26 26 26h73z" />
    <glyph glyph-name="u" unicode="u" 
d="M110 508q25 0 25 -26v-385q0 -20 12.5 -33t26.5 -13h294q12 0 12 12v419q0 26 26 26q25 0 25 -26v-482h-357q-18 0 -34 7.5t-28.5 20.5t-20 30.5t-7.5 38.5v385q0 26 26 26z" />
    <glyph glyph-name="v" unicode="v" 
d="M517 509q27 0 27 -26q0 -2 -0.5 -4t-1.5 -5l-173 -458q-6 -16 -24 -16h-71q-18 0 -24 15l-177 459q-1 3 -1.5 5t-0.5 4q0 26 27 26q16 0 23 -16l168 -435q4 -13 21 -13q13 0 20 13l164 435q7 16 23 16z" />
    <glyph glyph-name="w" unicode="w" 
d="M85 508q26 0 26 -26v-385q0 -20 12 -33t26 -13h91q42 0 42 40v191q0 26 26 26q25 0 25 -26v-191q0 -40 39 -40h95q37 0 37 40v391q0 26 26 26t26 -26v-391q0 -42 -23.5 -66.5t-65.5 -24.5h-115q-34 0 -43 34q-12 -34 -45 -34h-115q-17 0 -33.5 7.5t-29 20.5t-20 30.5
t-7.5 38.5v385q0 26 26 26z" />
    <glyph glyph-name="x" unicode="x" 
d="M108 509q10 0 19 -9l171 -197q5 -4 10 -4q3 0 8 4l172 197q7 9 19 9q25 0 25 -26q0 -10 -7 -17l-178 -205q-2 -2 -2 -7q0 -2 2 -8l175 -202q7 -7 7 -17q0 -27 -26 -27q-11 0 -18 9l-169 195q-5 5 -8 5q-5 0 -10 -5l-168 -195q-8 -9 -18 -9q-26 0 -26 27q0 5 2 8.5t5 8.5
l174 202q2 6 2 8q0 5 -2 7l-178 205q-7 7 -7 17q0 26 26 26z" />
    <glyph glyph-name="y" unicode="y" 
d="M522 509q27 0 27 -24q0 -5 -3 -11l-249 -632q-23 -56 -59 -56h-78q-25 0 -25 26q0 25 25 25h51q35 0 50 40l42 115q0 9 -12 9h-18q-18 0 -24 15l-181 458q-3 6 -3 9q0 26 27 26q17 0 23 -16l173 -434q4 -12 21 -12q14 0 20 12l170 434q6 16 23 16z" />
    <glyph glyph-name="z" unicode="z" 
d="M520 26q0 -26 -26 -26h-358q-29 0 -29 20q0 10 8 21l300 397q3 6 3 8q0 11 -13 11h-263q-26 0 -26 25q0 26 26 26h337q29 0 29 -20q0 -11 -8 -21l-300 -397q-3 -6 -3 -8q0 -11 13 -11h284q26 0 26 -25z" />
    <glyph glyph-name="braceleft" unicode="{" 
d="M358 -163q25 0 25 -26q0 -25 -25 -25h-47q-32 0 -55.5 20t-23.5 51v315q0 23 -12 35t-26.5 20.5t-26.5 17.5t-12 25q0 18 12 26t26.5 15t26.5 17.5t12 33.5v283q0 31 22 54t57 23h47q25 0 25 -25q0 -26 -25 -26h-47q-28 0 -28 -26v-275q0 -23 -7.5 -39.5t-19 -28.5
t-25 -20t-25.5 -13q11 -3 24.5 -10.5t25 -20t19.5 -31t8 -43.5v-307q0 -20 28 -20h47z" />
    <glyph glyph-name="bar" unicode="|" 
d="M338 -189q0 -25 -26 -25q-25 0 -25 25v885q0 25 25 25q26 0 26 -25v-885z" />
    <glyph glyph-name="braceright" unicode="}" 
d="M227 -163q28 0 28 20v307q0 25 8 43.5t19.5 31t25 20t24.5 10.5q-12 5 -25.5 13t-25 20t-19 28.5t-7.5 39.5v275q0 26 -28 26h-46q-26 0 -26 26q0 25 26 25h46q35 0 57 -23t22 -54v-283q0 -23 12 -33.5t26.5 -17.5t26.5 -15t12 -26q0 -16 -12 -25t-26.5 -17.5
t-26.5 -20.5t-12 -35v-315q0 -31 -23.5 -51t-55.5 -20h-46q-26 0 -26 25q0 26 26 26h46z" />
    <glyph glyph-name="asciitilde" unicode="~" 
d="M231 419q19 0 41 -9.5t43 -21t38.5 -21t28.5 -9.5q10 0 22 8.5t23 19t20 19.5t14 9q26 0 26 -25q0 -13 -10 -27.5t-26 -27t-34.5 -20.5t-34.5 -8q-18 0 -39.5 9.5t-42.5 21.5t-39 21.5t-30 9.5q-15 0 -26.5 -9.5t-21 -21.5t-16.5 -21.5t-13 -9.5q-27 0 -27 27q0 13 9 28
t23.5 28t33 21.5t38.5 8.5z" />
    <glyph glyph-name="nonbreakingspace" unicode="&#xa0;" 
 />
    <glyph glyph-name="exclamdown" unicode="&#xa1;" 
d="M305 530q14 0 14 -8l25 -517q0 -12 -13 -12h-60q-10 0 -10 12l30 517q0 8 14 8zM308 722q29 0 49 -20.5t20 -49.5t-20 -49.5t-49 -20.5t-49.5 20.5t-20.5 49.5t20.5 49.5t49.5 20.5z" />
    <glyph glyph-name="cent" unicode="&#xa2;" 
d="M435 704q9 0 15.5 -5.5t6.5 -16.5q0 -8 -1 -10l-21 -67q0 -10 11 -10h60q25 0 25 -25v-96q0 -25 -25 -25q-26 0 -26 25v58q0 12 -12 12h-49q-8 0 -10 -8l-139 -383q-1 -1 -1 -5q0 -11 13 -11h186q12 0 12 12v65q0 26 26 26q25 0 25 -26v-102q0 -26 -25 -26h-251
q-7 0 -12 -8l-36 -100q-6 -18 -23 -18q-10 0 -18 7.5t-8 18.5q0 2 1 3l2 9l27 77q0 11 -12 11h-66q-26 0 -26 26v458q0 25 26 25h253q10 0 17 13l28 75q6 21 27 21zM147 544q-12 0 -12 -12v-383q0 -12 12 -12h57q9 0 10 7l139 384v6q0 10 -12 10h-194z" />
    <glyph glyph-name="sterling" unicode="&#xa3;" 
d="M459 722q65 0 65 -63v-79q0 -21 -27 -21q-26 0 -26 21v79q0 12 -12 12h-220q-12 0 -12 -12v-185h170q26 0 26 -25q0 -26 -26 -26h-170v-360q0 -12 12 -12h220q12 0 12 12v136q0 24 26 24q27 0 27 -24v-136q0 -27 -18.5 -45t-46.5 -18h-343q-25 0 -25 26q0 25 25 25h48
q12 0 12 12v360h-39q-25 0 -25 26q0 25 25 25h39v222q0 24 26 26h257z" />
    <glyph glyph-name="yen" unicode="&#xa5;" 
d="M97 722q14 0 22 -15l177 -378q4 -10 10 -10q8 0 11 10l179 378q7 15 22 15q27 0 27 -24q0 -3 -0.5 -5.5t-1.5 -6.5l-132 -279h95q25 0 25 -26t-25 -26h-118l-54 -114v-39h172q25 0 25 -26t-25 -26h-172v-124q0 -26 -25 -26q-26 0 -26 26v124h-173q-26 0 -26 26t26 26h173
v39l-55 114h-118q-26 0 -26 26t26 26h94l-132 279q-1 4 -1.5 6.5t-0.5 5.5q0 24 27 24z" />
    <glyph glyph-name="brokenbar" unicode="&#xa6;" 
d="M338 -189q0 -25 -26 -25q-25 0 -25 25v285q0 25 25 25q26 0 26 -25v-285zM338 411q0 -25 -26 -25q-25 0 -25 25v285q0 25 25 25q26 0 26 -25v-285z" />
    <glyph glyph-name="dieresis" unicode="&#xa8;" 
d="M402 697q25 0 41.5 -16t16.5 -37q0 -22 -16.5 -37.5t-41.5 -15.5t-41.5 15.5t-16.5 37.5q0 21 16.5 37t41.5 16zM212 697q25 0 41.5 -16t16.5 -37q0 -22 -16.5 -37.5t-41.5 -15.5t-41.5 15.5t-16.5 37.5q0 21 16.5 37t41.5 16z" />
    <glyph glyph-name="copyright" unicode="&#xa9;" 
d="M308 722q64 0 117.5 -28t92 -77t59.5 -115t21 -142q0 -77 -21 -143t-59.5 -114t-92 -75.5t-117.5 -27.5q-65 0 -118.5 27.5t-92 75.5t-59.5 114t-21 143q0 76 21 142t59.5 115t92 77t118.5 28zM308 671q-54 0 -98.5 -23t-76 -64.5t-48.5 -98.5t-17 -125t17 -124.5
t48.5 -97.5t75.5 -64t99 -23q53 0 97 23t75.5 64t48.5 97.5t17 124.5t-17.5 125t-49 98.5t-75.5 64.5t-96 23zM390 508q26 0 26 -26v-59q0 -26 -26 -26q-25 0 -25 26v22q0 12 -12 12h-91q-12 0 -12 -12v-167q0 -11 12 -11h91q12 0 12 11v32q0 26 25 26q26 0 26 -26v-69
q0 -25 -26 -25h-165q-26 0 -26 25v241q0 26 26 26h165z" />
    <glyph glyph-name="ordfeminine" unicode="&#xaa;" 
d="M401 675q17 0 28 -14t11 -30v-262h-250q-15 0 -15 15v105q0 38 39 46l190 34q6 0 6 7v55q0 12 -10 12h-188q-7 0 -7 -7v-28q0 -15 -15 -15t-15 15v51q0 16 15 16h211zM218 503q-13 -1 -13 -14v-81q0 -7 7 -7h191q7 0 7 7v122q0 7 -9 7z" />
    <glyph glyph-name="guillemotleft" unicode="&#xab;" 
d="M495 559q26 0 26 -27q0 -6 -8 -17l-153 -153q-2 -6 -2 -8t2 -8l153 -153q8 -8 8 -18q0 -26 -26 -26q-11 0 -19 8l-140 135q-45 42 -44 62q0 20 44 62l140 135q8 8 19 8zM297 559q26 0 26 -27q0 -6 -8 -17l-153 -153q-2 -6 -2 -8t2 -8l153 -153q8 -8 8 -18q0 -26 -26 -26
q-11 0 -19 8l-141 135q-43 42 -43 62t43 62l141 135q8 8 19 8z" />
    <glyph glyph-name="registered" unicode="&#xae;" 
d="M416 514q26 0 26 -26v-132q0 -25 -26 -25h-16q-12 0 -12 -11l17 -63q3 -6 3 -10q0 -26 -27 -26q-17 0 -22 17l-28 85q-3 8 -12 8h-63q-11 0 -11 -12v-70q0 -25 -26 -25t-26 25v239q0 26 26 26h197zM390 451q0 12 -11 12h-123q-11 0 -11 -12v-57q0 -12 11 -12h123
q11 0 11 12v57zM308 722q64 0 117.5 -28t92 -77t59.5 -115t21 -142q0 -77 -21 -143t-59.5 -114t-92 -75.5t-117.5 -27.5q-65 0 -118.5 27.5t-92 75.5t-59.5 114t-21 143q0 76 21 142t59.5 115t92 77t118.5 28zM308 671q-54 0 -98.5 -23t-76 -64.5t-48.5 -98.5t-17 -125
t17 -124.5t48.5 -97.5t75.5 -64t99 -23q53 0 97 23t75.5 64t48.5 97.5t17 124.5t-17.5 125t-49 98.5t-75.5 64.5t-96 23z" />
    <glyph glyph-name="macron" unicode="&#xaf;" 
d="M506 675q25 0 25 -26q0 -25 -25 -25h-396q-26 0 -26 25q0 26 26 26h396z" />
    <glyph glyph-name="degree" unicode="&#xb0;" 
d="M485 501q0 -36 -13.5 -68t-37.5 -56.5t-56.5 -38.5t-69.5 -14t-69.5 14t-56.5 38t-38 56t-14 69t14.5 69.5t38.5 56.5t56.5 37.5t68.5 13.5t68 -14t56.5 -38t38.5 -56.5t14 -68.5zM429 501q0 25 -9.5 47t-26 38.5t-38.5 26t-47 9.5q-26 0 -48 -9.5t-38.5 -26t-26 -38.5
t-9.5 -47t9.5 -47t26 -38.5t38.5 -26t48 -9.5q25 0 47 9.5t38.5 26t26 38.5t9.5 47z" />
    <glyph glyph-name="plusminus" unicode="&#xb1;" 
d="M84 1zM309 586q25 0 25 -26v-159q0 -12 12 -12h160q25 0 25 -26q0 -25 -25 -25h-160q-12 0 -12 -12v-163q0 -26 -25 -26q-26 0 -26 26v163q0 12 -12 12h-161q-26 0 -26 25q0 26 26 26h161q12 0 12 12v159q0 26 26 26zM506 52q25 0 25 -26q0 -25 -25 -25h-396
q-26 0 -26 25q0 26 26 26h396z" />
    <glyph glyph-name="acute" unicode="&#xb4;" 
d="M332 751q9 13 23 13q27 0 27 -22q0 -7 -5 -14l-94 -142q-10 -13 -23 -13q-28 0 -28 22q0 10 4 14z" />
    <glyph glyph-name="mu" unicode="&#xb5;" 
d="M535 79q0 -79 -82 -79h-310q-11 0 -11 -12v-177q0 -25 -26 -25t-26 25v671q0 26 26 26t26 -26v-419q0 -12 11 -12h320q6 0 13 8t7 16v403q0 30 25 30q27 0 27 -30v-399z" />
    <glyph glyph-name="periodcentered" unicode="&#xb7;" 
d="M308 431q29 0 49 -20.5t20 -49.5t-20 -49.5t-49 -20.5t-49.5 20.5t-20.5 49.5t20.5 49.5t49.5 20.5z" />
    <glyph glyph-name="cedilla" unicode="&#xb8;" 
d="M304 -23q20 0 34 -12.5t14 -35.5q0 -25 -5.5 -50.5t-15 -46.5t-23 -34t-29.5 -13q-13 0 -13 13q0 8 3.5 15t8 14t8.5 15.5t4 19.5q0 9 -5.5 18t-12 18.5t-12 19.5t-5.5 21q0 16 13.5 27t35.5 11z" />
    <glyph glyph-name="ordmasculine" unicode="&#xba;" 
d="M404 675q38 0 38 -39v-228q0 -16 -10 -27.5t-28 -11.5h-193q-17 0 -27 11t-10 28v228q0 15 11.5 27t25.5 12h193zM211 643q-7 0 -7 -7v-228q0 -7 7 -7h193q7 0 7 7v228q0 7 -7 7h-193z" />
    <glyph glyph-name="guillemotright" unicode="&#xbb;" 
d="M120 559q11 0 19 -8l141 -135q43 -42 43 -62t-43 -62l-141 -135q-8 -8 -19 -8q-26 0 -26 26q0 10 9 18l152 153q2 6 2 8t-2 8l-152 153q-9 9 -9 17q0 27 26 27zM318 559q11 0 19 -8l141 -135q43 -42 43 -62t-43 -62l-141 -135q-8 -8 -19 -8q-26 0 -26 26q0 10 9 18
l152 153l2 4t1 4q0 3 -1 4.5t-2 3.5l-152 153q-9 9 -9 17q0 27 26 27z" />
    <glyph glyph-name="onequarter" unicode="&#xbc;" 
d="M442 461q23 0 23 -33l-57 -289h100v85q0 29 29 29t29 -29v-85q34 0 34 -29q0 -30 -34 -30v-51q0 -29 -29 -29t-29 29v51h-134q-29 0 -29 28l64 325q9 28 33 28zM522 754q27 0 27 -25q0 -9 -4 -13l-451 -752q-6 -14 -22 -14q-27 0 -27 24q0 8 5 13l450 754q10 13 22 13z
M171 732q24 0 24 -25v-399q0 -28 -30 -28q-28 0 -28 28v332l-75 -64q-7 -7 -19 -7q-29 0 -29 29q0 13 10 22l123 101q14 11 24 11z" />
    <glyph glyph-name="onehalf" unicode="&#xbd;" 
d="M570 443q29 0 29 -28v-92q0 -8 -8 -19l-176 -239v-9h172q28 0 28 -28t-28 -28h-200q-28 0 -28 28v49q0 12 7 19l170 231v59h-111v-70q0 -28 -28 -28t-28 28v99q0 28 28 28h173zM508 754q27 0 27 -25q0 -9 -4 -13l-451 -752q-6 -14 -22 -14q-27 0 -27 24q0 8 5 13l450 754
q10 13 22 13zM157 732q24 0 24 -25v-399q0 -28 -30 -28q-28 0 -28 28v332l-75 -64q-7 -7 -19 -7q-29 0 -29 29q0 13 10 22l123 101q14 11 24 11z" />
    <glyph glyph-name="threequarters" unicode="&#xbe;" 
d="M223 721q24 0 24 -37q0 -9 -7 -19l-44 -77h27q17 0 31 -11t14 -28v-52q0 -44 -19.5 -75t-51 -51t-70 -29.5t-77.5 -9.5q-36 0 -36 24q0 25 24 25q35 0 68 7t58 21t40 36t15 52v42h-68q-29 0 -29 18q0 8 7 21l62 94h-141q-23 0 -23 25q0 24 23 24h173zM522 754
q27 0 27 -25q0 -9 -4 -13l-451 -752q-6 -14 -22 -14q-27 0 -27 24q0 8 5 13l450 754q10 13 22 13zM442 461q23 0 23 -33l-57 -289h100v85q0 29 29 29t29 -29v-85q34 0 34 -29q0 -30 -34 -30v-51q0 -29 -29 -29t-29 29v51h-134q-29 0 -29 28l64 325q9 28 33 28z" />
    <glyph glyph-name="questiondown" unicode="&#xbf;" 
d="M103 246q0 13 12 22l169 126q5 2 5 9v107q0 26 26 26q25 0 25 -26v-127q0 -13 -13 -22l-169 -126q-4 -3 -4 -9v-163q0 -12 11 -12h284q11 0 11 12v85q0 26 26 26q25 0 25 -26v-122q0 -26 -25 -26h-358q-25 0 -25 26v220zM246 644q0 29 20.5 49.5t49.5 20.5t49.5 -20.5
t20.5 -49.5t-20.5 -49.5t-49.5 -20.5t-49.5 20.5t-20.5 49.5z" />
    <glyph glyph-name="Agrave" unicode="&#xc0;" 
d="M63 0zM374 722q36 0 61 -23t30 -58l86 -612q1 -1 1 -5q0 -24 -27 -24q-21 0 -24 22l-28 188q-1 10 -12 10h-307q-11 0 -12 -10l-28 -188q-3 -22 -24 -22q-27 0 -27 24q0 4 1 5l86 612q5 35 29 58t62 23h133zM241 671q-36 0 -41 -37l-47 -353q0 -10 11 -10h287q12 0 12 10
l-48 353q-5 37 -41 37h-133zM259 978q14 0 23 -13l95 -142q5 -5 5 -14q0 -22 -28 -22q-13 0 -23 13l-95 142q-4 7 -4 14q0 22 27 22z" />
    <glyph glyph-name="Aacute" unicode="&#xc1;" 
d="M63 0zM374 722q36 0 61 -23t30 -58l86 -612q1 -1 1 -5q0 -24 -27 -24q-21 0 -24 22l-28 188q-1 10 -12 10h-307q-11 0 -12 -10l-28 -188q-3 -22 -24 -22q-27 0 -27 24q0 4 1 5l86 612q5 35 29 58t62 23h133zM241 671q-36 0 -41 -37l-47 -353q0 -10 11 -10h287q12 0 12 10
l-48 353q-5 37 -41 37h-133zM332 965q9 13 23 13q27 0 27 -22q0 -7 -5 -14l-94 -142q-10 -13 -23 -13q-28 0 -28 22q0 10 4 14z" />
    <glyph glyph-name="Acircumflex" unicode="&#xc2;" 
d="M63 0zM374 722q36 0 61 -23t30 -58l86 -612q1 -1 1 -5q0 -24 -27 -24q-21 0 -24 22l-28 188q-1 10 -12 10h-307q-11 0 -12 -10l-28 -188q-3 -22 -24 -22q-27 0 -27 24q0 4 1 5l86 612q5 35 29 58t62 23h133zM241 671q-36 0 -41 -37l-47 -353q0 -10 11 -10h287q12 0 12 10
l-48 353q-5 37 -41 37h-133zM308 963q5 -3 17 -9t27 -21l94 -99q6 -6 6 -13q0 -19 -19 -19q-6 0 -12 6l-108 107q-3 3 -5 3q-3 0 -6 -3l-107 -107q-8 -6 -13 -6q-19 0 -19 19q0 7 6 13l95 99q28 30 44 30z" />
    <glyph glyph-name="Atilde" unicode="&#xc3;" 
d="M63 0zM374 722q36 0 61 -23t30 -58l86 -612q1 -1 1 -5q0 -24 -27 -24q-21 0 -24 22l-28 188q-1 10 -12 10h-307q-11 0 -12 -10l-28 -188q-3 -22 -24 -22q-27 0 -27 24q0 4 1 5l86 612q5 35 29 58t62 23h133zM241 671q-36 0 -41 -37l-47 -353q0 -10 11 -10h287q12 0 12 10
l-48 353q-5 37 -41 37h-133zM231 922q19 0 41 -9.5t43 -21t38.5 -21t28.5 -9.5q10 0 22 8.5t23 19t20 19t14 8.5q26 0 26 -24q0 -13 -10 -27.5t-26 -27t-34.5 -20.5t-34.5 -8q-18 0 -39.5 9.5t-42.5 21.5t-39 21.5t-30 9.5q-15 0 -26.5 -9.5t-21 -21.5t-16.5 -21.5t-13 -9.5
q-27 0 -27 27q0 13 9 28t23.5 28t33 21.5t38.5 8.5z" />
    <glyph glyph-name="Adieresis" unicode="&#xc4;" 
d="M63 0zM374 722q36 0 61 -23t30 -58l86 -612q1 -1 1 -5q0 -24 -27 -24q-21 0 -24 22l-28 188q-1 10 -12 10h-307q-11 0 -12 -10l-28 -188q-3 -22 -24 -22q-27 0 -27 24q0 4 1 5l86 612q5 35 29 58t62 23h133zM241 671q-36 0 -41 -37l-47 -353q0 -10 11 -10h287q12 0 12 10
l-48 353q-5 37 -41 37h-133zM402 911q25 0 41.5 -16t16.5 -37q0 -22 -16.5 -37.5t-41.5 -15.5t-41.5 15.5t-16.5 37.5q0 21 16.5 37t41.5 16zM212 911q25 0 41.5 -16t16.5 -37q0 -22 -16.5 -37.5t-41.5 -15.5t-41.5 15.5t-16.5 37.5q0 21 16.5 37t41.5 16z" />
    <glyph glyph-name="Aring" unicode="&#xc5;" 
d="M63 0zM374 722q36 0 61 -23t30 -58l86 -612q1 -1 1 -5q0 -24 -27 -24q-21 0 -24 22l-28 188q-1 10 -12 10h-307q-11 0 -12 -10l-28 -188q-3 -22 -24 -22q-27 0 -27 24q0 4 1 5l86 612q5 35 29 58t62 23h133zM241 671q-36 0 -41 -37l-47 -353q0 -10 11 -10h287q12 0 12 10
l-48 353q-5 37 -41 37h-133zM308 923q38 0 63.5 -26.5t25.5 -65.5q0 -38 -25.5 -65t-63.5 -27q-19 0 -35.5 7.5t-28.5 20t-19 29t-7 35.5q0 39 26 65.5t64 26.5zM308 883q-21 0 -36.5 -14.5t-15.5 -35.5t15.5 -36.5t36.5 -15.5q22 0 37 15.5t15 36.5t-15 35.5t-37 14.5z" />
    <glyph glyph-name="AE" unicode="&#xc6;" 
d="M541 722q25 0 25 -25q0 -26 -25 -26h-167q-12 0 -12 -12v-243q0 -12 12 -12h112q25 0 25 -25q0 -26 -25 -26h-112q-12 0 -12 -12v-278q0 -12 12 -12h186q26 0 26 -25q0 -26 -26 -26h-223q-26 0 -26 26v194h-191q-9 0 -12 -10l-28 -188q-3 -22 -24 -22q-27 0 -27 24
q0 4 1 5l86 612q5 35 29 58t62 23h334zM119 283v-2q0 -10 11 -10h181v400h-104q-36 0 -40 -37z" />
    <glyph glyph-name="Ccedilla" unicode="&#xc7;" 
d="M82 0zM506 223q26 0 26 -24v-136q0 -27 -18 -45t-47 -18h-323q-25 0 -43.5 18t-18.5 45v596q0 63 62 63h323q65 0 65 -63v-79q0 -21 -26 -21q-27 0 -27 21v79q0 12 -12 12h-323q-11 0 -11 -12v-596q0 -12 11 -12h323q12 0 12 12v136q0 24 27 24zM308 -23q20 0 34 -12.5
t14 -35.5q0 -25 -5.5 -50.5t-15 -46.5t-23 -34t-29.5 -13q-13 0 -13 13q0 8 3.5 15t8 14t8.5 15.5t4 19.5q0 9 -5.5 18t-12 18.5t-12 19.5t-5.5 21q0 16 13.5 27t35.5 11z" />
    <glyph glyph-name="Egrave" unicode="&#xc8;" 
d="M72 0zM497 722q26 0 26 -25q0 -26 -26 -26h-362q-12 0 -12 -12v-243q0 -12 12 -12h237q25 0 25 -25q0 -26 -25 -26h-237q-12 0 -12 -12v-278q0 -12 12 -12h382q26 0 26 -25q0 -26 -26 -26h-419q-26 0 -26 26v671q0 25 26 25h399zM259 978q14 0 23 -13l95 -142q5 -5 5 -14
q0 -22 -28 -22q-13 0 -23 13l-95 142q-4 7 -4 14q0 22 27 22z" />
    <glyph glyph-name="Eacute" unicode="&#xc9;" 
d="M72 0zM497 722q26 0 26 -25q0 -26 -26 -26h-362q-12 0 -12 -12v-243q0 -12 12 -12h237q25 0 25 -25q0 -26 -25 -26h-237q-12 0 -12 -12v-278q0 -12 12 -12h382q26 0 26 -25q0 -26 -26 -26h-419q-26 0 -26 26v671q0 25 26 25h399zM332 965q9 13 23 13q27 0 27 -22
q0 -7 -5 -14l-94 -142q-10 -13 -23 -13q-28 0 -28 22q0 10 4 14z" />
    <glyph glyph-name="Ecircumflex" unicode="&#xca;" 
d="M72 0zM497 722q26 0 26 -25q0 -26 -26 -26h-362q-12 0 -12 -12v-243q0 -12 12 -12h237q25 0 25 -25q0 -26 -25 -26h-237q-12 0 -12 -12v-278q0 -12 12 -12h382q26 0 26 -25q0 -26 -26 -26h-419q-26 0 -26 26v671q0 25 26 25h399zM308 963q5 -3 17 -9t27 -21l94 -99
q6 -6 6 -13q0 -19 -19 -19q-6 0 -12 6l-108 107q-3 3 -5 3q-3 0 -6 -3l-107 -107q-8 -6 -13 -6q-19 0 -19 19q0 7 6 13l95 99q28 30 44 30z" />
    <glyph glyph-name="Edieresis" unicode="&#xcb;" 
d="M72 0zM497 722q26 0 26 -25q0 -26 -26 -26h-362q-12 0 -12 -12v-243q0 -12 12 -12h237q25 0 25 -25q0 -26 -25 -26h-237q-12 0 -12 -12v-278q0 -12 12 -12h382q26 0 26 -25q0 -26 -26 -26h-419q-26 0 -26 26v671q0 25 26 25h399zM402 911q25 0 41.5 -16t16.5 -37
q0 -22 -16.5 -37.5t-41.5 -15.5t-41.5 15.5t-16.5 37.5q0 21 16.5 37t41.5 16zM212 911q25 0 41.5 -16t16.5 -37q0 -22 -16.5 -37.5t-41.5 -15.5t-41.5 15.5t-16.5 37.5q0 21 16.5 37t41.5 16z" />
    <glyph glyph-name="Igrave" unicode="&#xcc;" 
d="M121 0zM468 722q26 0 26 -25q0 -26 -26 -26h-125q-12 0 -12 -12v-596q0 -12 12 -12h125q26 0 26 -25q0 -26 -26 -26h-321q-26 0 -26 26q0 25 26 25h121q12 0 12 12v596q0 12 -12 12h-121q-26 0 -26 26q0 25 26 25h321zM259 978q14 0 23 -13l95 -142q5 -5 5 -14
q0 -22 -28 -22q-13 0 -23 13l-95 142q-4 7 -4 14q0 22 27 22z" />
    <glyph glyph-name="Iacute" unicode="&#xcd;" 
d="M121 0zM468 722q26 0 26 -25q0 -26 -26 -26h-125q-12 0 -12 -12v-596q0 -12 12 -12h125q26 0 26 -25q0 -26 -26 -26h-321q-26 0 -26 26q0 25 26 25h121q12 0 12 12v596q0 12 -12 12h-121q-26 0 -26 26q0 25 26 25h321zM332 965q9 13 23 13q27 0 27 -22q0 -7 -5 -14
l-94 -142q-10 -13 -23 -13q-28 0 -28 22q0 10 4 14z" />
    <glyph glyph-name="Icircumflex" unicode="&#xce;" 
d="M121 0zM468 722q26 0 26 -25q0 -26 -26 -26h-125q-12 0 -12 -12v-596q0 -12 12 -12h125q26 0 26 -25q0 -26 -26 -26h-321q-26 0 -26 26q0 25 26 25h121q12 0 12 12v596q0 12 -12 12h-121q-26 0 -26 26q0 25 26 25h321zM308 963q5 -3 17 -9t27 -21l94 -99q6 -6 6 -13
q0 -19 -19 -19q-6 0 -12 6l-108 107q-3 3 -5 3q-3 0 -6 -3l-107 -107q-8 -6 -13 -6q-19 0 -19 19q0 7 6 13l95 99q28 30 44 30z" />
    <glyph glyph-name="Idieresis" unicode="&#xcf;" 
d="M121 0zM468 722q26 0 26 -25q0 -26 -26 -26h-125q-12 0 -12 -12v-596q0 -12 12 -12h125q26 0 26 -25q0 -26 -26 -26h-321q-26 0 -26 26q0 25 26 25h121q12 0 12 12v596q0 12 -12 12h-121q-26 0 -26 26q0 25 26 25h321zM402 911q25 0 41.5 -16t16.5 -37q0 -22 -16.5 -37.5
t-41.5 -15.5t-41.5 15.5t-16.5 37.5q0 21 16.5 37t41.5 16zM212 911q25 0 41.5 -16t16.5 -37q0 -22 -16.5 -37.5t-41.5 -15.5t-41.5 15.5t-16.5 37.5q0 21 16.5 37t41.5 16z" />
    <glyph glyph-name="Eth" unicode="&#xd0;" 
d="M52 386v311q0 25 26 25h141q76 0 139.5 -28t109 -77t70.5 -115t25 -142q0 -77 -25 -143t-70.5 -114t-109 -75.5t-139.5 -27.5h-141q-26 0 -26 26v308h-24q-26 0 -26 26t26 26h24zM511 360q0 68 -21.5 125t-60 98.5t-92.5 64.5t-118 23h-104q-11 0 -11 -12v-273h172
q26 0 26 -26t-26 -26h-172v-271q0 -12 11 -12h104q66 0 120 23t92 64t59 97.5t21 124.5z" />
    <glyph glyph-name="Ntilde" unicode="&#xd1;" 
d="M62 0zM104 722q32 0 49 -30l327 -591q5 -8 12 -8q10 0 10 14v590q0 25 26 25q25 0 25 -25v-649q0 -48 -39 -48q-35 0 -55 35l-324 582q-5 9 -12 9q-10 0 -10 -13v-587q0 -26 -26 -26q-25 0 -25 26v653q0 43 42 43zM231 922q19 0 41 -9.5t43 -21t38.5 -21t28.5 -9.5
q10 0 22 8.5t23 19t20 19t14 8.5q26 0 26 -24q0 -13 -10 -27.5t-26 -27t-34.5 -20.5t-34.5 -8q-18 0 -39.5 9.5t-42.5 21.5t-39 21.5t-30 9.5q-15 0 -26.5 -9.5t-21 -21.5t-16.5 -21.5t-13 -9.5q-27 0 -27 27q0 13 9 28t23.5 28t33 21.5t38.5 8.5z" />
    <glyph glyph-name="Ograve" unicode="&#xd2;" 
d="M82 0zM467 722q65 0 65 -63v-596q0 -27 -18 -45t-47 -18h-323q-25 0 -43.5 18t-18.5 45v596q0 63 62 63h323zM144 671q-11 0 -11 -12v-596q0 -12 11 -12h323q12 0 12 12v596q0 12 -12 12h-323zM259 978q14 0 23 -13l95 -142q5 -5 5 -14q0 -22 -28 -22q-13 0 -23 13
l-95 142q-4 7 -4 14q0 22 27 22z" />
    <glyph glyph-name="Oacute" unicode="&#xd3;" 
d="M82 0zM467 722q65 0 65 -63v-596q0 -27 -18 -45t-47 -18h-323q-25 0 -43.5 18t-18.5 45v596q0 63 62 63h323zM144 671q-11 0 -11 -12v-596q0 -12 11 -12h323q12 0 12 12v596q0 12 -12 12h-323zM332 965q9 13 23 13q27 0 27 -22q0 -7 -5 -14l-94 -142q-10 -13 -23 -13
q-28 0 -28 22q0 10 4 14z" />
    <glyph glyph-name="Ocircumflex" unicode="&#xd4;" 
d="M82 0zM467 722q65 0 65 -63v-596q0 -27 -18 -45t-47 -18h-323q-25 0 -43.5 18t-18.5 45v596q0 63 62 63h323zM144 671q-11 0 -11 -12v-596q0 -12 11 -12h323q12 0 12 12v596q0 12 -12 12h-323zM308 963q5 -3 17 -9t27 -21l94 -99q6 -6 6 -13q0 -19 -19 -19q-6 0 -12 6
l-108 107q-3 3 -5 3q-3 0 -6 -3l-107 -107q-8 -6 -13 -6q-19 0 -19 19q0 7 6 13l95 99q28 30 44 30z" />
    <glyph glyph-name="Otilde" unicode="&#xd5;" 
d="M82 0zM467 722q65 0 65 -63v-596q0 -27 -18 -45t-47 -18h-323q-25 0 -43.5 18t-18.5 45v596q0 63 62 63h323zM144 671q-11 0 -11 -12v-596q0 -12 11 -12h323q12 0 12 12v596q0 12 -12 12h-323zM231 922q19 0 41 -9.5t43 -21t38.5 -21t28.5 -9.5q10 0 22 8.5t23 19t20 19
t14 8.5q26 0 26 -24q0 -13 -10 -27.5t-26 -27t-34.5 -20.5t-34.5 -8q-18 0 -39.5 9.5t-42.5 21.5t-39 21.5t-30 9.5q-15 0 -26.5 -9.5t-21 -21.5t-16.5 -21.5t-13 -9.5q-27 0 -27 27q0 13 9 28t23.5 28t33 21.5t38.5 8.5z" />
    <glyph glyph-name="Odieresis" unicode="&#xd6;" 
d="M82 0zM467 722q65 0 65 -63v-596q0 -27 -18 -45t-47 -18h-323q-25 0 -43.5 18t-18.5 45v596q0 63 62 63h323zM144 671q-11 0 -11 -12v-596q0 -12 11 -12h323q12 0 12 12v596q0 12 -12 12h-323zM402 911q25 0 41.5 -16t16.5 -37q0 -22 -16.5 -37.5t-41.5 -15.5t-41.5 15.5
t-16.5 37.5q0 21 16.5 37t41.5 16zM212 911q25 0 41.5 -16t16.5 -37q0 -22 -16.5 -37.5t-41.5 -15.5t-41.5 15.5t-16.5 37.5q0 21 16.5 37t41.5 16z" />
    <glyph glyph-name="multiply" unicode="&#xd7;" 
d="M120 453q17 0 24 -10l154 -163q1 -4 8 -4q5 0 9 4l153 163q9 10 25 10q30 0 30 -27q-1 -6 -3.5 -13t-10.5 -15l-154 -164q-3 -3 -3 -8t3 -8l155 -166q14 -14 14 -26q0 -26 -32 -26q-15 0 -24 10l-153 164q-5 3 -9 3q-7 0 -8 -3l-134 -151q-21 -24 -39 -24q-25 0 -25 31
q0 14 7 22l150 166q3 3 3 8t-3 8l-153 163q-14 16 -14 31q0 25 30 25z" />
    <glyph glyph-name="Oslash" unicode="&#xd8;" 
d="M486 722l29 39q19 25 30 25q27 0 27 -24q0 -9 -4.5 -21.5t-15.5 -26.5l-22 -30v-621q0 -27 -18.5 -45t-46.5 -18h-343l-23 -38q-12 -26 -29 -26q-27 0 -27 28q0 8 3.5 15t9.5 16l23 34v630q0 63 63 63h344zM142 671q-12 0 -12 -12v-502q0 -13 11 -13q5 0 12 7l299 503
q2 8 2 7q0 10 -12 10h-300zM466 566q-7 0 -12 -8l-291 -489q-1 -2 -1 -5q0 -1 -1 -2q0 -11 11 -11h293q11 0 11 12v489q0 14 -10 14z" />
    <glyph glyph-name="Ugrave" unicode="&#xd9;" 
d="M72 0zM98 722q25 0 25 -25v-618q0 -28 26 -28h323q20 0 20 28v618q0 25 25 25q26 0 26 -25v-618q0 -32 -20 -55.5t-51 -23.5h-323q-31 0 -54 22t-23 57v618q0 25 26 25zM259 978q14 0 23 -13l95 -142q5 -5 5 -14q0 -22 -28 -22q-13 0 -23 13l-95 142q-4 7 -4 14
q0 22 27 22z" />
    <glyph glyph-name="Uacute" unicode="&#xda;" 
d="M72 0zM98 722q25 0 25 -25v-618q0 -28 26 -28h323q20 0 20 28v618q0 25 25 25q26 0 26 -25v-618q0 -32 -20 -55.5t-51 -23.5h-323q-31 0 -54 22t-23 57v618q0 25 26 25zM332 965q9 13 23 13q27 0 27 -22q0 -7 -5 -14l-94 -142q-10 -13 -23 -13q-28 0 -28 22q0 10 4 14z
" />
    <glyph glyph-name="Ucircumflex" unicode="&#xdb;" 
d="M72 0zM98 722q25 0 25 -25v-618q0 -28 26 -28h323q20 0 20 28v618q0 25 25 25q26 0 26 -25v-618q0 -32 -20 -55.5t-51 -23.5h-323q-31 0 -54 22t-23 57v618q0 25 26 25zM308 963q5 -3 17 -9t27 -21l94 -99q6 -6 6 -13q0 -19 -19 -19q-6 0 -12 6l-108 107q-3 3 -5 3
q-3 0 -6 -3l-107 -107q-8 -6 -13 -6q-19 0 -19 19q0 7 6 13l95 99q28 30 44 30z" />
    <glyph glyph-name="Udieresis" unicode="&#xdc;" 
d="M72 0zM98 722q25 0 25 -25v-618q0 -28 26 -28h323q20 0 20 28v618q0 25 25 25q26 0 26 -25v-618q0 -32 -20 -55.5t-51 -23.5h-323q-31 0 -54 22t-23 57v618q0 25 26 25zM402 911q25 0 41.5 -16t16.5 -37q0 -22 -16.5 -37.5t-41.5 -15.5t-41.5 15.5t-16.5 37.5
q0 21 16.5 37t41.5 16zM212 911q25 0 41.5 -16t16.5 -37q0 -22 -16.5 -37.5t-41.5 -15.5t-41.5 15.5t-16.5 37.5q0 21 16.5 37t41.5 16z" />
    <glyph glyph-name="Yacute" unicode="&#xdd;" 
d="M70 0zM97 722q14 0 22 -15l177 -378q4 -10 10 -10q8 0 11 10l179 378q7 15 22 15q27 0 27 -24q0 -2 -2 -12l-209 -445v-215q0 -26 -25 -26q-26 0 -26 26v215l-211 445q-2 10 -2 12q0 24 27 24zM332 965q9 13 23 13q27 0 27 -22q0 -7 -5 -14l-94 -142q-10 -13 -23 -13
q-28 0 -28 22q0 10 4 14z" />
    <glyph glyph-name="Thorn" unicode="&#xde;" 
d="M129 560h382q26 0 26 -25v-344q0 -26 -26 -26h-370q-12 0 -12 -11v-128q0 -26 -25 -26q-26 0 -26 26v670q0 25 26 25q25 0 25 -25v-136zM486 497q0 12 -12 12h-333q-12 0 -12 -9v-272q0 -11 12 -11h333q12 0 12 11v269z" />
    <glyph glyph-name="germandbls" unicode="&#xdf;" 
d="M404 721q21 0 38 -8t29 -21.5t19 -30.5t7 -35v-158q0 -50 -65 -73q65 -20 65 -78v-224q0 -17 -7 -34t-19.5 -30t-29.5 -21t-37 -8h-117q-26 0 -26 26q0 25 26 25h102q57 0 57 57v194q0 42 -36 54q-36 10 -36 38q0 30 36 41q36 10 36 48v127q0 28 -16 44t-42 16h-167
q-22 0 -37.5 -17t-15.5 -41v-586q0 -26 -26 -26t-26 26v600q0 17 8.5 34t21 30.5t28.5 22t31 8.5h199z" />
    <glyph glyph-name="agrave" unicode="&#xe0;" 
d="M86 0zM464 508q13 0 25 -6.5t21 -16.5t14 -22.5t5 -25.5v-437h-417q-26 0 -26 26v174q0 63 65 75l317 56q10 1 10 12v94q0 20 -18 20h-311q-12 0 -12 -12v-47q0 -25 -25 -25q-26 0 -26 25v84q0 26 26 26h352zM157 224q-10 -2 -15 -9t-5 -15v-137q0 -12 12 -12h317
q12 0 12 12v204q0 11 -14 11zM259 764q14 0 23 -13l95 -142q5 -5 5 -14q0 -22 -28 -22q-13 0 -23 13l-95 142q-4 7 -4 14q0 22 27 22z" />
    <glyph glyph-name="aacute" unicode="&#xe1;" 
d="M86 0zM464 508q13 0 25 -6.5t21 -16.5t14 -22.5t5 -25.5v-437h-417q-26 0 -26 26v174q0 63 65 75l317 56q10 1 10 12v94q0 20 -18 20h-311q-12 0 -12 -12v-47q0 -25 -25 -25q-26 0 -26 25v84q0 26 26 26h352zM157 224q-10 -2 -15 -9t-5 -15v-137q0 -12 12 -12h317
q12 0 12 12v204q0 11 -14 11zM332 751q9 13 23 13q27 0 27 -22q0 -7 -5 -14l-94 -142q-10 -13 -23 -13q-28 0 -28 22q0 10 4 14z" />
    <glyph glyph-name="acircumflex" unicode="&#xe2;" 
d="M86 0zM464 508q13 0 25 -6.5t21 -16.5t14 -22.5t5 -25.5v-437h-417q-26 0 -26 26v174q0 63 65 75l317 56q10 1 10 12v94q0 20 -18 20h-311q-12 0 -12 -12v-47q0 -25 -25 -25q-26 0 -26 25v84q0 26 26 26h352zM157 224q-10 -2 -15 -9t-5 -15v-137q0 -12 12 -12h317
q12 0 12 12v204q0 11 -14 11zM308 749q5 -3 17 -9t27 -21l94 -99q6 -6 6 -13q0 -19 -19 -19q-6 0 -12 6l-108 107q-3 3 -5 3q-3 0 -6 -3l-107 -107q-8 -6 -13 -6q-19 0 -19 19q0 7 6 13l95 99q28 30 44 30z" />
    <glyph glyph-name="atilde" unicode="&#xe3;" 
d="M86 0zM464 508q13 0 25 -6.5t21 -16.5t14 -22.5t5 -25.5v-437h-417q-26 0 -26 26v174q0 63 65 75l317 56q10 1 10 12v94q0 20 -18 20h-311q-12 0 -12 -12v-47q0 -25 -25 -25q-26 0 -26 25v84q0 26 26 26h352zM157 224q-10 -2 -15 -9t-5 -15v-137q0 -12 12 -12h317
q12 0 12 12v204q0 11 -14 11zM231 708q19 0 41 -9.5t43 -21t38.5 -21t28.5 -9.5q10 0 22 8.5t23 19t20 19t14 8.5q26 0 26 -24q0 -13 -10 -27.5t-26 -27t-34.5 -20.5t-34.5 -8q-18 0 -39.5 9.5t-42.5 21.5t-39 21.5t-30 9.5q-15 0 -26.5 -9.5t-21 -21.5t-16.5 -21.5
t-13 -9.5q-27 0 -27 27q0 13 9 28t23.5 28t33 21.5t38.5 8.5z" />
    <glyph glyph-name="adieresis" unicode="&#xe4;" 
d="M86 0zM464 508q13 0 25 -6.5t21 -16.5t14 -22.5t5 -25.5v-437h-417q-26 0 -26 26v174q0 63 65 75l317 56q10 1 10 12v94q0 20 -18 20h-311q-12 0 -12 -12v-47q0 -25 -25 -25q-26 0 -26 25v84q0 26 26 26h352zM157 224q-10 -2 -15 -9t-5 -15v-137q0 -12 12 -12h317
q12 0 12 12v204q0 11 -14 11zM402 697q25 0 41.5 -16t16.5 -37q0 -22 -16.5 -37.5t-41.5 -15.5t-41.5 15.5t-16.5 37.5q0 21 16.5 37t41.5 16zM212 697q25 0 41.5 -16t16.5 -37q0 -22 -16.5 -37.5t-41.5 -15.5t-41.5 15.5t-16.5 37.5q0 21 16.5 37t41.5 16z" />
    <glyph glyph-name="aring" unicode="&#xe5;" 
d="M86 0zM464 508q13 0 25 -6.5t21 -16.5t14 -22.5t5 -25.5v-437h-417q-26 0 -26 26v174q0 63 65 75l317 56q10 1 10 12v94q0 20 -18 20h-311q-12 0 -12 -12v-47q0 -25 -25 -25q-26 0 -26 25v84q0 26 26 26h352zM157 224q-10 -2 -15 -9t-5 -15v-137q0 -12 12 -12h317
q12 0 12 12v204q0 11 -14 11zM308 709q38 0 63.5 -26.5t25.5 -65.5q0 -38 -25.5 -65t-63.5 -27q-19 0 -35.5 7.5t-28.5 20t-19 29t-7 35.5q0 39 26 65.5t64 26.5zM308 669q-21 0 -36.5 -14.5t-15.5 -35.5t15.5 -36.5t36.5 -15.5q22 0 37 15.5t15 36.5t-15 35.5t-37 14.5z
" />
    <glyph glyph-name="ae" unicode="&#xe6;" 
d="M523 508q26 0 26 -26v-218q0 -25 -26 -25h-180q-11 0 -12 -9v-167q0 -12 12 -12h143q11 0 11 12v66q0 26 26 26t26 -26v-103q0 -26 -26 -26h-432q-26 0 -26 26v169q0 65 65 74l140 18q10 1 10 11v142q-3 17 -18 17h-134q-12 0 -12 -12v-47q0 -25 -25 -25q-26 0 -26 25v84
q0 26 26 26h432zM268 51q12 0 12 12v160q0 11 -14 11l-130 -16q-20 -3 -20 -23v-132q0 -12 12 -12h140zM343 457q-12 0 -12 -12v-147q2 -8 12 -8h143q11 0 11 12v143q0 12 -11 12h-143z" />
    <glyph glyph-name="ccedilla" unicode="&#xe7;" 
d="M84 0zM506 508q25 0 25 -26v-94q0 -26 -25 -26q-26 0 -26 26v57q0 12 -12 12h-321q-12 0 -12 -12v-382q0 -12 12 -12h321q12 0 12 12v66q0 26 26 26q25 0 25 -26v-103q0 -26 -25 -26h-396q-26 0 -26 26v456q0 26 26 26h396zM308 -23q20 0 34 -12.5t14 -35.5
q0 -25 -5.5 -50.5t-15 -46.5t-23 -34t-29.5 -13q-13 0 -13 13q0 8 3.5 15t8 14t8.5 15.5t4 19.5q0 9 -5.5 18t-12 18.5t-12 19.5t-5.5 21q0 16 13.5 27t35.5 11z" />
    <glyph glyph-name="egrave" unicode="&#xe8;" 
d="M84 0zM506 508q25 0 25 -26v-218q0 -25 -25 -25h-359q-12 0 -12 -12v-164q0 -12 12 -12h321q12 0 12 12v66q0 26 26 26q25 0 25 -26v-103q0 -26 -25 -26h-396q-26 0 -26 26v456q0 26 26 26h396zM480 445q0 12 -12 12h-321q-12 0 -12 -12v-143q0 -12 12 -12h321
q12 0 12 12v143zM259 764q14 0 23 -13l95 -142q5 -5 5 -14q0 -22 -28 -22q-13 0 -23 13l-95 142q-4 7 -4 14q0 22 27 22z" />
    <glyph glyph-name="eacute" unicode="&#xe9;" 
d="M84 0zM506 508q25 0 25 -26v-218q0 -25 -25 -25h-359q-12 0 -12 -12v-164q0 -12 12 -12h321q12 0 12 12v66q0 26 26 26q25 0 25 -26v-103q0 -26 -25 -26h-396q-26 0 -26 26v456q0 26 26 26h396zM480 445q0 12 -12 12h-321q-12 0 -12 -12v-143q0 -12 12 -12h321
q12 0 12 12v143zM332 751q9 13 23 13q27 0 27 -22q0 -7 -5 -14l-94 -142q-10 -13 -23 -13q-28 0 -28 22q0 10 4 14z" />
    <glyph glyph-name="ecircumflex" unicode="&#xea;" 
d="M84 0zM506 508q25 0 25 -26v-218q0 -25 -25 -25h-359q-12 0 -12 -12v-164q0 -12 12 -12h321q12 0 12 12v66q0 26 26 26q25 0 25 -26v-103q0 -26 -25 -26h-396q-26 0 -26 26v456q0 26 26 26h396zM480 445q0 12 -12 12h-321q-12 0 -12 -12v-143q0 -12 12 -12h321
q12 0 12 12v143zM308 749q5 -3 17 -9t27 -21l94 -99q6 -6 6 -13q0 -19 -19 -19q-6 0 -12 6l-108 107q-3 3 -5 3q-3 0 -6 -3l-107 -107q-8 -6 -13 -6q-19 0 -19 19q0 7 6 13l95 99q28 30 44 30z" />
    <glyph glyph-name="edieresis" unicode="&#xeb;" 
d="M84 0zM506 508q25 0 25 -26v-218q0 -25 -25 -25h-359q-12 0 -12 -12v-164q0 -12 12 -12h321q12 0 12 12v66q0 26 26 26q25 0 25 -26v-103q0 -26 -25 -26h-396q-26 0 -26 26v456q0 26 26 26h396zM480 445q0 12 -12 12h-321q-12 0 -12 -12v-143q0 -12 12 -12h321
q12 0 12 12v143zM402 697q25 0 41.5 -16t16.5 -37q0 -22 -16.5 -37.5t-41.5 -15.5t-41.5 15.5t-16.5 37.5q0 21 16.5 37t41.5 16zM212 697q25 0 41.5 -16t16.5 -37q0 -22 -16.5 -37.5t-41.5 -15.5t-41.5 15.5t-16.5 37.5q0 21 16.5 37t41.5 16z" />
    <glyph glyph-name="igrave" unicode="&#xec;" 
d="M110 0zM506 26q0 -26 -26 -26h-345q-25 0 -25 26q0 25 25 25h136q12 0 12 12v382q0 12 -12 12h-124q-26 0 -26 25q0 26 26 26h162q25 0 25 -26v-419q0 -12 12 -12h134q26 0 26 -25zM259 764q14 0 23 -13l95 -142q5 -5 5 -14q0 -22 -28 -22q-13 0 -23 13l-95 142
q-4 7 -4 14q0 22 27 22z" />
    <glyph glyph-name="iacute" unicode="&#xed;" 
d="M110 0zM506 26q0 -26 -26 -26h-345q-25 0 -25 26q0 25 25 25h136q12 0 12 12v382q0 12 -12 12h-124q-26 0 -26 25q0 26 26 26h162q25 0 25 -26v-419q0 -12 12 -12h134q26 0 26 -25zM332 751q9 13 23 13q27 0 27 -22q0 -7 -5 -14l-94 -142q-10 -13 -23 -13q-28 0 -28 22
q0 10 4 14z" />
    <glyph glyph-name="icircumflex" unicode="&#xee;" 
d="M110 0zM506 26q0 -26 -26 -26h-345q-25 0 -25 26q0 25 25 25h136q12 0 12 12v382q0 12 -12 12h-124q-26 0 -26 25q0 26 26 26h162q25 0 25 -26v-419q0 -12 12 -12h134q26 0 26 -25zM308 749q5 -3 17 -9t27 -21l94 -99q6 -6 6 -13q0 -19 -19 -19q-6 0 -12 6l-108 107
q-3 3 -5 3q-3 0 -6 -3l-107 -107q-8 -6 -13 -6q-19 0 -19 19q0 7 6 13l95 99q28 30 44 30z" />
    <glyph glyph-name="idieresis" unicode="&#xef;" 
d="M110 0zM506 26q0 -26 -26 -26h-345q-25 0 -25 26q0 25 25 25h136q12 0 12 12v382q0 12 -12 12h-124q-26 0 -26 25q0 26 26 26h162q25 0 25 -26v-419q0 -12 12 -12h134q26 0 26 -25zM402 697q25 0 41.5 -16t16.5 -37q0 -22 -16.5 -37.5t-41.5 -15.5t-41.5 15.5t-16.5 37.5
q0 21 16.5 37t41.5 16zM212 697q25 0 41.5 -16t16.5 -37q0 -22 -16.5 -37.5t-41.5 -15.5t-41.5 15.5t-16.5 37.5q0 21 16.5 37t41.5 16z" />
    <glyph glyph-name="eth" unicode="&#xf0;" 
d="M136 457q-11 0 -11 -12v-381q0 -12 11 -12h343q11 0 11 12v381q0 12 -11 12h-343zM198 722q67 0 129.5 -8.5t110 -30.5t76 -59.5t28.5 -95.5v-501q0 -26 -26 -26h-417q-26 0 -26 26v455q0 26 26 26h380q11 0 11 12q0 45 -24.5 74.5t-65 47t-93 24t-107.5 6.5h-18
q-26 0 -26 26q0 24 25 24h17z" />
    <glyph glyph-name="ntilde" unicode="&#xf1;" 
d="M84 0zM84 508h358q18 0 34 -7t28 -20t19.5 -30.5t7.5 -38.5v-386q0 -26 -25 -26q-26 0 -26 26v386q0 19 -12 32t-26 13h-295q-12 0 -12 -12v-419q0 -26 -25 -26q-26 0 -26 26v482zM231 708q19 0 41 -9.5t43 -21t38.5 -21t28.5 -9.5q10 0 22 8.5t23 19t20 19t14 8.5
q26 0 26 -24q0 -13 -10 -27.5t-26 -27t-34.5 -20.5t-34.5 -8q-18 0 -39.5 9.5t-42.5 21.5t-39 21.5t-30 9.5q-15 0 -26.5 -9.5t-21 -21.5t-16.5 -21.5t-13 -9.5q-27 0 -27 27q0 13 9 28t23.5 28t33 21.5t38.5 8.5z" />
    <glyph glyph-name="ograve" unicode="&#xf2;" 
d="M84 0zM468 508q63 0 63 -63v-382q0 -26 -17 -44.5t-46 -18.5h-321q-28 0 -45.5 18t-17.5 45v382q0 12 5.5 23t14 20t20 14.5t23.5 5.5h321zM147 457q-12 0 -12 -12v-382q0 -12 12 -12h321q12 0 12 12v382q0 12 -12 12h-321zM259 764q14 0 23 -13l95 -142q5 -5 5 -14
q0 -22 -28 -22q-13 0 -23 13l-95 142q-4 7 -4 14q0 22 27 22z" />
    <glyph glyph-name="oacute" unicode="&#xf3;" 
d="M84 0zM468 508q63 0 63 -63v-382q0 -26 -17 -44.5t-46 -18.5h-321q-28 0 -45.5 18t-17.5 45v382q0 12 5.5 23t14 20t20 14.5t23.5 5.5h321zM147 457q-12 0 -12 -12v-382q0 -12 12 -12h321q12 0 12 12v382q0 12 -12 12h-321zM332 751q9 13 23 13q27 0 27 -22q0 -7 -5 -14
l-94 -142q-10 -13 -23 -13q-28 0 -28 22q0 10 4 14z" />
    <glyph glyph-name="ocircumflex" unicode="&#xf4;" 
d="M84 0zM468 508q63 0 63 -63v-382q0 -26 -17 -44.5t-46 -18.5h-321q-28 0 -45.5 18t-17.5 45v382q0 12 5.5 23t14 20t20 14.5t23.5 5.5h321zM147 457q-12 0 -12 -12v-382q0 -12 12 -12h321q12 0 12 12v382q0 12 -12 12h-321zM308 749q5 -3 17 -9t27 -21l94 -99q6 -6 6 -13
q0 -19 -19 -19q-6 0 -12 6l-108 107q-3 3 -5 3q-3 0 -6 -3l-107 -107q-8 -6 -13 -6q-19 0 -19 19q0 7 6 13l95 99q28 30 44 30z" />
    <glyph glyph-name="otilde" unicode="&#xf5;" 
d="M84 0zM468 508q63 0 63 -63v-382q0 -26 -17 -44.5t-46 -18.5h-321q-28 0 -45.5 18t-17.5 45v382q0 12 5.5 23t14 20t20 14.5t23.5 5.5h321zM147 457q-12 0 -12 -12v-382q0 -12 12 -12h321q12 0 12 12v382q0 12 -12 12h-321zM231 708q19 0 41 -9.5t43 -21t38.5 -21
t28.5 -9.5q10 0 22 8.5t23 19t20 19t14 8.5q26 0 26 -24q0 -13 -10 -27.5t-26 -27t-34.5 -20.5t-34.5 -8q-18 0 -39.5 9.5t-42.5 21.5t-39 21.5t-30 9.5q-15 0 -26.5 -9.5t-21 -21.5t-16.5 -21.5t-13 -9.5q-27 0 -27 27q0 13 9 28t23.5 28t33 21.5t38.5 8.5z" />
    <glyph glyph-name="odieresis" unicode="&#xf6;" 
d="M84 0zM468 508q63 0 63 -63v-382q0 -26 -17 -44.5t-46 -18.5h-321q-28 0 -45.5 18t-17.5 45v382q0 12 5.5 23t14 20t20 14.5t23.5 5.5h321zM147 457q-12 0 -12 -12v-382q0 -12 12 -12h321q12 0 12 12v382q0 12 -12 12h-321zM402 697q25 0 41.5 -16t16.5 -37
q0 -22 -16.5 -37.5t-41.5 -15.5t-41.5 15.5t-16.5 37.5q0 21 16.5 37t41.5 16zM212 697q25 0 41.5 -16t16.5 -37q0 -22 -16.5 -37.5t-41.5 -15.5t-41.5 15.5t-16.5 37.5q0 21 16.5 37t41.5 16z" />
    <glyph glyph-name="divide" unicode="&#xf7;" 
d="M310 482q28 0 47.5 -20t19.5 -48q0 -29 -19.5 -49t-47.5 -20q-27 0 -47 20t-20 49q0 28 20 48t47 20zM525 259q35 0 35 -36q0 -30 -35 -30h-440q-31 0 -31 33t31 33h440zM310 103q28 0 47.5 -19.5t19.5 -45.5q0 -27 -19.5 -45.5t-47.5 -18.5t-47.5 18.5t-19.5 45.5
q0 26 19.5 45.5t47.5 19.5z" />
    <glyph glyph-name="oslash" unicode="&#xf8;" 
d="M515 537q27 0 27 -21q0 -20 -18 -35q10 -21 10 -36v-382q0 -26 -17.5 -44.5t-45.5 -18.5h-338l-8 -10q-11 -14 -29 -14q-24 0 -24 21q0 11 12 23l9 10q-8 11 -8 33v382q0 12 5.5 23t14 20t20 14.5t23.5 5.5h328l13 16q10 13 26 13zM472 417q-5 0 -11 -6l-272 -341
q-4 -4 -4 -9q0 -10 13 -10h273q11 0 11 12v340q0 14 -10 14zM148 457q-12 0 -12 -12v-327q0 -13 11 -13q5 0 10 6l262 327q4 3 4 8q0 11 -13 11h-262z" />
    <glyph glyph-name="ugrave" unicode="&#xf9;" 
d="M84 0zM110 508q25 0 25 -26v-385q0 -20 12.5 -33t26.5 -13h294q12 0 12 12v419q0 26 26 26q25 0 25 -26v-482h-357q-18 0 -34 7.5t-28.5 20.5t-20 30.5t-7.5 38.5v385q0 26 26 26zM259 764q14 0 23 -13l95 -142q5 -5 5 -14q0 -22 -28 -22q-13 0 -23 13l-95 142
q-4 7 -4 14q0 22 27 22z" />
    <glyph glyph-name="uacute" unicode="&#xfa;" 
d="M84 0zM110 508q25 0 25 -26v-385q0 -20 12.5 -33t26.5 -13h294q12 0 12 12v419q0 26 26 26q25 0 25 -26v-482h-357q-18 0 -34 7.5t-28.5 20.5t-20 30.5t-7.5 38.5v385q0 26 26 26zM332 751q9 13 23 13q27 0 27 -22q0 -7 -5 -14l-94 -142q-10 -13 -23 -13q-28 0 -28 22
q0 10 4 14z" />
    <glyph glyph-name="ucircumflex" unicode="&#xfb;" 
d="M84 0zM110 508q25 0 25 -26v-385q0 -20 12.5 -33t26.5 -13h294q12 0 12 12v419q0 26 26 26q25 0 25 -26v-482h-357q-18 0 -34 7.5t-28.5 20.5t-20 30.5t-7.5 38.5v385q0 26 26 26zM308 749q5 -3 17 -9t27 -21l94 -99q6 -6 6 -13q0 -19 -19 -19q-6 0 -12 6l-108 107
q-3 3 -5 3q-3 0 -6 -3l-107 -107q-8 -6 -13 -6q-19 0 -19 19q0 7 6 13l95 99q28 30 44 30z" />
    <glyph glyph-name="udieresis" unicode="&#xfc;" 
d="M84 0zM110 508q25 0 25 -26v-385q0 -20 12.5 -33t26.5 -13h294q12 0 12 12v419q0 26 26 26q25 0 25 -26v-482h-357q-18 0 -34 7.5t-28.5 20.5t-20 30.5t-7.5 38.5v385q0 26 26 26zM402 697q25 0 41.5 -16t16.5 -37q0 -22 -16.5 -37.5t-41.5 -15.5t-41.5 15.5t-16.5 37.5
q0 21 16.5 37t41.5 16zM212 697q25 0 41.5 -16t16.5 -37q0 -22 -16.5 -37.5t-41.5 -15.5t-41.5 15.5t-16.5 37.5q0 21 16.5 37t41.5 16z" />
    <glyph glyph-name="yacute" unicode="&#xfd;" 
d="M65 0zM522 509q27 0 27 -24q0 -5 -3 -11l-249 -632q-23 -56 -59 -56h-78q-25 0 -25 26q0 25 25 25h51q35 0 50 40l42 115q0 9 -12 9h-18q-18 0 -24 15l-181 458q-3 6 -3 9q0 26 27 26q17 0 23 -16l173 -434q4 -12 21 -12q14 0 20 12l170 434q6 16 23 16zM332 751
q9 13 23 13q27 0 27 -22q0 -7 -5 -14l-94 -142q-10 -13 -23 -13q-28 0 -28 22q0 10 4 14z" />
    <glyph glyph-name="thorn" unicode="&#xfe;" 
d="M106 722q26 0 26 -25v-176q0 -12 11 -12h310q82 0 82 -79v-353q0 -77 -81 -77h-322v-189q0 -25 -26 -25t-26 25v886q0 25 26 25zM143 458q-11 0 -11 -12v-383q0 -12 11 -12h325q10 0 15 15v369q0 7 -7 15t-13 8h-320z" />
    <glyph glyph-name="ydieresis" unicode="&#xff;" 
d="M65 0zM522 509q27 0 27 -24q0 -5 -3 -11l-249 -632q-23 -56 -59 -56h-78q-25 0 -25 26q0 25 25 25h51q35 0 50 40l42 115q0 9 -12 9h-18q-18 0 -24 15l-181 458q-3 6 -3 9q0 26 27 26q17 0 23 -16l173 -434q4 -12 21 -12q14 0 20 12l170 434q6 16 23 16zM402 697
q25 0 41.5 -16t16.5 -37q0 -22 -16.5 -37.5t-41.5 -15.5t-41.5 15.5t-16.5 37.5q0 21 16.5 37t41.5 16zM212 697q25 0 41.5 -16t16.5 -37q0 -22 -16.5 -37.5t-41.5 -15.5t-41.5 15.5t-16.5 37.5q0 21 16.5 37t41.5 16z" />
    <glyph glyph-name="Amacron" unicode="&#x100;" 
d="M63 0zM374 722q36 0 61 -23t30 -58l86 -612q1 -1 1 -5q0 -24 -27 -24q-21 0 -24 22l-28 188q-1 10 -12 10h-307q-11 0 -12 -10l-28 -188q-3 -22 -24 -22q-27 0 -27 24q0 4 1 5l86 612q5 35 29 58t62 23h133zM241 671q-36 0 -41 -37l-47 -353q0 -10 11 -10h287q12 0 12 10
l-48 353q-5 37 -41 37h-133zM506 888q25 0 25 -26q0 -25 -25 -25h-396q-26 0 -26 25q0 26 26 26h396z" />
    <glyph glyph-name="amacron" unicode="&#x101;" 
d="M84 0zM464 508q13 0 25 -6.5t21 -16.5t14 -22.5t5 -25.5v-437h-417q-26 0 -26 26v174q0 63 65 75l317 56q10 1 10 12v94q0 20 -18 20h-311q-12 0 -12 -12v-47q0 -25 -25 -25q-26 0 -26 25v84q0 26 26 26h352zM157 224q-10 -2 -15 -9t-5 -15v-137q0 -12 12 -12h317
q12 0 12 12v204q0 11 -14 11zM506 675q25 0 25 -26q0 -25 -25 -25h-396q-26 0 -26 25q0 26 26 26h396z" />
    <glyph glyph-name="Abreve" unicode="&#x102;" 
d="M63 0zM374 722q36 0 61 -23t30 -58l86 -612q1 -1 1 -5q0 -24 -27 -24q-21 0 -24 22l-28 188q-1 10 -12 10h-307q-11 0 -12 -10l-28 -188q-3 -22 -24 -22q-27 0 -27 24q0 4 1 5l86 612q5 35 29 58t62 23h133zM241 671q-36 0 -41 -37l-47 -353q0 -10 11 -10h287q12 0 12 10
l-48 353q-5 37 -41 37h-133zM308 815q39 0 63.5 11t39 28.5t21.5 39t10 42.5q3 18 20 18q19 0 19 -19q0 -25 -9 -53.5t-29.5 -53t-53.5 -41t-81 -16.5t-81 16.5t-53.5 41t-29.5 53t-9 53.5q0 19 19 19q17 0 20 -18q3 -21 10 -42.5t21.5 -39t39 -28.5t63.5 -11z" />
    <glyph glyph-name="abreve" unicode="&#x103;" 
d="M86 0zM464 508q13 0 25 -6.5t21 -16.5t14 -22.5t5 -25.5v-437h-417q-26 0 -26 26v174q0 63 65 75l317 56q10 1 10 12v94q0 20 -18 20h-311q-12 0 -12 -12v-47q0 -25 -25 -25q-26 0 -26 25v84q0 26 26 26h352zM157 224q-10 -2 -15 -9t-5 -15v-137q0 -12 12 -12h317
q12 0 12 12v204q0 11 -14 11zM308 602q39 0 63.5 11t39 28.5t21.5 39t10 42.5q3 18 20 18q19 0 19 -19q0 -25 -9 -53.5t-29.5 -53t-53.5 -41t-81 -16.5t-81 16.5t-53.5 41t-29.5 53t-9 53.5q0 19 19 19q17 0 20 -18q3 -21 10 -42.5t21.5 -39t39 -28.5t63.5 -11z" />
    <glyph glyph-name="Aogonek" unicode="&#x104;" 
d="M374 722q35 0 60.5 -23t30.5 -58l86 -612v-6q0 -9 -3 -14.5t-7 -8.5l-194 -163h169q26 0 26 -26q0 -25 -26 -25h-195q-25 0 -25 25v17q0 18 18 30l189 152l-30 200q-1 10 -12 10h-307q-11 0 -12 -10l-28 -188q-3 -22 -24 -22q-11 0 -19 5.5t-8 22.5l87 613q5 35 29 58
t62 23h133zM241 671q-36 0 -41 -37l-47 -353q0 -10 11 -10h287q12 0 12 10l-48 353q-5 37 -41 37h-133z" />
    <glyph glyph-name="aogonek" unicode="&#x105;" 
d="M464 508q13 0 25 -6.5t21 -16.5t14 -22.5t5 -25.5v-437l-194 -163h169q26 0 26 -26q0 -25 -26 -25h-195q-25 0 -25 25v17q0 18 18 30l177 142h-367q-26 0 -26 26v174q0 63 65 75l317 56q10 1 10 12v94q0 20 -18 20h-311q-12 0 -12 -12v-47q0 -25 -25 -25q-26 0 -26 25v84
q0 26 26 26h352zM157 224q-10 -2 -15 -9t-5 -15v-137q0 -12 12 -12h317q12 0 12 12v204q0 11 -14 11z" />
    <glyph glyph-name="Cacute" unicode="&#x106;" 
d="M82 0zM506 223q26 0 26 -24v-136q0 -27 -18 -45t-47 -18h-323q-25 0 -43.5 18t-18.5 45v596q0 63 62 63h323q65 0 65 -63v-79q0 -21 -26 -21q-27 0 -27 21v79q0 12 -12 12h-323q-11 0 -11 -12v-596q0 -12 11 -12h323q12 0 12 12v136q0 24 27 24zM332 964q9 13 23 13
q27 0 27 -22q0 -7 -5 -14l-94 -142q-10 -13 -23 -13q-28 0 -28 22q0 10 4 14z" />
    <glyph glyph-name="cacute" unicode="&#x107;" 
d="M84 0zM506 508q25 0 25 -26v-94q0 -26 -25 -26q-26 0 -26 26v57q0 12 -12 12h-321q-12 0 -12 -12v-382q0 -12 12 -12h321q12 0 12 12v66q0 26 26 26q25 0 25 -26v-103q0 -26 -25 -26h-396q-26 0 -26 26v456q0 26 26 26h396zM332 751q9 13 23 13q27 0 27 -22q0 -7 -5 -14
l-94 -142q-10 -13 -23 -13q-28 0 -28 22q0 10 4 14z" />
    <glyph glyph-name="Ccircumflex" unicode="&#x108;" 
d="M82 0zM506 223q26 0 26 -24v-136q0 -27 -18 -45t-47 -18h-323q-25 0 -43.5 18t-18.5 45v596q0 63 62 63h323q65 0 65 -63v-79q0 -21 -26 -21q-27 0 -27 21v79q0 12 -12 12h-323q-11 0 -11 -12v-596q0 -12 11 -12h323q12 0 12 12v136q0 24 27 24zM308 962q5 -3 17 -9
t27 -21l94 -99q6 -6 6 -13q0 -19 -19 -19q-6 0 -12 6l-108 107q-3 3 -5 3q-3 0 -6 -3l-107 -107q-8 -6 -13 -6q-19 0 -19 19q0 7 6 13l95 99q28 30 44 30z" />
    <glyph glyph-name="ccircumflex" unicode="&#x109;" 
d="M84 0zM506 508q25 0 25 -26v-94q0 -26 -25 -26q-26 0 -26 26v57q0 12 -12 12h-321q-12 0 -12 -12v-382q0 -12 12 -12h321q12 0 12 12v66q0 26 26 26q25 0 25 -26v-103q0 -26 -25 -26h-396q-26 0 -26 26v456q0 26 26 26h396zM308 749q5 -3 17 -9t27 -21l94 -99q6 -6 6 -13
q0 -19 -19 -19q-6 0 -12 6l-108 107q-3 3 -5 3q-3 0 -6 -3l-107 -107q-8 -6 -13 -6q-19 0 -19 19q0 7 6 13l95 99q28 30 44 30z" />
    <glyph glyph-name="Cdotaccent" unicode="&#x10a;" 
d="M82 0zM506 223q26 0 26 -24v-136q0 -27 -18 -45t-47 -18h-323q-25 0 -43.5 18t-18.5 45v596q0 63 62 63h323q65 0 65 -63v-79q0 -21 -26 -21q-27 0 -27 21v79q0 12 -12 12h-323q-11 0 -11 -12v-596q0 -12 11 -12h323q12 0 12 12v136q0 24 27 24zM307 910q25 0 41.5 -16
t16.5 -37q0 -22 -16.5 -37.5t-41.5 -15.5t-41.5 15.5t-16.5 37.5q0 21 16.5 37t41.5 16z" />
    <glyph glyph-name="cdotaccent" unicode="&#x10b;" 
d="M84 0zM506 508q25 0 25 -26v-94q0 -26 -25 -26q-26 0 -26 26v57q0 12 -12 12h-321q-12 0 -12 -12v-382q0 -12 12 -12h321q12 0 12 12v66q0 26 26 26q25 0 25 -26v-103q0 -26 -25 -26h-396q-26 0 -26 26v456q0 26 26 26h396zM307 697q25 0 41.5 -16t16.5 -37
q0 -22 -16.5 -37.5t-41.5 -15.5t-41.5 15.5t-16.5 37.5q0 21 16.5 37t41.5 16z" />
    <glyph glyph-name="Ccaron" unicode="&#x10c;" 
d="M82 0zM506 223q26 0 26 -24v-136q0 -27 -18 -45t-47 -18h-323q-25 0 -43.5 18t-18.5 45v596q0 63 62 63h323q65 0 65 -63v-79q0 -21 -26 -21q-27 0 -27 21v79q0 12 -12 12h-323q-11 0 -11 -12v-596q0 -12 11 -12h323q12 0 12 12v136q0 24 27 24zM308 801q-9 0 -19.5 7.5
t-25.5 23.5l-94 99q-6 4 -6 12q0 19 19 19q7 0 13 -6l107 -107q2 -2 6 -2q3 0 5 2l108 107q4 6 12 6q19 0 19 -19q0 -8 -6 -12l-95 -99q-30 -31 -43 -31z" />
    <glyph glyph-name="ccaron" unicode="&#x10d;" 
d="M84 0zM506 508q25 0 25 -26v-94q0 -26 -25 -26q-26 0 -26 26v57q0 12 -12 12h-321q-12 0 -12 -12v-382q0 -12 12 -12h321q12 0 12 12v66q0 26 26 26q25 0 25 -26v-103q0 -26 -25 -26h-396q-26 0 -26 26v456q0 26 26 26h396zM308 588q-9 0 -19.5 7.5t-25.5 23.5l-94 99
q-6 4 -6 12q0 19 19 19q7 0 13 -6l107 -107q2 -2 6 -2q3 0 5 2l108 107q4 6 12 6q19 0 19 -19q0 -8 -6 -12l-95 -99q-30 -31 -43 -31z" />
    <glyph glyph-name="Dcaron" unicode="&#x10e;" 
d="M52 0zM219 722q76 0 139.5 -28t109 -77t70.5 -115t25 -142q0 -77 -25 -143t-70.5 -114t-109 -75.5t-139.5 -27.5h-141q-26 0 -26 26v671q0 25 26 25h141zM511 360q0 68 -21.5 125t-60 98.5t-92.5 64.5t-118 23h-104q-11 0 -11 -12v-596q0 -12 11 -12h104q66 0 120 23
t92 64t59 97.5t21 124.5zM308 801q-9 0 -19.5 7.5t-25.5 23.5l-94 99q-6 4 -6 12q0 19 19 19q7 0 13 -6l107 -107q2 -2 6 -2q3 0 5 2l108 107q4 6 12 6q19 0 19 -19q0 -8 -6 -12l-95 -99q-30 -31 -43 -31z" />
    <glyph glyph-name="dcaron" unicode="&#x10f;" 
d="M434 722q26 0 26 -25v-697h-334q-81 0 -81 77v352q0 79 82 79h270q11 0 11 12v177q0 25 26 25zM408 445q0 12 -11 12h-279q-7 0 -14 -8t-7 -16v-367q6 -15 15 -15h285q11 0 11 12v382zM581 800q25 0 43.5 -18.5t18.5 -44.5q0 -48 -7 -94t-19.5 -82t-29.5 -58t-38 -22
q-17 0 -17 21q0 13 5 24.5t10.5 24t10.5 26.5t5 32q0 16 -7 31t-15.5 30t-15.5 31.5t-7 35.5q0 26 17.5 44.5t45.5 18.5z" />
    <glyph glyph-name="Dcroat" unicode="&#x110;" 
d="M2 0zM52 386v311q0 25 26 25h141q76 0 139.5 -28t109 -77t70.5 -115t25 -142q0 -77 -25 -143t-70.5 -114t-109 -75.5t-139.5 -27.5h-141q-26 0 -26 26v308h-24q-26 0 -26 26t26 26h24zM511 360q0 68 -21.5 125t-60 98.5t-92.5 64.5t-118 23h-104q-11 0 -11 -12v-273h172
q26 0 26 -26t-26 -26h-172v-271q0 -12 11 -12h104q66 0 120 23t92 64t59 97.5t21 124.5z" />
    <glyph glyph-name="dcroat" unicode="&#x111;" 
d="M483 635v62q0 25 26 25t26 -25v-62h45q25 0 25 -26q0 -25 -25 -25h-45v-584h-374q-81 0 -81 77v352q0 79 82 79h310q11 0 11 12v64h-299q-26 0 -26 25q0 26 26 26h299zM483 445q0 12 -11 12h-319q-7 0 -14 -8t-7 -16v-367q6 -15 15 -15h325q11 0 11 12v382z" />
    <glyph glyph-name="Emacron" unicode="&#x112;" 
d="M72 0zM497 722q26 0 26 -25q0 -26 -26 -26h-362q-12 0 -12 -12v-243q0 -12 12 -12h237q25 0 25 -25q0 -26 -25 -26h-237q-12 0 -12 -12v-278q0 -12 12 -12h382q26 0 26 -25q0 -26 -26 -26h-419q-26 0 -26 26v671q0 25 26 25h399zM506 888q25 0 25 -26q0 -25 -25 -25h-396
q-26 0 -26 25q0 26 26 26h396z" />
    <glyph glyph-name="emacron" unicode="&#x113;" 
d="M84 0zM506 508q25 0 25 -26v-218q0 -25 -25 -25h-359q-12 0 -12 -12v-164q0 -12 12 -12h321q12 0 12 12v66q0 26 26 26q25 0 25 -26v-103q0 -26 -25 -26h-396q-26 0 -26 26v456q0 26 26 26h396zM480 445q0 12 -12 12h-321q-12 0 -12 -12v-143q0 -12 12 -12h321
q12 0 12 12v143zM506 675q25 0 25 -26q0 -25 -25 -25h-396q-26 0 -26 25q0 26 26 26h396z" />
    <glyph glyph-name="Ebreve" unicode="&#x114;" 
d="M72 0zM497 722q26 0 26 -25q0 -26 -26 -26h-362q-12 0 -12 -12v-243q0 -12 12 -12h237q25 0 25 -25q0 -26 -25 -26h-237q-12 0 -12 -12v-278q0 -12 12 -12h382q26 0 26 -25q0 -26 -26 -26h-419q-26 0 -26 26v671q0 25 26 25h399zM308 815q39 0 63.5 11t39 28.5t21.5 39
t10 42.5q3 18 20 18q19 0 19 -19q0 -25 -9 -53.5t-29.5 -53t-53.5 -41t-81 -16.5t-81 16.5t-53.5 41t-29.5 53t-9 53.5q0 19 19 19q17 0 20 -18q3 -21 10 -42.5t21.5 -39t39 -28.5t63.5 -11z" />
    <glyph glyph-name="ebreve" unicode="&#x115;" 
d="M84 0zM506 508q25 0 25 -26v-218q0 -25 -25 -25h-359q-12 0 -12 -12v-164q0 -12 12 -12h321q12 0 12 12v66q0 26 26 26q25 0 25 -26v-103q0 -26 -25 -26h-396q-26 0 -26 26v456q0 26 26 26h396zM480 445q0 12 -12 12h-321q-12 0 -12 -12v-143q0 -12 12 -12h321
q12 0 12 12v143zM308 602q39 0 63.5 11t39 28.5t21.5 39t10 42.5q3 18 20 18q19 0 19 -19q0 -25 -9 -53.5t-29.5 -53t-53.5 -41t-81 -16.5t-81 16.5t-53.5 41t-29.5 53t-9 53.5q0 19 19 19q17 0 20 -18q3 -21 10 -42.5t21.5 -39t39 -28.5t63.5 -11z" />
    <glyph glyph-name="Edotaccent" unicode="&#x116;" 
d="M72 0zM497 722q26 0 26 -25q0 -26 -26 -26h-362q-12 0 -12 -12v-243q0 -12 12 -12h237q25 0 25 -25q0 -26 -25 -26h-237q-12 0 -12 -12v-278q0 -12 12 -12h382q26 0 26 -25q0 -26 -26 -26h-419q-26 0 -26 26v671q0 25 26 25h399zM307 910q25 0 41.5 -16t16.5 -37
q0 -22 -16.5 -37.5t-41.5 -15.5t-41.5 15.5t-16.5 37.5q0 21 16.5 37t41.5 16z" />
    <glyph glyph-name="edotaccent" unicode="&#x117;" 
d="M84 0zM506 508q25 0 25 -26v-218q0 -25 -25 -25h-359q-12 0 -12 -12v-164q0 -12 12 -12h321q12 0 12 12v66q0 26 26 26q25 0 25 -26v-103q0 -26 -25 -26h-396q-26 0 -26 26v456q0 26 26 26h396zM480 445q0 12 -12 12h-321q-12 0 -12 -12v-143q0 -12 12 -12h321
q12 0 12 12v143zM307 697q25 0 41.5 -16t16.5 -37q0 -22 -16.5 -37.5t-41.5 -15.5t-41.5 15.5t-16.5 37.5q0 21 16.5 37t41.5 16z" />
    <glyph glyph-name="Eogonek" unicode="&#x118;" 
d="M497 722q26 0 26 -25q0 -26 -26 -26h-362q-12 0 -12 -12v-243q0 -12 12 -12h237q25 0 25 -25q0 -26 -25 -26h-237q-12 0 -12 -12v-278q0 -12 12 -12h382q26 0 26 -25q0 -17 -12 -26l-194 -163h169q26 0 26 -26q0 -25 -26 -25h-195q-25 0 -25 25v17q0 18 18 30l177 142
h-383q-26 0 -26 26v671q0 25 26 25h399z" />
    <glyph glyph-name="eogonek" unicode="&#x119;" 
d="M506 508q25 0 25 -26v-218q0 -25 -25 -25h-359q-12 0 -12 -12v-164q0 -12 12 -12h321q12 0 12 12v66q0 26 26 26q25 0 25 -26v-103q0 -9 -3.5 -15t-9.5 -11l-194 -163h169q26 0 26 -26q0 -25 -26 -25h-195q-25 0 -25 25v17q0 18 18 30l177 142h-358q-26 0 -26 26v456
q0 26 26 26h396zM480 445q0 12 -12 12h-321q-12 0 -12 -12v-143q0 -12 12 -12h321q12 0 12 12v143z" />
    <glyph glyph-name="Ecaron" unicode="&#x11a;" 
d="M72 0zM497 722q26 0 26 -25q0 -26 -26 -26h-362q-12 0 -12 -12v-243q0 -12 12 -12h237q25 0 25 -25q0 -26 -25 -26h-237q-12 0 -12 -12v-278q0 -12 12 -12h382q26 0 26 -25q0 -26 -26 -26h-419q-26 0 -26 26v671q0 25 26 25h399zM308 801q-9 0 -19.5 7.5t-25.5 23.5
l-94 99q-6 4 -6 12q0 19 19 19q7 0 13 -6l107 -107q2 -2 6 -2q3 0 5 2l108 107q4 6 12 6q19 0 19 -19q0 -8 -6 -12l-95 -99q-30 -31 -43 -31z" />
    <glyph glyph-name="ecaron" unicode="&#x11b;" 
d="M84 0zM506 508q25 0 25 -26v-218q0 -25 -25 -25h-359q-12 0 -12 -12v-164q0 -12 12 -12h321q12 0 12 12v66q0 26 26 26q25 0 25 -26v-103q0 -26 -25 -26h-396q-26 0 -26 26v456q0 26 26 26h396zM480 445q0 12 -12 12h-321q-12 0 -12 -12v-143q0 -12 12 -12h321
q12 0 12 12v143zM308 588q-9 0 -19.5 7.5t-25.5 23.5l-94 99q-6 4 -6 12q0 19 19 19q7 0 13 -6l107 -107q2 -2 6 -2q3 0 5 2l108 107q4 6 12 6q19 0 19 -19q0 -8 -6 -12l-95 -99q-30 -31 -43 -31z" />
    <glyph glyph-name="Gcircumflex" unicode="&#x11c;" 
d="M65 0zM451 722q65 0 65 -63v-79q0 -21 -27 -21q-26 0 -26 21v79q0 12 -12 12h-323q-12 0 -12 -12v-596q0 -12 12 -12h323q12 0 12 12v247q0 12 -12 12h-153q-25 0 -25 25q0 26 25 26h192q26 0 26 -26v-283q0 -6 5.5 -13t11.5 -13.5t11.5 -12.5t5.5 -11q0 -10 -7 -17
t-16 -7q-19 0 -38 25q-20 -15 -38 -15h-323q-26 0 -44.5 18t-18.5 45v596q0 63 63 63h323zM308 962q5 -3 17 -9t27 -21l94 -99q6 -6 6 -13q0 -19 -19 -19q-6 0 -12 6l-108 107q-3 3 -5 3q-3 0 -6 -3l-107 -107q-8 -6 -13 -6q-19 0 -19 19q0 7 6 13l95 99q28 30 44 30z" />
    <glyph glyph-name="gcircumflex" unicode="&#x11d;" 
d="M80 0zM535 508v-659q0 -29 -17.5 -46t-45.5 -17h-311q-26 0 -26 25q0 26 26 26h283q13 0 26 10t13 24v117q0 12 -11 12h-310q-82 0 -82 79v352q0 77 81 77h374zM483 445q0 12 -11 12h-325q-10 0 -14 -15l-1 -4v-365q0 -6 7 -14t14 -8h319q11 0 11 12v382zM308 749
q5 -3 17 -9t27 -21l94 -99q6 -6 6 -13q0 -19 -19 -19q-6 0 -12 6l-108 107q-3 3 -5 3q-3 0 -6 -3l-107 -107q-8 -6 -13 -6q-19 0 -19 19q0 7 6 13l95 99q28 30 44 30z" />
    <glyph glyph-name="Gbreve" unicode="&#x11e;" 
d="M65 0zM451 722q65 0 65 -63v-79q0 -21 -27 -21q-26 0 -26 21v79q0 12 -12 12h-323q-12 0 -12 -12v-596q0 -12 12 -12h323q12 0 12 12v247q0 12 -12 12h-153q-25 0 -25 25q0 26 25 26h192q26 0 26 -26v-283q0 -6 5.5 -13t11.5 -13.5t11.5 -12.5t5.5 -11q0 -10 -7 -17
t-16 -7q-19 0 -38 25q-20 -15 -38 -15h-323q-26 0 -44.5 18t-18.5 45v596q0 63 63 63h323zM308 815q39 0 63.5 11t39 28.5t21.5 39t10 42.5q3 18 20 18q19 0 19 -19q0 -25 -9 -53.5t-29.5 -53t-53.5 -41t-81 -16.5t-81 16.5t-53.5 41t-29.5 53t-9 53.5q0 19 19 19
q17 0 20 -18q3 -21 10 -42.5t21.5 -39t39 -28.5t63.5 -11z" />
    <glyph glyph-name="gbreve" unicode="&#x11f;" 
d="M80 0zM535 508v-659q0 -29 -17.5 -46t-45.5 -17h-311q-26 0 -26 25q0 26 26 26h283q13 0 26 10t13 24v117q0 12 -11 12h-310q-82 0 -82 79v352q0 77 81 77h374zM483 445q0 12 -11 12h-325q-10 0 -14 -15l-1 -4v-365q0 -6 7 -14t14 -8h319q11 0 11 12v382zM308 602
q39 0 63.5 11t39 28.5t21.5 39t10 42.5q3 18 20 18q19 0 19 -19q0 -25 -9 -53.5t-29.5 -53t-53.5 -41t-81 -16.5t-81 16.5t-53.5 41t-29.5 53t-9 53.5q0 19 19 19q17 0 20 -18q3 -21 10 -42.5t21.5 -39t39 -28.5t63.5 -11z" />
    <glyph glyph-name="Gdotaccent" unicode="&#x120;" 
d="M65 0zM451 722q65 0 65 -63v-79q0 -21 -27 -21q-26 0 -26 21v79q0 12 -12 12h-323q-12 0 -12 -12v-596q0 -12 12 -12h323q12 0 12 12v247q0 12 -12 12h-153q-25 0 -25 25q0 26 25 26h192q26 0 26 -26v-283q0 -6 5.5 -13t11.5 -13.5t11.5 -12.5t5.5 -11q0 -10 -7 -17
t-16 -7q-19 0 -38 25q-20 -15 -38 -15h-323q-26 0 -44.5 18t-18.5 45v596q0 63 63 63h323zM307 910q25 0 41.5 -16t16.5 -37q0 -22 -16.5 -37.5t-41.5 -15.5t-41.5 15.5t-16.5 37.5q0 21 16.5 37t41.5 16z" />
    <glyph glyph-name="gdotaccent" unicode="&#x121;" 
d="M80 0zM535 508v-659q0 -29 -17.5 -46t-45.5 -17h-311q-26 0 -26 25q0 26 26 26h283q13 0 26 10t13 24v117q0 12 -11 12h-310q-82 0 -82 79v352q0 77 81 77h374zM483 445q0 12 -11 12h-325q-10 0 -14 -15l-1 -4v-365q0 -6 7 -14t14 -8h319q11 0 11 12v382zM307 697
q25 0 41.5 -16t16.5 -37q0 -22 -16.5 -37.5t-41.5 -15.5t-41.5 15.5t-16.5 37.5q0 21 16.5 37t41.5 16z" />
    <glyph glyph-name="Gcommaaccent" unicode="&#x122;" 
d="M65 0zM451 722q65 0 65 -63v-79q0 -21 -27 -21q-26 0 -26 21v79q0 12 -12 12h-323q-12 0 -12 -12v-596q0 -12 12 -12h323q12 0 12 12v247q0 12 -12 12h-153q-25 0 -25 25q0 26 25 26h192q26 0 26 -26v-283q0 -6 5.5 -13t11.5 -13.5t11.5 -12.5t5.5 -11q0 -10 -7 -17
t-16 -7q-19 0 -38 25q-20 -15 -38 -15h-323q-26 0 -44.5 18t-18.5 45v596q0 63 63 63h323zM308 -23q20 0 34 -12.5t14 -35.5q0 -25 -5.5 -50.5t-15 -46.5t-23 -34t-29.5 -13q-13 0 -13 13q0 8 3.5 15t8 14t8.5 15.5t4 19.5q0 9 -5.5 18t-12 18.5t-12 19.5t-5.5 21
q0 16 13.5 27t35.5 11z" />
    <glyph glyph-name="gcommaaccent" unicode="&#x123;" 
d="M80 0zM535 508v-659q0 -29 -17.5 -46t-45.5 -17h-311q-26 0 -26 25q0 26 26 26h283q13 0 26 10t13 24v117q0 12 -11 12h-310q-82 0 -82 79v352q0 77 81 77h374zM483 445q0 12 -11 12h-325q-10 0 -14 -15l-1 -4v-365q0 -6 7 -14t14 -8h319q11 0 11 12v382z
M316.019 546.999q-19.999 0 -33.998 12.499t-13.999 35.498q0 24.998 5.5 50.4961q5.49902 25.499 14.999 46.498q9.49902 20.998 22.998 33.9971q13.499 13 29.498 13q13 0 13 -13q0 -7.99902 -3.5 -14.999q-3.5 -6.99902 -8 -13.999q-4.49902 -6.99902 -8.49902 -15.499
q-4 -8.49902 -4 -19.499q0 -8.99902 5.5 -17.999q5.49902 -8.99902 11.999 -18.498q6.5 -9.5 11.999 -19.499q5.5 -9.99902 5.5 -20.999q0 -15.999 -13.499 -26.998t-35.498 -10.999z" />
    <glyph glyph-name="Hcircumflex" unicode="&#x124;" 
d="M57 0zM83 722q25 0 25 -25v-294q0 -12 12 -12h375q12 0 12 12v294q0 25 25 25q26 0 26 -25v-671q0 -26 -26 -26q-25 0 -25 26v303q0 11 -12 11h-375q-12 0 -12 -11v-303q0 -26 -25 -26q-26 0 -26 26v671q0 25 26 25zM308 962q5 -3 17 -9t27 -21l94 -99q6 -6 6 -13
q0 -19 -19 -19q-6 0 -12 6l-108 107q-3 3 -5 3q-3 0 -6 -3l-107 -107q-8 -6 -13 -6q-19 0 -19 19q0 7 6 13l95 99q28 30 44 30z" />
    <glyph glyph-name="hcircumflex" unicode="&#x125;" 
d="M80 0zM535 30q0 -30 -27 -30q-25 0 -25 30v403q0 8 -7 16t-13 8h-320q-11 0 -11 -12v-419q0 -26 -26 -26t-26 26v671q0 25 26 25t26 -25v-177q0 -12 11 -12h310q82 0 82 -79v-399zM226 962q5 -3 17 -9t27 -21l94 -99q6 -6 6 -13q0 -19 -19 -19q-6 0 -12 6l-108 107
q-3 3 -5 3q-3 0 -6 -3l-107 -107q-8 -6 -13 -6q-19 0 -19 19q0 7 6 13l95 99q28 30 44 30z" />
    <glyph glyph-name="Hbar" unicode="&#x126;" 
d="M83 722q25 0 25 -25v-137h399v137q0 25 25 25q26 0 26 -25v-671q0 -26 -26 -26q-25 0 -25 26v303q0 11 -12 11h-375q-12 0 -12 -11v-303q0 -26 -25 -26q-26 0 -26 26v671q0 25 26 25zM495 391q12 0 12 12v106h-399v-106q0 -12 12 -12h375z" />
    <glyph glyph-name="hbar" unicode="&#x127;" 
d="M80 635v62q0 25 26 25t26 -25v-62h300q25 0 25 -26q0 -25 -25 -25h-300v-64q0 -12 11 -12h310q82 0 82 -79v-399q0 -30 -27 -30q-25 0 -25 30v403q0 8 -7 16t-13 8h-320q-11 0 -11 -12v-419q0 -26 -26 -26t-26 26v558h-44q-26 0 -26 25q0 26 26 26h44z" />
    <glyph glyph-name="Itilde" unicode="&#x128;" 
d="M121 0zM468 722q26 0 26 -25q0 -26 -26 -26h-125q-12 0 -12 -12v-596q0 -12 12 -12h125q26 0 26 -25q0 -26 -26 -26h-321q-26 0 -26 26q0 25 26 25h121q12 0 12 12v596q0 12 -12 12h-121q-26 0 -26 26q0 25 26 25h321zM231 921q19 0 41 -9.5t43 -21t38.5 -21t28.5 -9.5
q10 0 22 8.5t23 19t20 19t14 8.5q26 0 26 -24q0 -13 -10 -27.5t-26 -27t-34.5 -20.5t-34.5 -8q-18 0 -39.5 9.5t-42.5 21.5t-39 21.5t-30 9.5q-15 0 -26.5 -9.5t-21 -21.5t-16.5 -21.5t-13 -9.5q-27 0 -27 27q0 13 9 28t23.5 28t33 21.5t38.5 8.5z" />
    <glyph glyph-name="itilde" unicode="&#x129;" 
d="M110 0zM506 26q0 -26 -26 -26h-345q-25 0 -25 26q0 25 25 25h136q12 0 12 12v382q0 12 -12 12h-124q-26 0 -26 25q0 26 26 26h162q25 0 25 -26v-419q0 -12 12 -12h134q26 0 26 -25zM231 708q19 0 41 -9.5t43 -21t38.5 -21t28.5 -9.5q10 0 22 8.5t23 19t20 19t14 8.5
q26 0 26 -24q0 -13 -10 -27.5t-26 -27t-34.5 -20.5t-34.5 -8q-18 0 -39.5 9.5t-42.5 21.5t-39 21.5t-30 9.5q-15 0 -26.5 -9.5t-21 -21.5t-16.5 -21.5t-13 -9.5q-27 0 -27 27q0 13 9 28t23.5 28t33 21.5t38.5 8.5z" />
    <glyph glyph-name="uni012A" unicode="&#x12a;" 
d="M84 0zM468 722q26 0 26 -25q0 -26 -26 -26h-125q-12 0 -12 -12v-596q0 -12 12 -12h125q26 0 26 -25q0 -26 -26 -26h-321q-26 0 -26 26q0 25 26 25h121q12 0 12 12v596q0 12 -12 12h-121q-26 0 -26 26q0 25 26 25h321zM506 888q25 0 25 -26q0 -25 -25 -25h-396
q-26 0 -26 25q0 26 26 26h396z" />
    <glyph glyph-name="imacron" unicode="&#x12b;" 
d="M84 0zM506 26q0 -26 -26 -26h-345q-25 0 -25 26q0 25 25 25h136q12 0 12 12v382q0 12 -12 12h-124q-26 0 -26 25q0 26 26 26h162q25 0 25 -26v-419q0 -12 12 -12h134q26 0 26 -25zM506 675q25 0 25 -26q0 -25 -25 -25h-396q-26 0 -26 25q0 26 26 26h396z" />
    <glyph glyph-name="Ibreve" unicode="&#x12c;" 
d="M121 0zM468 722q26 0 26 -25q0 -26 -26 -26h-125q-12 0 -12 -12v-596q0 -12 12 -12h125q26 0 26 -25q0 -26 -26 -26h-321q-26 0 -26 26q0 25 26 25h121q12 0 12 12v596q0 12 -12 12h-121q-26 0 -26 26q0 25 26 25h321zM308 815q39 0 63.5 11t39 28.5t21.5 39t10 42.5
q3 18 20 18q19 0 19 -19q0 -25 -9 -53.5t-29.5 -53t-53.5 -41t-81 -16.5t-81 16.5t-53.5 41t-29.5 53t-9 53.5q0 19 19 19q17 0 20 -18q3 -21 10 -42.5t21.5 -39t39 -28.5t63.5 -11z" />
    <glyph glyph-name="ibreve" unicode="&#x12d;" 
d="M110 0zM506 26q0 -26 -26 -26h-345q-25 0 -25 26q0 25 25 25h136q12 0 12 12v382q0 12 -12 12h-124q-26 0 -26 25q0 26 26 26h162q25 0 25 -26v-419q0 -12 12 -12h134q26 0 26 -25zM308 602q39 0 63.5 11t39 28.5t21.5 39t10 42.5q3 18 20 18q19 0 19 -19q0 -25 -9 -53.5
t-29.5 -53t-53.5 -41t-81 -16.5t-81 16.5t-53.5 41t-29.5 53t-9 53.5q0 19 19 19q17 0 20 -18q3 -21 10 -42.5t21.5 -39t39 -28.5t63.5 -11z" />
    <glyph glyph-name="Iogonek" unicode="&#x12e;" 
d="M468 722q26 0 26 -25q0 -26 -26 -26h-125q-12 0 -12 -12v-596q0 -12 12 -12h125q26 0 26 -25q0 -26 -26 -26h-80l-194 -163h169q26 0 26 -26q0 -25 -26 -25h-195q-25 0 -25 25v17q0 18 18 30l177 142h-191q-26 0 -26 26q0 25 26 25h121q12 0 12 12v596q0 12 -12 12h-121
q-26 0 -26 26q0 25 26 25h321z" />
    <glyph glyph-name="iogonek" unicode="&#x12f;" 
d="M506 26q0 -26 -26 -26h-92l-194 -163h169q26 0 26 -26q0 -25 -26 -25h-195q-25 0 -25 25v17q0 18 18 30l177 142h-203q-25 0 -25 26q0 25 25 25h136q12 0 12 12v382q0 12 -12 12h-121q-25 0 -25 25q0 26 25 26h159q25 0 25 -26v-419q0 -12 12 -12h134q26 0 26 -25z
M283 722q24 0 39.5 -15.5t15.5 -38.5t-15.5 -38.5t-39.5 -15.5q-22 0 -38.5 15.5t-16.5 38.5t16.5 38.5t38.5 15.5z" />
    <glyph glyph-name="Idotaccent" unicode="&#x130;" 
d="M121 0zM468 722q26 0 26 -25q0 -26 -26 -26h-125q-12 0 -12 -12v-596q0 -12 12 -12h125q26 0 26 -25q0 -26 -26 -26h-321q-26 0 -26 26q0 25 26 25h121q12 0 12 12v596q0 12 -12 12h-121q-26 0 -26 26q0 25 26 25h321zM307 910q25 0 41.5 -16t16.5 -37q0 -22 -16.5 -37.5
t-41.5 -15.5t-41.5 15.5t-16.5 37.5q0 21 16.5 37t41.5 16z" />
    <glyph glyph-name="dotlessi" unicode="&#x131;" 
d="M506 26q0 -26 -26 -26h-345q-25 0 -25 26q0 25 25 25h136q12 0 12 12v382q0 12 -12 12h-124q-26 0 -26 25q0 26 26 26h162q25 0 25 -26v-419q0 -12 12 -12h134q26 0 26 -25z" />
    <glyph glyph-name="IJ" unicode="&#x132;" 
d="M202 722q26 0 26 -25q0 -26 -26 -26h-45q-12 0 -12 -12v-596q0 -12 12 -12h45q26 0 26 -25q0 -26 -26 -26h-161q-26 0 -26 26q0 25 26 25h41q12 0 12 12v596q0 12 -12 12h-41q-26 0 -26 26q0 25 26 25h161zM546 722q25 0 25 -25v-671q0 -26 -25 -26h-273q-25 0 -25 26
v146q0 26 25 26q26 0 26 -26v-109q0 -12 12 -12h197q12 0 12 12v596q0 12 -12 12h-123q-25 0 -25 26q0 25 25 25h161z" />
    <glyph glyph-name="ij" unicode="&#x133;" 
d="M165 722q24 0 39.5 -15.5t15.5 -38.5t-15.5 -38.5t-39.5 -15.5q-22 0 -38.5 15.5t-16.5 38.5t16.5 38.5t38.5 15.5zM328 26q0 -26 -26 -26h-225q-25 0 -25 26q0 25 25 25h76q12 0 12 12v382q0 12 -12 12h-61q-25 0 -25 25q0 26 25 26h99q25 0 25 -26v-419q0 -12 12 -12
h74q26 0 26 -25zM471 508q26 0 26 -26v-671q0 -25 -26 -25h-280q-26 0 -26 25v83q0 26 26 26t26 -26v-45q0 -12 11 -12h206q11 0 11 12v596q0 12 -11 12h-59q-26 0 -26 25q0 26 26 26h96zM447 722q23 0 38.5 -15.5t15.5 -38.5t-15.5 -38.5t-38.5 -15.5t-39 15.5t-16 38.5
t16 38.5t39 15.5z" />
    <glyph glyph-name="Jcircumflex" unicode="&#x134;" 
d="M91 0zM499 722q25 0 25 -25v-671q0 -26 -25 -26h-383q-25 0 -25 26v146q0 26 25 26q26 0 26 -26v-109q0 -12 12 -12h307q12 0 12 12v596q0 12 -12 12h-233q-25 0 -25 26q0 25 25 25h271zM308 962q5 -3 17 -9t27 -21l94 -99q6 -6 6 -13q0 -19 -19 -19q-6 0 -12 6l-108 107
q-3 3 -5 3q-3 0 -6 -3l-107 -107q-8 -6 -13 -6q-19 0 -19 19q0 7 6 13l95 99q28 30 44 30z" />
    <glyph glyph-name="jcircumflex" unicode="&#x135;" 
d="M108 0zM466 508q26 0 26 -26v-671q0 -25 -26 -25h-332q-26 0 -26 25v83q0 26 26 26t26 -26v-45q0 -12 11 -12h258q11 0 11 12v596q0 12 -11 12h-119q-26 0 -26 25q0 26 26 26h156zM308 749q5 -3 17 -9t27 -21l94 -99q6 -6 6 -13q0 -19 -19 -19q-6 0 -12 6l-108 107
q-3 3 -5 3q-3 0 -6 -3l-107 -107q-8 -6 -13 -6q-19 0 -19 19q0 7 6 13l95 99q28 30 44 30z" />
    <glyph glyph-name="Kcommaaccent" unicode="&#x136;" 
d="M68 0zM93 722q26 0 26 -25v-294q0 -12 11 -12h40q7 3 9 5l293 316q9 10 20 10q25 0 25 -26q0 -8 -6 -17l-252 -268q-4 -4 -4 -10q0 -10 13 -10h197q17 0 32 -7t26.5 -18.5t18 -27t6.5 -33.5v-279q0 -26 -26 -26t-26 26v279q0 35 -31 35h-335q-11 0 -11 -11v-303
q0 -26 -26 -26q-25 0 -25 26v671q0 25 25 25zM308 -23q20 0 34 -12.5t14 -35.5q0 -25 -5.5 -50.5t-15 -46.5t-23 -34t-29.5 -13q-13 0 -13 13q0 8 3.5 15t8 14t8.5 15.5t4 19.5q0 9 -5.5 18t-12 18.5t-12 19.5t-5.5 21q0 16 13.5 27t35.5 11z" />
    <glyph glyph-name="kcommaaccent" unicode="&#x137;" 
d="M91 0zM116 722q26 0 26 -25v-399q0 -13 12 -13h30q1 0 3 1l4 2l287 216q4 4 14 4q25 0 25 -26q0 -13 -13 -22l-255 -192q-7 -7 -7 -11q0 -2 7 -9l255 -200q13 -9 13 -21q0 -27 -25 -27q-9 0 -14 5l-286 227q-5 3 -8 3h-28q-14 0 -14 -12v-197q0 -26 -26 -26q-25 0 -25 26
v671q0 25 25 25zM308 -23q20 0 34 -12.5t14 -35.5q0 -25 -5.5 -50.5t-15 -46.5t-23 -34t-29.5 -13q-13 0 -13 13q0 8 3.5 15t8 14t8.5 15.5t4 19.5q0 9 -5.5 18t-12 18.5t-12 19.5t-5.5 21q0 16 13.5 27t35.5 11z" />
    <glyph glyph-name="Lacute" unicode="&#x139;" 
d="M43 0zM93 722q26 0 26 -25v-634q0 -12 11 -12h391q25 0 25 -25q0 -26 -25 -26h-428q-25 0 -25 26v671q0 25 25 25zM143 964q9 13 23 13q27 0 27 -22q0 -7 -5 -14l-94 -142q-10 -13 -23 -13q-28 0 -28 22q0 10 4 14z" />
    <glyph glyph-name="lacute" unicode="&#x13a;" 
d="M121 0zM264 722q63 0 63 -63v-596q0 -12 12 -12h129q26 0 26 -25q0 -26 -26 -26h-321q-26 0 -26 26q0 25 26 25h117q12 0 12 12v596q0 12 -12 12h-79q-25 0 -25 26q0 25 25 25h79zM332 964q9 13 23 13q27 0 27 -22q0 -7 -5 -14l-94 -142q-10 -13 -23 -13q-28 0 -28 22
q0 10 4 14z" />
    <glyph glyph-name="Lcommaaccent" unicode="&#x13b;" 
d="M68 0zM93 722q26 0 26 -25v-634q0 -12 11 -12h391q25 0 25 -25q0 -26 -25 -26h-428q-25 0 -25 26v671q0 25 25 25zM308 -23q20 0 34 -12.5t14 -35.5q0 -25 -5.5 -50.5t-15 -46.5t-23 -34t-29.5 -13q-13 0 -13 13q0 8 3.5 15t8 14t8.5 15.5t4 19.5q0 9 -5.5 18t-12 18.5
t-12 19.5t-5.5 21q0 16 13.5 27t35.5 11z" />
    <glyph glyph-name="lcommaaccent" unicode="&#x13c;" 
d="M121 0zM264 722q63 0 63 -63v-596q0 -12 12 -12h129q26 0 26 -25q0 -26 -26 -26h-321q-26 0 -26 26q0 25 26 25h117q12 0 12 12v596q0 12 -12 12h-79q-25 0 -25 26q0 25 25 25h79zM308 -23q20 0 34 -12.5t14 -35.5q0 -25 -5.5 -50.5t-15 -46.5t-23 -34t-29.5 -13
q-13 0 -13 13q0 8 3.5 15t8 14t8.5 15.5t4 19.5q0 9 -5.5 18t-12 18.5t-12 19.5t-5.5 21q0 16 13.5 27t35.5 11z" />
    <glyph glyph-name="Lcaron" unicode="&#x13d;" 
d="M68 0zM93 722q26 0 26 -25v-634q0 -12 11 -12h391q25 0 25 -25q0 -26 -25 -26h-428q-25 0 -25 26v671q0 25 25 25zM388 771q25 0 43.5 -16.5t18.5 -46.5q0 -48 -7 -94t-19.5 -82t-29.5 -58t-38 -22q-17 0 -17 21q0 13 5 24.5t10.5 24t10.5 26.5t5 32q0 16 -7 31t-15.5 30
t-15.5 31.5t-7 35.5q0 26 17.5 44.5t45.5 18.5z" />
    <glyph glyph-name="lcaron" unicode="&#x13e;" 
d="M121 0zM264 722q63 0 63 -63v-596q0 -12 12 -12h129q26 0 26 -25q0 -26 -26 -26h-321q-26 0 -26 26q0 25 26 25h117q12 0 12 12v596q0 12 -12 12h-79q-25 0 -25 26q0 25 25 25h79zM527 800q25 0 43.5 -16.5t18.5 -46.5q0 -48 -7 -94t-19.5 -82t-29.5 -58t-38 -22
q-17 0 -17 21q0 13 5 24.5t10.5 24t10.5 26.5t5 32q0 16 -7 31t-15.5 30t-15.5 31.5t-7 35.5q0 26 17.5 44.5t45.5 18.5z" />
    <glyph glyph-name="Ldot" unicode="&#x13f;" 
d="M68 0zM93 722q26 0 26 -25v-634q0 -12 11 -12h391q25 0 25 -25q0 -26 -25 -26h-428q-25 0 -25 26v671q0 25 25 25zM323 427q25 0 41.5 -16t16.5 -37q0 -22 -16.5 -37.5t-41.5 -15.5t-41.5 15.5t-16.5 37.5q0 21 16.5 37t41.5 16z" />
    <glyph glyph-name="ldot" unicode="&#x140;" 
d="M121 0zM264 722q63 0 63 -63v-596q0 -12 12 -12h129q26 0 26 -25q0 -26 -26 -26h-321q-26 0 -26 26q0 25 26 25h117q12 0 12 12v596q0 12 -12 12h-79q-25 0 -25 26q0 25 25 25h79zM469 427q25 0 41.5 -16t16.5 -37q0 -22 -16.5 -37.5t-41.5 -15.5t-41.5 15.5t-16.5 37.5
q0 21 16.5 37t41.5 16z" />
    <glyph glyph-name="Lslash" unicode="&#x141;" 
d="M68 362v335q0 25 25 25q26 0 26 -25v-322l180 49q3 1 11 1q9 0 15.5 -7t6.5 -23q0 -17 -19 -21l-194 -52v-259q0 -12 11 -12h391q25 0 25 -25q0 -26 -25 -26h-428q-25 0 -25 26v283l-21 -6q-3 -1 -10 -1q-10 0 -16.5 7.5t-6.5 22.5t19 21z" />
    <glyph glyph-name="lslash" unicode="&#x142;" 
d="M264 722q63 0 63 -63v-262l101 27q2 1 10 1q9 0 15.5 -7t6.5 -23q0 -17 -18 -21l-115 -30v-281q0 -12 12 -12h129q26 0 26 -25q0 -26 -26 -26h-321q-26 0 -26 26q0 25 26 25h117q12 0 12 12v267l-101 -27q-3 -1 -10 -1q-9 0 -16 7.5t-7 22.5t19 21l115 30v276
q0 12 -12 12h-79q-25 0 -25 26q0 25 25 25h79z" />
    <glyph glyph-name="Nacute" unicode="&#x143;" 
d="M62 0zM104 722q32 0 49 -30l327 -591q5 -8 12 -8q10 0 10 14v590q0 25 26 25q25 0 25 -25v-649q0 -48 -39 -48q-35 0 -55 35l-324 582q-5 9 -12 9q-10 0 -10 -13v-587q0 -26 -26 -26q-25 0 -25 26v653q0 43 42 43zM332 964q9 13 23 13q27 0 27 -22q0 -7 -5 -14l-94 -142
q-10 -13 -23 -13q-28 0 -28 22q0 10 4 14z" />
    <glyph glyph-name="nacute" unicode="&#x144;" 
d="M84 0zM84 508h358q18 0 34 -7t28 -20t19.5 -30.5t7.5 -38.5v-386q0 -26 -25 -26q-26 0 -26 26v386q0 19 -12 32t-26 13h-295q-12 0 -12 -12v-419q0 -26 -25 -26q-26 0 -26 26v482zM332 751q9 13 23 13q27 0 27 -22q0 -7 -5 -14l-94 -142q-10 -13 -23 -13q-28 0 -28 22
q0 10 4 14z" />
    <glyph glyph-name="Ncommaaccent" unicode="&#x145;" 
d="M62 0zM104 722q32 0 49 -30l327 -591q5 -8 12 -8q10 0 10 14v590q0 25 26 25q25 0 25 -25v-649q0 -48 -39 -48q-35 0 -55 35l-324 582q-5 9 -12 9q-10 0 -10 -13v-587q0 -26 -26 -26q-25 0 -25 26v653q0 43 42 43zM308 -23q20 0 34 -12.5t14 -35.5q0 -25 -5.5 -50.5
t-15 -46.5t-23 -34t-29.5 -13q-13 0 -13 13q0 8 3.5 15t8 14t8.5 15.5t4 19.5q0 9 -5.5 18t-12 18.5t-12 19.5t-5.5 21q0 16 13.5 27t35.5 11z" />
    <glyph glyph-name="ncommaaccent" unicode="&#x146;" 
d="M84 0zM84 508h358q18 0 34 -7t28 -20t19.5 -30.5t7.5 -38.5v-386q0 -26 -25 -26q-26 0 -26 26v386q0 19 -12 32t-26 13h-295q-12 0 -12 -12v-419q0 -26 -25 -26q-26 0 -26 26v482zM308 -23q20 0 34 -12.5t14 -35.5q0 -25 -5.5 -50.5t-15 -46.5t-23 -34t-29.5 -13
q-13 0 -13 13q0 8 3.5 15t8 14t8.5 15.5t4 19.5q0 9 -5.5 18t-12 18.5t-12 19.5t-5.5 21q0 16 13.5 27t35.5 11z" />
    <glyph glyph-name="Ncaron" unicode="&#x147;" 
d="M62 0zM104 722q32 0 49 -30l327 -591q5 -8 12 -8q10 0 10 14v590q0 25 26 25q25 0 25 -25v-649q0 -48 -39 -48q-35 0 -55 35l-324 582q-5 9 -12 9q-10 0 -10 -13v-587q0 -26 -26 -26q-25 0 -25 26v653q0 43 42 43zM308 801q-9 0 -19.5 7.5t-25.5 23.5l-94 99q-6 4 -6 12
q0 19 19 19q7 0 13 -6l107 -107q2 -2 6 -2q3 0 5 2l108 107q4 6 12 6q19 0 19 -19q0 -8 -6 -12l-95 -99q-30 -31 -43 -31z" />
    <glyph glyph-name="ncaron" unicode="&#x148;" 
d="M84 0zM84 508h358q18 0 34 -7t28 -20t19.5 -30.5t7.5 -38.5v-386q0 -26 -25 -26q-26 0 -26 26v386q0 19 -12 32t-26 13h-295q-12 0 -12 -12v-419q0 -26 -25 -26q-26 0 -26 26v482zM308 588q-9 0 -19.5 7.5t-25.5 23.5l-94 99q-6 4 -6 12q0 19 19 19q7 0 13 -6l107 -107
q2 -2 6 -2q3 0 5 2l108 107q4 6 12 6q19 0 19 -19q0 -8 -6 -12l-95 -99q-30 -31 -43 -31z" />
    <glyph glyph-name="Eng" unicode="&#x14a;" 
d="M502 697q0 25 26 25q25 0 25 -25v-886q0 -25 -26 -25h-272q-26 0 -26 25v83q0 26 26 26t26 -26v-45q0 -12 11 -12h199q11 0 11 12v110l-367 658q-5 9 -12 9q-10 0 -10 -13v-587q0 -26 -26 -26q-25 0 -25 26v653q0 43 42 43q32 0 49 -30l349 -627v632v0z" />
    <glyph glyph-name="eng" unicode="&#x14b;" 
d="M480 412q0 19 -12 32t-26 13h-295q-12 0 -12 -12v-419q0 -26 -25 -26q-26 0 -26 26v482h358q18 0 34 -7t28 -20t19.5 -30.5t7.5 -38.5v-601q0 -25 -26 -25h-212q-26 0 -26 25v83q0 26 26 26t26 -26v-45q0 -12 11 -12h139q11 0 11 12v563v0z" />
    <glyph glyph-name="Omacron" unicode="&#x14c;" 
d="M82 0zM467 722q65 0 65 -63v-596q0 -27 -18 -45t-47 -18h-323q-25 0 -43.5 18t-18.5 45v596q0 63 62 63h323zM144 671q-11 0 -11 -12v-596q0 -12 11 -12h323q12 0 12 12v596q0 12 -12 12h-323zM506 888q25 0 25 -26q0 -25 -25 -25h-396q-26 0 -26 25q0 26 26 26h396z" />
    <glyph glyph-name="omacron" unicode="&#x14d;" 
d="M84 0zM468 508q63 0 63 -63v-382q0 -26 -17 -44.5t-46 -18.5h-321q-28 0 -45.5 18t-17.5 45v382q0 12 5.5 23t14 20t20 14.5t23.5 5.5h321zM147 457q-12 0 -12 -12v-382q0 -12 12 -12h321q12 0 12 12v382q0 12 -12 12h-321zM506 675q25 0 25 -26q0 -25 -25 -25h-396
q-26 0 -26 25q0 26 26 26h396z" />
    <glyph glyph-name="Obreve" unicode="&#x14e;" 
d="M82 0zM467 722q65 0 65 -63v-596q0 -27 -18 -45t-47 -18h-323q-25 0 -43.5 18t-18.5 45v596q0 63 62 63h323zM144 671q-11 0 -11 -12v-596q0 -12 11 -12h323q12 0 12 12v596q0 12 -12 12h-323zM308 815q39 0 63.5 11t39 28.5t21.5 39t10 42.5q3 18 20 18q19 0 19 -19
q0 -25 -9 -53.5t-29.5 -53t-53.5 -41t-81 -16.5t-81 16.5t-53.5 41t-29.5 53t-9 53.5q0 19 19 19q17 0 20 -18q3 -21 10 -42.5t21.5 -39t39 -28.5t63.5 -11z" />
    <glyph glyph-name="obreve" unicode="&#x14f;" 
d="M84 0zM468 508q63 0 63 -63v-382q0 -26 -17 -44.5t-46 -18.5h-321q-28 0 -45.5 18t-17.5 45v382q0 12 5.5 23t14 20t20 14.5t23.5 5.5h321zM147 457q-12 0 -12 -12v-382q0 -12 12 -12h321q12 0 12 12v382q0 12 -12 12h-321zM308 602q39 0 63.5 11t39 28.5t21.5 39
t10 42.5q3 18 20 18q19 0 19 -19q0 -25 -9 -53.5t-29.5 -53t-53.5 -41t-81 -16.5t-81 16.5t-53.5 41t-29.5 53t-9 53.5q0 19 19 19q17 0 20 -18q3 -21 10 -42.5t21.5 -39t39 -28.5t63.5 -11z" />
    <glyph glyph-name="Ohungarumlaut" unicode="&#x150;" 
d="M82 0zM467 722q65 0 65 -63v-596q0 -27 -18 -45t-47 -18h-323q-25 0 -43.5 18t-18.5 45v596q0 63 62 63h323zM144 671q-11 0 -11 -12v-596q0 -12 11 -12h323q12 0 12 12v596q0 12 -12 12h-323zM446 952q18 0 18 -16q0 -4 -3 -10l-76 -126q-5 -9 -15 -9q-19 0 -19 17
q0 5 4 10l75 124q6 10 16 10zM246 952q18 0 18 -16q0 -4 -3 -10l-76 -126q-5 -9 -15 -9q-19 0 -19 17q0 5 4 10l75 124q6 10 16 10z" />
    <glyph glyph-name="ohungarumlaut" unicode="&#x151;" 
d="M84 0zM468 508q63 0 63 -63v-382q0 -26 -17 -44.5t-46 -18.5h-321q-28 0 -45.5 18t-17.5 45v382q0 12 5.5 23t14 20t20 14.5t23.5 5.5h321zM147 457q-12 0 -12 -12v-382q0 -12 12 -12h321q12 0 12 12v382q0 12 -12 12h-321zM446 739q18 0 18 -16q0 -4 -3 -10l-76 -126
q-5 -9 -15 -9q-19 0 -19 17q0 5 4 10l75 124q6 10 16 10zM246 739q18 0 18 -16q0 -4 -3 -10l-76 -126q-5 -9 -15 -9q-19 0 -19 17q0 5 4 10l75 124q6 10 16 10z" />
    <glyph glyph-name="OE" unicode="&#x152;" 
d="M509 722q26 0 26 -25q0 -26 -26 -26h-168q-11 0 -11 -12v-243q0 -12 11 -12h101q25 0 25 -25q0 -26 -25 -26h-101q-11 0 -11 -12v-278q0 -12 11 -12h188q26 0 26 -25q0 -26 -26 -26h-407q-25 0 -44 18t-19 45v596q0 63 63 63h387zM276 659q0 12 -12 12h-142
q-11 0 -11 -12v-596q0 -12 11 -12h142q12 0 12 12v596z" />
    <glyph glyph-name="oe" unicode="&#x153;" 
d="M523 508q26 0 26 -26v-218q0 -25 -26 -25h-182q-10 0 -11 -9v-167q0 -12 11 -12h145q11 0 11 12v66q0 26 26 26t26 -26v-103q0 -26 -26 -26h-395q-28 0 -45.5 18t-17.5 45v382q0 12 5.5 23t14.5 20t20 14.5t23 5.5h395zM278 445q0 12 -11 12h-139q-12 0 -12 -12v-382
q0 -12 12 -12h139q11 0 11 12v382zM497 445q0 12 -11 12h-145q-11 0 -11 -12v-143q0 -12 11 -12h145q11 0 11 12v143z" />
    <glyph glyph-name="Racute" unicode="&#x154;" 
d="M72 0zM504 722q26 0 26 -25v-339q0 -26 -26 -26h-62q-12 0 -12 -10q0 -5 1 -6l110 -280q2 -8 2 -10q0 -26 -27 -26q-18 0 -22 16l-121 308q-5 8 -12 8h-226q-12 0 -12 -12v-294q0 -26 -25 -26q-26 0 -26 26v671q0 25 26 25h406zM479 659q0 12 -12 12h-332q-12 0 -12 -12
v-264q0 -12 12 -12h332q12 0 12 12v264zM332 964q9 13 23 13q27 0 27 -22q0 -7 -5 -14l-94 -142q-10 -13 -23 -13q-28 0 -28 22q0 10 4 14z" />
    <glyph glyph-name="racute" unicode="&#x155;" 
d="M79 0zM253 508q15 0 30 -25q16 25 36 25h191q26 0 26 -26v-101q0 -26 -26 -26q-25 0 -25 26v64q0 12 -12 12h-139q-24 0 -40 -17t-16 -39v-338q0 -12 12 -12h132q25 0 25 -25q0 -26 -25 -26h-317q-26 0 -26 26q0 25 26 25h111q11 0 11 12v382q0 12 -11 12h-100
q-25 0 -25 25q0 26 25 26h137zM332 751q9 13 23 13q27 0 27 -22q0 -7 -5 -14l-94 -142q-10 -13 -23 -13q-28 0 -28 22q0 10 4 14z" />
    <glyph glyph-name="Rcommaaccent" unicode="&#x156;" 
d="M72 0zM504 722q26 0 26 -25v-339q0 -26 -26 -26h-62q-12 0 -12 -10q0 -5 1 -6l110 -280q2 -8 2 -10q0 -26 -27 -26q-18 0 -22 16l-121 308q-5 8 -12 8h-226q-12 0 -12 -12v-294q0 -26 -25 -26q-26 0 -26 26v671q0 25 26 25h406zM479 659q0 12 -12 12h-332q-12 0 -12 -12
v-264q0 -12 12 -12h332q12 0 12 12v264zM308 -23q20 0 34 -12.5t14 -35.5q0 -25 -5.5 -50.5t-15 -46.5t-23 -34t-29.5 -13q-13 0 -13 13q0 8 3.5 15t8 14t8.5 15.5t4 19.5q0 9 -5.5 18t-12 18.5t-12 19.5t-5.5 21q0 16 13.5 27t35.5 11z" />
    <glyph glyph-name="rcommaaccent" unicode="&#x157;" 
d="M79 0zM253 508q15 0 30 -25q16 25 36 25h191q26 0 26 -26v-101q0 -26 -26 -26q-25 0 -25 26v64q0 12 -12 12h-139q-24 0 -40 -17t-16 -39v-338q0 -12 12 -12h132q25 0 25 -25q0 -26 -25 -26h-317q-26 0 -26 26q0 25 26 25h111q11 0 11 12v382q0 12 -11 12h-100
q-25 0 -25 25q0 26 25 26h137zM254 -23q20 0 34 -12.5t14 -35.5q0 -25 -5.5 -50.5t-15 -46.5t-23 -34t-29.5 -13q-13 0 -13 13q0 8 3.5 15t8 14t8.5 15.5t4 19.5q0 9 -5.5 18t-12 18.5t-12 19.5t-5.5 21q0 16 13.5 27t35.5 11z" />
    <glyph glyph-name="Rcaron" unicode="&#x158;" 
d="M72 0zM504 722q26 0 26 -25v-339q0 -26 -26 -26h-62q-12 0 -12 -10q0 -5 1 -6l110 -280q2 -8 2 -10q0 -26 -27 -26q-18 0 -22 16l-121 308q-5 8 -12 8h-226q-12 0 -12 -12v-294q0 -26 -25 -26q-26 0 -26 26v671q0 25 26 25h406zM479 659q0 12 -12 12h-332q-12 0 -12 -12
v-264q0 -12 12 -12h332q12 0 12 12v264zM308 801q-9 0 -19.5 7.5t-25.5 23.5l-94 99q-6 4 -6 12q0 19 19 19q7 0 13 -6l107 -107q2 -2 6 -2q3 0 5 2l108 107q4 6 12 6q19 0 19 -19q0 -8 -6 -12l-95 -99q-30 -31 -43 -31z" />
    <glyph glyph-name="rcaron" unicode="&#x159;" 
d="M79 0zM253 508q15 0 30 -25q16 25 36 25h191q26 0 26 -26v-101q0 -26 -26 -26q-25 0 -25 26v64q0 12 -12 12h-139q-24 0 -40 -17t-16 -39v-338q0 -12 12 -12h132q25 0 25 -25q0 -26 -25 -26h-317q-26 0 -26 26q0 25 26 25h111q11 0 11 12v382q0 12 -11 12h-100
q-25 0 -25 25q0 26 25 26h137zM308 588q-9 0 -19.5 7.5t-25.5 23.5l-94 99q-6 4 -6 12q0 19 19 19q7 0 13 -6l107 -107q2 -2 6 -2q3 0 5 2l108 107q4 6 12 6q19 0 19 -19q0 -8 -6 -12l-95 -99q-30 -31 -43 -31z" />
    <glyph glyph-name="Sacute" unicode="&#x15a;" 
d="M84 0zM506 722q25 0 25 -25v-77q0 -26 -25 -26q-26 0 -26 26v39q0 12 -12 12h-319q-12 0 -12 -12v-255q0 -11 12 -11h357q25 0 25 -26v-341q0 -26 -25 -26h-396q-26 0 -26 26v94q0 26 26 26q25 0 25 -26v-57q0 -12 12 -12h321q12 0 12 12v267q0 11 -12 11h-356
q-26 0 -26 26v330q0 25 26 25h394zM332 964q9 13 23 13q27 0 27 -22q0 -7 -5 -14l-94 -142q-10 -13 -23 -13q-28 0 -28 22q0 10 4 14z" />
    <glyph glyph-name="sacute" unicode="&#x15b;" 
d="M84 0zM468 508q26 0 44.5 -17.5t18.5 -45.5v-42q0 -26 -25 -26q-26 0 -26 26v42q0 12 -12 12h-321q-12 0 -12 -12v-132q0 -11 12 -11h322q62 0 62 -52v-187q0 -26 -17 -44.5t-46 -18.5h-321q-63 0 -63 63v64q0 26 26 26q25 0 25 -26v-64q0 -12 12 -12h321q12 0 12 12v176
q0 11 -12 11h-321q-63 0 -63 63v132q0 12 5.5 23t14 20t20 14.5t23.5 5.5h321zM332 751q9 13 23 13q27 0 27 -22q0 -7 -5 -14l-94 -142q-10 -13 -23 -13q-28 0 -28 22q0 10 4 14z" />
    <glyph glyph-name="Scircumflex" unicode="&#x15c;" 
d="M84 0zM506 722q25 0 25 -25v-77q0 -26 -25 -26q-26 0 -26 26v39q0 12 -12 12h-319q-12 0 -12 -12v-255q0 -11 12 -11h357q25 0 25 -26v-341q0 -26 -25 -26h-396q-26 0 -26 26v94q0 26 26 26q25 0 25 -26v-57q0 -12 12 -12h321q12 0 12 12v267q0 11 -12 11h-356
q-26 0 -26 26v330q0 25 26 25h394zM308 962q5 -3 17 -9t27 -21l94 -99q6 -6 6 -13q0 -19 -19 -19q-6 0 -12 6l-108 107q-3 3 -5 3q-3 0 -6 -3l-107 -107q-8 -6 -13 -6q-19 0 -19 19q0 7 6 13l95 99q28 30 44 30z" />
    <glyph glyph-name="scircumflex" unicode="&#x15d;" 
d="M84 0zM468 508q26 0 44.5 -17.5t18.5 -45.5v-42q0 -26 -25 -26q-26 0 -26 26v42q0 12 -12 12h-321q-12 0 -12 -12v-132q0 -11 12 -11h322q62 0 62 -52v-187q0 -26 -17 -44.5t-46 -18.5h-321q-63 0 -63 63v64q0 26 26 26q25 0 25 -26v-64q0 -12 12 -12h321q12 0 12 12v176
q0 11 -12 11h-321q-63 0 -63 63v132q0 12 5.5 23t14 20t20 14.5t23.5 5.5h321zM308 749q5 -3 17 -9t27 -21l94 -99q6 -6 6 -13q0 -19 -19 -19q-6 0 -12 6l-108 107q-3 3 -5 3q-3 0 -6 -3l-107 -107q-8 -6 -13 -6q-19 0 -19 19q0 7 6 13l95 99q28 30 44 30z" />
    <glyph glyph-name="Scedilla" unicode="&#x15e;" 
d="M84 0zM506 722q25 0 25 -25v-77q0 -26 -25 -26q-26 0 -26 26v39q0 12 -12 12h-319q-12 0 -12 -12v-255q0 -11 12 -11h357q25 0 25 -26v-341q0 -26 -25 -26h-396q-26 0 -26 26v94q0 26 26 26q25 0 25 -26v-57q0 -12 12 -12h321q12 0 12 12v267q0 11 -12 11h-356
q-26 0 -26 26v330q0 25 26 25h394zM308 -23q20 0 34 -12.5t14 -35.5q0 -25 -5.5 -50.5t-15 -46.5t-23 -34t-29.5 -13q-13 0 -13 13q0 8 3.5 15t8 14t8.5 15.5t4 19.5q0 9 -5.5 18t-12 18.5t-12 19.5t-5.5 21q0 16 13.5 27t35.5 11z" />
    <glyph glyph-name="scedilla" unicode="&#x15f;" 
d="M84 0zM468 508q26 0 44.5 -17.5t18.5 -45.5v-42q0 -26 -25 -26q-26 0 -26 26v42q0 12 -12 12h-321q-12 0 -12 -12v-132q0 -11 12 -11h322q62 0 62 -52v-187q0 -26 -17 -44.5t-46 -18.5h-321q-63 0 -63 63v64q0 26 26 26q25 0 25 -26v-64q0 -12 12 -12h321q12 0 12 12v176
q0 11 -12 11h-321q-63 0 -63 63v132q0 12 5.5 23t14 20t20 14.5t23.5 5.5h321zM308 -23q20 0 34 -12.5t14 -35.5q0 -25 -5.5 -50.5t-15 -46.5t-23 -34t-29.5 -13q-13 0 -13 13q0 8 3.5 15t8 14t8.5 15.5t4 19.5q0 9 -5.5 18t-12 18.5t-12 19.5t-5.5 21q0 16 13.5 27t35.5 11
z" />
    <glyph glyph-name="Scaron" unicode="&#x160;" 
d="M84 0zM506 722q25 0 25 -25v-77q0 -26 -25 -26q-26 0 -26 26v39q0 12 -12 12h-319q-12 0 -12 -12v-255q0 -11 12 -11h357q25 0 25 -26v-341q0 -26 -25 -26h-396q-26 0 -26 26v94q0 26 26 26q25 0 25 -26v-57q0 -12 12 -12h321q12 0 12 12v267q0 11 -12 11h-356
q-26 0 -26 26v330q0 25 26 25h394zM308 802q-9 0 -19.5 7.5t-25.5 23.5l-94 99q-6 4 -6 12q0 19 19 19q7 0 13 -6l107 -107q2 -2 6 -2q3 0 5 2l108 107q4 6 12 6q19 0 19 -19q0 -8 -6 -12l-95 -99q-30 -31 -43 -31z" />
    <glyph glyph-name="scaron" unicode="&#x161;" 
d="M84 0zM468 508q26 0 44.5 -17.5t18.5 -45.5v-42q0 -26 -25 -26q-26 0 -26 26v42q0 12 -12 12h-321q-12 0 -12 -12v-132q0 -11 12 -11h322q62 0 62 -52v-187q0 -26 -17 -44.5t-46 -18.5h-321q-63 0 -63 63v64q0 26 26 26q25 0 25 -26v-64q0 -12 12 -12h321q12 0 12 12v176
q0 11 -12 11h-321q-63 0 -63 63v132q0 12 5.5 23t14 20t20 14.5t23.5 5.5h321zM308 588q-9 0 -19.5 7.5t-25.5 23.5l-94 99q-6 4 -6 12q0 19 19 19q7 0 13 -6l107 -107q2 -2 6 -2q3 0 5 2l108 107q4 6 12 6q19 0 19 -19q0 -8 -6 -12l-95 -99q-30 -31 -43 -31z" />
    <glyph glyph-name="Tcommaaccent" unicode="&#x162;" 
d="M62 0zM528 722q25 0 25 -25q0 -26 -25 -26h-184q-12 0 -12 -12v-633q0 -26 -26 -26q-25 0 -25 26v633q0 12 -12 12h-182q-25 0 -25 26q0 25 25 25h441zM308 -23q20 0 34 -12.5t14 -35.5q0 -25 -5.5 -50.5t-15 -46.5t-23 -34t-29.5 -13q-13 0 -13 13q0 8 3.5 15t8 14
t8.5 15.5t4 19.5q0 9 -5.5 18t-12 18.5t-12 19.5t-5.5 21q0 16 13.5 27t35.5 11z" />
    <glyph glyph-name="tcommaaccent" unicode="&#x163;" 
d="M100 0zM199 508q12 0 12 12v177q0 25 25 25q26 0 26 -25v-177q0 -12 12 -12h215q26 0 26 -26q0 -25 -26 -25h-215q-12 0 -12 -12v-382q0 -12 12 -12h178q12 0 12 12v106q0 26 25 26q26 0 26 -26v-106q0 -26 -20 -44.5t-43 -18.5h-178q-11 0 -22 5.5t-20 14t-15 20
t-6 23.5v382q0 12 -12 12h-73q-26 0 -26 25q0 26 26 26h73zM358 -23q20 0 34 -12.5t14 -35.5q0 -25 -5.5 -50.5t-15 -46.5t-23 -34t-29.5 -13q-13 0 -13 13q0 8 3.5 15t8 14t8.5 15.5t4 19.5q0 9 -5.5 18t-12 18.5t-12 19.5t-5.5 21q0 16 13.5 27t35.5 11z" />
    <glyph glyph-name="Tcaron" unicode="&#x164;" 
d="M62 0zM528 722q25 0 25 -25q0 -26 -25 -26h-184q-12 0 -12 -12v-633q0 -26 -26 -26q-25 0 -25 26v633q0 12 -12 12h-182q-25 0 -25 26q0 25 25 25h441zM308 801q-9 0 -19.5 7.5t-25.5 23.5l-94 99q-6 4 -6 12q0 19 19 19q7 0 13 -6l107 -107q2 -2 6 -2q3 0 5 2l108 107
q4 6 12 6q19 0 19 -19q0 -8 -6 -12l-95 -99q-30 -31 -43 -31z" />
    <glyph glyph-name="tcaron" unicode="&#x165;" 
d="M19 0zM118 508q12 0 12 12v177q0 25 25 25q26 0 26 -25v-177q0 -12 12 -12h215q26 0 26 -26q0 -25 -26 -25h-215q-12 0 -12 -12v-382q0 -12 12 -12h178q12 0 12 12v106q0 26 25 26q26 0 26 -26v-106q0 -26 -20 -44.5t-43 -18.5h-178q-11 0 -22 5.5t-20 14t-15 20t-6 23.5
v382q0 12 -12 12h-73q-26 0 -26 25q0 26 26 26h73zM553 800q25 0 43.5 -16.5t18.5 -46.5q0 -48 -7 -94t-19.5 -82t-29.5 -58t-38 -22q-17 0 -17 21q0 13 5 24.5t10.5 24t10.5 26.5t5 32q0 16 -7 31t-15.5 30t-15.5 31.5t-7 35.5q0 26 17.5 44.5t45.5 18.5z" />
    <glyph glyph-name="Tbar" unicode="&#x166;" 
d="M280 402v257q0 12 -12 12h-181q-25 0 -25 26q0 25 25 25h441q25 0 25 -25q0 -26 -25 -26h-185q-12 0 -12 -12v-257h175q25 0 25 -26q0 -25 -25 -25h-175v-325q0 -26 -26 -26q-25 0 -25 26v325h-170q-26 0 -26 25q0 26 26 26h170z" />
    <glyph glyph-name="tbar" unicode="&#x167;" 
d="M211 349v96q0 12 -12 12h-73q-26 0 -26 25q0 26 26 26h73q12 0 12 12v177q0 25 25 25q26 0 26 -25v-177q0 -12 12 -12h215q26 0 26 -26q0 -25 -26 -25h-215q-12 0 -12 -12v-96h227q25 0 25 -26q0 -25 -25 -25h-227v-235q0 -12 12 -12h178q12 0 12 12v106q0 26 25 26
q26 0 26 -26v-106q0 -26 -20 -44.5t-43 -18.5h-178q-11 0 -22 5.5t-20 14t-15 20t-6 23.5v235h-92q-26 0 -26 25q0 26 26 26h92z" />
    <glyph glyph-name="Utilde" unicode="&#x168;" 
d="M72 0zM98 722q25 0 25 -25v-618q0 -28 26 -28h323q20 0 20 28v618q0 25 25 25q26 0 26 -25v-618q0 -32 -20 -55.5t-51 -23.5h-323q-31 0 -54 22t-23 57v618q0 25 26 25zM231 921q19 0 41 -9.5t43 -21t38.5 -21t28.5 -9.5q10 0 22 8.5t23 19t20 19t14 8.5q26 0 26 -24
q0 -13 -10 -27.5t-26 -27t-34.5 -20.5t-34.5 -8q-18 0 -39.5 9.5t-42.5 21.5t-39 21.5t-30 9.5q-15 0 -26.5 -9.5t-21 -21.5t-16.5 -21.5t-13 -9.5q-27 0 -27 27q0 13 9 28t23.5 28t33 21.5t38.5 8.5z" />
    <glyph glyph-name="utilde" unicode="&#x169;" 
d="M84 0zM110 508q25 0 25 -26v-385q0 -20 12.5 -33t26.5 -13h294q12 0 12 12v419q0 26 26 26q25 0 25 -26v-482h-357q-18 0 -34 7.5t-28.5 20.5t-20 30.5t-7.5 38.5v385q0 26 26 26zM231 708q19 0 41 -9.5t43 -21t38.5 -21t28.5 -9.5q10 0 22 8.5t23 19t20 19t14 8.5
q26 0 26 -24q0 -13 -10 -27.5t-26 -27t-34.5 -20.5t-34.5 -8q-18 0 -39.5 9.5t-42.5 21.5t-39 21.5t-30 9.5q-15 0 -26.5 -9.5t-21 -21.5t-16.5 -21.5t-13 -9.5q-27 0 -27 27q0 13 9 28t23.5 28t33 21.5t38.5 8.5z" />
    <glyph glyph-name="Umacron" unicode="&#x16a;" 
d="M72 0zM98 722q25 0 25 -25v-618q0 -28 26 -28h323q20 0 20 28v618q0 25 25 25q26 0 26 -25v-618q0 -32 -20 -55.5t-51 -23.5h-323q-31 0 -54 22t-23 57v618q0 25 26 25zM506 888q25 0 25 -26q0 -25 -25 -25h-396q-26 0 -26 25q0 26 26 26h396z" />
    <glyph glyph-name="umacron" unicode="&#x16b;" 
d="M84 0zM110 508q25 0 25 -26v-385q0 -20 12.5 -33t26.5 -13h294q12 0 12 12v419q0 26 26 26q25 0 25 -26v-482h-357q-18 0 -34 7.5t-28.5 20.5t-20 30.5t-7.5 38.5v385q0 26 26 26zM506 675q25 0 25 -26q0 -25 -25 -25h-396q-26 0 -26 25q0 26 26 26h396z" />
    <glyph glyph-name="Ubreve" unicode="&#x16c;" 
d="M72 0zM98 722q25 0 25 -25v-618q0 -28 26 -28h323q20 0 20 28v618q0 25 25 25q26 0 26 -25v-618q0 -32 -20 -55.5t-51 -23.5h-323q-31 0 -54 22t-23 57v618q0 25 26 25zM308 815q39 0 63.5 11t39 28.5t21.5 39t10 42.5q3 18 20 18q19 0 19 -19q0 -25 -9 -53.5t-29.5 -53
t-53.5 -41t-81 -16.5t-81 16.5t-53.5 41t-29.5 53t-9 53.5q0 19 19 19q17 0 20 -18q3 -21 10 -42.5t21.5 -39t39 -28.5t63.5 -11z" />
    <glyph glyph-name="ubreve" unicode="&#x16d;" 
d="M84 0zM110 508q25 0 25 -26v-385q0 -20 12.5 -33t26.5 -13h294q12 0 12 12v419q0 26 26 26q25 0 25 -26v-482h-357q-18 0 -34 7.5t-28.5 20.5t-20 30.5t-7.5 38.5v385q0 26 26 26zM308 602q39 0 63.5 11t39 28.5t21.5 39t10 42.5q3 18 20 18q19 0 19 -19q0 -25 -9 -53.5
t-29.5 -53t-53.5 -41t-81 -16.5t-81 16.5t-53.5 41t-29.5 53t-9 53.5q0 19 19 19q17 0 20 -18q3 -21 10 -42.5t21.5 -39t39 -28.5t63.5 -11z" />
    <glyph glyph-name="Uring" unicode="&#x16e;" 
d="M72 0zM98 722q25 0 25 -25v-618q0 -28 26 -28h323q20 0 20 28v618q0 25 25 25q26 0 26 -25v-618q0 -32 -20 -55.5t-51 -23.5h-323q-31 0 -54 22t-23 57v618q0 25 26 25zM308 922q38 0 63.5 -26.5t25.5 -65.5q0 -38 -25.5 -65t-63.5 -27q-19 0 -35.5 7.5t-28.5 20t-19 29
t-7 35.5q0 39 26 65.5t64 26.5zM308 882q-21 0 -36.5 -14.5t-15.5 -35.5t15.5 -36.5t36.5 -15.5q22 0 37 15.5t15 36.5t-15 35.5t-37 14.5z" />
    <glyph glyph-name="uring" unicode="&#x16f;" 
d="M84 0zM110 508q25 0 25 -26v-385q0 -20 12.5 -33t26.5 -13h294q12 0 12 12v419q0 26 26 26q25 0 25 -26v-482h-357q-18 0 -34 7.5t-28.5 20.5t-20 30.5t-7.5 38.5v385q0 26 26 26zM308 709q38 0 63.5 -26.5t25.5 -65.5q0 -38 -25.5 -65t-63.5 -27q-19 0 -35.5 7.5
t-28.5 20t-19 29t-7 35.5q0 39 26 65.5t64 26.5zM308 669q-21 0 -36.5 -14.5t-15.5 -35.5t15.5 -36.5t36.5 -15.5q22 0 37 15.5t15 36.5t-15 35.5t-37 14.5z" />
    <glyph glyph-name="Uhungarumlaut" unicode="&#x170;" 
d="M72 0zM98 722q25 0 25 -25v-618q0 -28 26 -28h323q20 0 20 28v618q0 25 25 25q26 0 26 -25v-618q0 -32 -20 -55.5t-51 -23.5h-323q-31 0 -54 22t-23 57v618q0 25 26 25zM446 952q18 0 18 -16q0 -4 -3 -10l-76 -126q-5 -9 -15 -9q-19 0 -19 17q0 5 4 10l75 124q6 10 16 10
zM246 952q18 0 18 -16q0 -4 -3 -10l-76 -126q-5 -9 -15 -9q-19 0 -19 17q0 5 4 10l75 124q6 10 16 10z" />
    <glyph glyph-name="uhungarumlaut" unicode="&#x171;" 
d="M84 0zM110 508q25 0 25 -26v-385q0 -20 12.5 -33t26.5 -13h294q12 0 12 12v419q0 26 26 26q25 0 25 -26v-482h-357q-18 0 -34 7.5t-28.5 20.5t-20 30.5t-7.5 38.5v385q0 26 26 26zM446 739q18 0 18 -16q0 -4 -3 -10l-76 -126q-5 -9 -15 -9q-19 0 -19 17q0 5 4 10l75 124
q6 10 16 10zM246 739q18 0 18 -16q0 -4 -3 -10l-76 -126q-5 -9 -15 -9q-19 0 -19 17q0 5 4 10l75 124q6 10 16 10z" />
    <glyph glyph-name="Uogonek" unicode="&#x172;" 
d="M98 722q25 0 25 -25v-618q0 -28 26 -28h323q20 0 20 28v618q0 25 25 25q26 0 26 -25v-618q0 -32 -20 -55.5t-51 -23.5h-44l-194 -163h169q26 0 26 -26q0 -25 -26 -25h-195q-25 0 -25 25v17q0 18 18 30l177 142h-229q-31 0 -54 22t-23 57v618q0 25 26 25z" />
    <glyph glyph-name="uogonek" unicode="&#x173;" 
d="M110 508q25 0 25 -26v-385q0 -20 12.5 -33t26.5 -13h294q12 0 12 12v419q0 26 26 26q25 0 25 -26v-482l-194 -163h169q26 0 26 -26q0 -25 -26 -25h-195q-25 0 -25 25v17q0 18 18 30l177 142h-307q-18 0 -34 7.5t-28.5 20.5t-20 30.5t-7.5 38.5v385q0 26 26 26z" />
    <glyph glyph-name="Wcircumflex" unicode="&#x174;" 
d="M62 0zM87 722q26 0 26 -25v-619q0 -27 27 -27h114q33 0 33 32v371q0 26 25 26q26 0 26 -26v-371q0 -32 36 -32h106q22 0 22 27v619q0 25 26 25q25 0 25 -25v-619q0 -35 -22 -56.5t-51 -21.5h-112q-41 0 -53 30q-15 -30 -58 -30h-117q-36 0 -57 22t-21 56v619q0 25 25 25z
M308 962q5 -3 17 -9t27 -21l94 -99q6 -6 6 -13q0 -19 -19 -19q-6 0 -12 6l-108 107q-3 3 -5 3q-3 0 -6 -3l-107 -107q-8 -6 -13 -6q-19 0 -19 19q0 7 6 13l95 99q28 30 44 30z" />
    <glyph glyph-name="wcircumflex" unicode="&#x175;" 
d="M59 0zM85 508q26 0 26 -26v-385q0 -20 12 -33t26 -13h91q42 0 42 40v191q0 26 26 26q25 0 25 -26v-191q0 -40 39 -40h95q37 0 37 40v391q0 26 26 26t26 -26v-391q0 -42 -23.5 -66.5t-65.5 -24.5h-115q-34 0 -43 34q-12 -34 -45 -34h-115q-17 0 -33.5 7.5t-29 20.5
t-20 30.5t-7.5 38.5v385q0 26 26 26zM308 749q5 -3 17 -9t27 -21l94 -99q6 -6 6 -13q0 -19 -19 -19q-6 0 -12 6l-108 107q-3 3 -5 3q-3 0 -6 -3l-107 -107q-8 -6 -13 -6q-19 0 -19 19q0 7 6 13l95 99q28 30 44 30z" />
    <glyph glyph-name="Ycircumflex" unicode="&#x176;" 
d="M70 0zM97 722q14 0 22 -15l177 -378q4 -10 10 -10q8 0 11 10l179 378q7 15 22 15q27 0 27 -24q0 -2 -2 -12l-209 -445v-215q0 -26 -25 -26q-26 0 -26 26v215l-211 445q-2 10 -2 12q0 24 27 24zM308 962q5 -3 17 -9t27 -21l94 -99q6 -6 6 -13q0 -19 -19 -19q-6 0 -12 6
l-108 107q-3 3 -5 3q-3 0 -6 -3l-107 -107q-8 -6 -13 -6q-19 0 -19 19q0 7 6 13l95 99q28 30 44 30z" />
    <glyph glyph-name="ycircumflex" unicode="&#x177;" 
d="M65 0zM522 509q27 0 27 -24q0 -5 -3 -11l-249 -632q-23 -56 -59 -56h-78q-25 0 -25 26q0 25 25 25h51q35 0 50 40l42 115q0 9 -12 9h-18q-18 0 -24 15l-181 458q-3 6 -3 9q0 26 27 26q17 0 23 -16l173 -434q4 -12 21 -12q14 0 20 12l170 434q6 16 23 16zM308 749
q5 -3 17 -9t27 -21l94 -99q6 -6 6 -13q0 -19 -19 -19q-6 0 -12 6l-108 107q-3 3 -5 3q-3 0 -6 -3l-107 -107q-8 -6 -13 -6q-19 0 -19 19q0 7 6 13l95 99q28 30 44 30z" />
    <glyph glyph-name="Ydieresis" unicode="&#x178;" 
d="M70 0zM97 722q14 0 22 -15l177 -378q4 -10 10 -10q8 0 11 10l179 378q7 15 22 15q27 0 27 -24q0 -2 -2 -12l-209 -445v-215q0 -26 -25 -26q-26 0 -26 26v215l-211 445q-2 10 -2 12q0 24 27 24zM402 911q25 0 41.5 -16t16.5 -37q0 -22 -16.5 -37.5t-41.5 -15.5t-41.5 15.5
t-16.5 37.5q0 21 16.5 37t41.5 16zM212 911q25 0 41.5 -16t16.5 -37q0 -22 -16.5 -37.5t-41.5 -15.5t-41.5 15.5t-16.5 37.5q0 21 16.5 37t41.5 16z" />
    <glyph glyph-name="Zacute" unicode="&#x179;" 
d="M89 0zM467 722q33 0 33 -28q0 -12 -10 -29l-326 -596q-2 -8 -2 -7q0 -11 13 -11h325q25 0 25 -25q0 -26 -25 -26h-388q-23 0 -23 28q0 14 9 29l318 597q1 1 1 7q0 10 -12 10h-276q-25 0 -25 26q0 25 25 25h338zM332 964q9 13 23 13q27 0 27 -22q0 -7 -5 -14l-94 -142
q-10 -13 -23 -13q-28 0 -28 22q0 10 4 14z" />
    <glyph glyph-name="zacute" unicode="&#x17a;" 
d="M107 0zM520 26q0 -26 -26 -26h-358q-29 0 -29 20q0 10 8 21l300 397q3 6 3 8q0 11 -13 11h-263q-26 0 -26 25q0 26 26 26h337q29 0 29 -20q0 -11 -8 -21l-300 -397q-3 -6 -3 -8q0 -11 13 -11h284q26 0 26 -25zM332 751q9 13 23 13q27 0 27 -22q0 -7 -5 -14l-94 -142
q-10 -13 -23 -13q-28 0 -28 22q0 10 4 14z" />
    <glyph glyph-name="Zdotaccent" unicode="&#x17b;" 
d="M89 0zM467 722q33 0 33 -28q0 -12 -10 -29l-326 -596q-2 -8 -2 -7q0 -11 13 -11h325q25 0 25 -25q0 -26 -25 -26h-388q-23 0 -23 28q0 14 9 29l318 597q1 1 1 7q0 10 -12 10h-276q-25 0 -25 26q0 25 25 25h338zM307 910q25 0 41.5 -16t16.5 -37q0 -22 -16.5 -37.5
t-41.5 -15.5t-41.5 15.5t-16.5 37.5q0 21 16.5 37t41.5 16z" />
    <glyph glyph-name="zdotaccent" unicode="&#x17c;" 
d="M107 0zM520 26q0 -26 -26 -26h-358q-29 0 -29 20q0 10 8 21l300 397q3 6 3 8q0 11 -13 11h-263q-26 0 -26 25q0 26 26 26h337q29 0 29 -20q0 -11 -8 -21l-300 -397q-3 -6 -3 -8q0 -11 13 -11h284q26 0 26 -25zM307 697q25 0 41.5 -16t16.5 -37q0 -22 -16.5 -37.5
t-41.5 -15.5t-41.5 15.5t-16.5 37.5q0 21 16.5 37t41.5 16z" />
    <glyph glyph-name="Zcaron" unicode="&#x17d;" 
d="M89 0zM467 722q33 0 33 -28q0 -12 -10 -29l-326 -596q-2 -8 -2 -7q0 -11 13 -11h325q25 0 25 -25q0 -26 -25 -26h-388q-23 0 -23 28q0 14 9 29l318 597q1 1 1 7q0 10 -12 10h-276q-25 0 -25 26q0 25 25 25h338zM308 802q-9 0 -19.5 7.5t-25.5 23.5l-94 99q-6 4 -6 12
q0 19 19 19q7 0 13 -6l107 -107q2 -2 6 -2q3 0 5 2l108 107q4 6 12 6q19 0 19 -19q0 -8 -6 -12l-95 -99q-30 -31 -43 -31z" />
    <glyph glyph-name="zcaron" unicode="&#x17e;" 
d="M107 0zM520 26q0 -26 -26 -26h-358q-29 0 -29 20q0 10 8 21l300 397q3 6 3 8q0 11 -13 11h-263q-26 0 -26 25q0 26 26 26h337q29 0 29 -20q0 -11 -8 -21l-300 -397q-3 -6 -3 -8q0 -11 13 -11h284q26 0 26 -25zM308 588q-9 0 -19.5 7.5t-25.5 23.5l-94 99q-6 4 -6 12
q0 19 19 19q7 0 13 -6l107 -107q2 -2 6 -2q3 0 5 2l108 107q4 6 12 6q19 0 19 -19q0 -8 -6 -12l-95 -99q-30 -31 -43 -31z" />
    <glyph glyph-name="Scommaaccent" unicode="&#x218;" 
d="M84 0zM506 722q25 0 25 -25v-77q0 -26 -25 -26q-26 0 -26 26v39q0 12 -12 12h-319q-12 0 -12 -12v-255q0 -11 12 -11h357q25 0 25 -26v-341q0 -26 -25 -26h-396q-26 0 -26 26v94q0 26 26 26q25 0 25 -26v-57q0 -12 12 -12h321q12 0 12 12v267q0 11 -12 11h-356
q-26 0 -26 26v330q0 25 26 25h394zM308 -23q20 0 34 -12.5t14 -35.5q0 -25 -5.5 -50.5t-15 -46.5t-23 -34t-29.5 -13q-13 0 -13 13q0 8 3.5 15t8 14t8.5 15.5t4 19.5q0 9 -5.5 18t-12 18.5t-12 19.5t-5.5 21q0 16 13.5 27t35.5 11z" />
    <glyph glyph-name="scommaaccent" unicode="&#x219;" 
d="M84 0zM468 508q26 0 44.5 -17.5t18.5 -45.5v-42q0 -26 -25 -26q-26 0 -26 26v42q0 12 -12 12h-321q-12 0 -12 -12v-132q0 -11 12 -11h322q62 0 62 -52v-187q0 -26 -17 -44.5t-46 -18.5h-321q-63 0 -63 63v64q0 26 26 26q25 0 25 -26v-64q0 -12 12 -12h321q12 0 12 12v176
q0 11 -12 11h-321q-63 0 -63 63v132q0 12 5.5 23t14 20t20 14.5t23.5 5.5h321zM308 -23q20 0 34 -12.5t14 -35.5q0 -25 -5.5 -50.5t-15 -46.5t-23 -34t-29.5 -13q-13 0 -13 13q0 8 3.5 15t8 14t8.5 15.5t4 19.5q0 9 -5.5 18t-12 18.5t-12 19.5t-5.5 21q0 16 13.5 27t35.5 11
z" />
    <glyph glyph-name="uni021A" unicode="&#x21a;" 
d="M62 0zM528 722q25 0 25 -25q0 -26 -25 -26h-184q-12 0 -12 -12v-633q0 -26 -26 -26q-25 0 -25 26v633q0 12 -12 12h-182q-25 0 -25 26q0 25 25 25h441zM308 -23q20 0 34 -12.5t14 -35.5q0 -25 -5.5 -50.5t-15 -46.5t-23 -34t-29.5 -13q-13 0 -13 13q0 8 3.5 15t8 14
t8.5 15.5t4 19.5q0 9 -5.5 18t-12 18.5t-12 19.5t-5.5 21q0 16 13.5 27t35.5 11z" />
    <glyph glyph-name="uni021B" unicode="&#x21b;" 
d="M100 0zM199 508q12 0 12 12v177q0 25 25 25q26 0 26 -25v-177q0 -12 12 -12h215q26 0 26 -26q0 -25 -26 -25h-215q-12 0 -12 -12v-382q0 -12 12 -12h178q12 0 12 12v106q0 26 25 26q26 0 26 -26v-106q0 -26 -20 -44.5t-43 -18.5h-178q-11 0 -22 5.5t-20 14t-15 20
t-6 23.5v382q0 12 -12 12h-73q-26 0 -26 25q0 26 26 26h73zM358 -23q20 0 34 -12.5t14 -35.5q0 -25 -5.5 -50.5t-15 -46.5t-23 -34t-29.5 -13q-13 0 -13 13q0 8 3.5 15t8 14t8.5 15.5t4 19.5q0 9 -5.5 18t-12 18.5t-12 19.5t-5.5 21q0 16 13.5 27t35.5 11z" />
    <glyph glyph-name="dotlessj" unicode="&#x237;" 
d="M466 508q26 0 26 -26v-671q0 -25 -26 -25h-332q-26 0 -26 25v83q0 26 26 26t26 -26v-45q0 -12 11 -12h258q11 0 11 12v596q0 12 -11 12h-119q-26 0 -26 25q0 26 26 26h156z" />
    <glyph glyph-name="circumflex" unicode="&#x2c6;" 
d="M308 749q5 -3 17 -9t27 -21l94 -99q6 -6 6 -13q0 -19 -19 -19q-6 0 -12 6l-108 107q-3 3 -5 3q-3 0 -6 -3l-107 -107q-8 -6 -13 -6q-19 0 -19 19q0 7 6 13l95 99q28 30 44 30z" />
    <glyph glyph-name="caron" unicode="&#x2c7;" 
d="M308 588q-9 0 -19.5 7.5t-25.5 23.5l-94 99q-6 4 -6 12q0 19 19 19q7 0 13 -6l107 -107q2 -2 6 -2q3 0 5 2l108 107q4 6 12 6q19 0 19 -19q0 -8 -6 -12l-95 -99q-30 -31 -43 -31z" />
    <glyph glyph-name="breve" unicode="&#x2d8;" 
d="M308 602q39 0 63.5 11t39 28.5t21.5 39t10 42.5q3 18 20 18q19 0 19 -19q0 -25 -9 -53.5t-29.5 -53t-53.5 -41t-81 -16.5t-81 16.5t-53.5 41t-29.5 53t-9 53.5q0 19 19 19q17 0 20 -18q3 -21 10 -42.5t21.5 -39t39 -28.5t63.5 -11z" />
    <glyph glyph-name="dotaccent" unicode="&#x2d9;" 
d="M307 697q25 0 41.5 -16t16.5 -37q0 -22 -16.5 -37.5t-41.5 -15.5t-41.5 15.5t-16.5 37.5q0 21 16.5 37t41.5 16z" />
    <glyph glyph-name="ring" unicode="&#x2da;" 
d="M308 709q38 0 63.5 -26.5t25.5 -65.5q0 -38 -25.5 -65t-63.5 -27q-19 0 -35.5 7.5t-28.5 20t-19 29t-7 35.5q0 39 26 65.5t64 26.5zM308 669q-21 0 -36.5 -14.5t-15.5 -35.5t15.5 -36.5t36.5 -15.5q22 0 37 15.5t15 36.5t-15 35.5t-37 14.5z" />
    <glyph glyph-name="ogonek" unicode="&#x2db;" horiz-adv-x="601" 
d="M418 13q6 0 6 -7q0 -3 -3 -6l-194 -163h169q26 0 26 -26q0 -25 -26 -25h-195q-25 0 -25 25v17q0 18 18 30l177 142q6 5 13.5 9t15.5 4h18z" />
    <glyph glyph-name="tilde" unicode="&#x2dc;" 
d="M231 708q19 0 41 -9.5t43 -21t38.5 -21t28.5 -9.5q10 0 22 8.5t23 19t20 19t14 8.5q26 0 26 -24q0 -13 -10 -27.5t-26 -27t-34.5 -20.5t-34.5 -8q-18 0 -39.5 9.5t-42.5 21.5t-39 21.5t-30 9.5q-15 0 -26.5 -9.5t-21 -21.5t-16.5 -21.5t-13 -9.5q-27 0 -27 27q0 13 9 28
t23.5 28t33 21.5t38.5 8.5z" />
    <glyph glyph-name="hungarumlaut" unicode="&#x2dd;" 
d="M446 739q18 0 18 -16q0 -4 -3 -10l-76 -126q-5 -9 -15 -9q-19 0 -19 17q0 5 4 10l75 124q6 10 16 10zM246 739q18 0 18 -16q0 -4 -3 -10l-76 -126q-5 -9 -15 -9q-19 0 -19 17q0 5 4 10l75 124q6 10 16 10z" />
    <glyph glyph-name="Wgrave" unicode="&#x1e80;" 
d="M62 0zM87 722q26 0 26 -25v-619q0 -27 27 -27h114q33 0 33 32v371q0 26 25 26q26 0 26 -26v-371q0 -32 36 -32h106q22 0 22 27v619q0 25 26 25q25 0 25 -25v-619q0 -35 -22 -56.5t-51 -21.5h-112q-41 0 -53 30q-15 -30 -58 -30h-117q-36 0 -57 22t-21 56v619q0 25 25 25z
M259 977q14 0 23 -13l95 -142q5 -5 5 -14q0 -22 -28 -22q-13 0 -23 13l-95 142q-4 7 -4 14q0 22 27 22z" />
    <glyph glyph-name="wgrave" unicode="&#x1e81;" 
d="M59 0zM85 508q26 0 26 -26v-385q0 -20 12 -33t26 -13h91q42 0 42 40v191q0 26 26 26q25 0 25 -26v-191q0 -40 39 -40h95q37 0 37 40v391q0 26 26 26t26 -26v-391q0 -42 -23.5 -66.5t-65.5 -24.5h-115q-34 0 -43 34q-12 -34 -45 -34h-115q-17 0 -33.5 7.5t-29 20.5
t-20 30.5t-7.5 38.5v385q0 26 26 26zM259 764q14 0 23 -13l95 -142q5 -5 5 -14q0 -22 -28 -22q-13 0 -23 13l-95 142q-4 7 -4 14q0 22 27 22z" />
    <glyph glyph-name="Wacute" unicode="&#x1e82;" 
d="M62 0zM87 722q26 0 26 -25v-619q0 -27 27 -27h114q33 0 33 32v371q0 26 25 26q26 0 26 -26v-371q0 -32 36 -32h106q22 0 22 27v619q0 25 26 25q25 0 25 -25v-619q0 -35 -22 -56.5t-51 -21.5h-112q-41 0 -53 30q-15 -30 -58 -30h-117q-36 0 -57 22t-21 56v619q0 25 25 25z
M332 964q9 13 23 13q27 0 27 -22q0 -7 -5 -14l-94 -142q-10 -13 -23 -13q-28 0 -28 22q0 10 4 14z" />
    <glyph glyph-name="wacute" unicode="&#x1e83;" 
d="M59 0zM85 508q26 0 26 -26v-385q0 -20 12 -33t26 -13h91q42 0 42 40v191q0 26 26 26q25 0 25 -26v-191q0 -40 39 -40h95q37 0 37 40v391q0 26 26 26t26 -26v-391q0 -42 -23.5 -66.5t-65.5 -24.5h-115q-34 0 -43 34q-12 -34 -45 -34h-115q-17 0 -33.5 7.5t-29 20.5
t-20 30.5t-7.5 38.5v385q0 26 26 26zM332 751q9 13 23 13q27 0 27 -22q0 -7 -5 -14l-94 -142q-10 -13 -23 -13q-28 0 -28 22q0 10 4 14z" />
    <glyph glyph-name="Wdieresis" unicode="&#x1e84;" 
d="M62 0zM87 722q26 0 26 -25v-619q0 -27 27 -27h114q33 0 33 32v371q0 26 25 26q26 0 26 -26v-371q0 -32 36 -32h106q22 0 22 27v619q0 25 26 25q25 0 25 -25v-619q0 -35 -22 -56.5t-51 -21.5h-112q-41 0 -53 30q-15 -30 -58 -30h-117q-36 0 -57 22t-21 56v619q0 25 25 25z
M402 910q25 0 41.5 -16t16.5 -37q0 -22 -16.5 -37.5t-41.5 -15.5t-41.5 15.5t-16.5 37.5q0 21 16.5 37t41.5 16zM212 910q25 0 41.5 -16t16.5 -37q0 -22 -16.5 -37.5t-41.5 -15.5t-41.5 15.5t-16.5 37.5q0 21 16.5 37t41.5 16z" />
    <glyph glyph-name="wdieresis" unicode="&#x1e85;" 
d="M59 0zM85 508q26 0 26 -26v-385q0 -20 12 -33t26 -13h91q42 0 42 40v191q0 26 26 26q25 0 25 -26v-191q0 -40 39 -40h95q37 0 37 40v391q0 26 26 26t26 -26v-391q0 -42 -23.5 -66.5t-65.5 -24.5h-115q-34 0 -43 34q-12 -34 -45 -34h-115q-17 0 -33.5 7.5t-29 20.5
t-20 30.5t-7.5 38.5v385q0 26 26 26zM402 697q25 0 41.5 -16t16.5 -37q0 -22 -16.5 -37.5t-41.5 -15.5t-41.5 15.5t-16.5 37.5q0 21 16.5 37t41.5 16zM212 697q25 0 41.5 -16t16.5 -37q0 -22 -16.5 -37.5t-41.5 -15.5t-41.5 15.5t-16.5 37.5q0 21 16.5 37t41.5 16z" />
    <glyph glyph-name="Ygrave" unicode="&#x1ef2;" 
d="M70 0zM97 722q14 0 22 -15l177 -378q4 -10 10 -10q8 0 11 10l179 378q7 15 22 15q27 0 27 -24q0 -2 -2 -12l-209 -445v-215q0 -26 -25 -26q-26 0 -26 26v215l-211 445q-2 10 -2 12q0 24 27 24zM259 977q14 0 23 -13l95 -142q5 -5 5 -14q0 -22 -28 -22q-13 0 -23 13
l-95 142q-4 7 -4 14q0 22 27 22z" />
    <glyph glyph-name="ygrave" unicode="&#x1ef3;" 
d="M65 0zM522 509q27 0 27 -24q0 -5 -3 -11l-249 -632q-23 -56 -59 -56h-78q-25 0 -25 26q0 25 25 25h51q35 0 50 40l42 115q0 9 -12 9h-18q-18 0 -24 15l-181 458q-3 6 -3 9q0 26 27 26q17 0 23 -16l173 -434q4 -12 21 -12q14 0 20 12l170 434q6 16 23 16zM259 764
q14 0 23 -13l95 -142q5 -5 5 -14q0 -22 -28 -22q-13 0 -23 13l-95 142q-4 7 -4 14q0 22 27 22z" />
    <glyph glyph-name="endash" unicode="&#x2013;" 
d="M506 389q25 0 25 -26q0 -25 -25 -25h-396q-26 0 -26 25q0 26 26 26h396z" />
    <glyph glyph-name="emdash" unicode="&#x2014;" 
d="M506 389q25 0 25 -26q0 -25 -25 -25h-396q-26 0 -26 25q0 26 26 26h396z" />
    <glyph glyph-name="quoteleft" unicode="&#x2018;" 
d="M308 481q-26 0 -44.5 18.5t-18.5 44.5q0 48 7 94t19.5 82t29.5 58t38 22q17 0 17 -21q0 -12 -5 -23.5t-10.5 -24t-10.5 -27t-5 -32.5q0 -16 7 -31t15.5 -30t15.5 -31.5t7 -35.5q0 -26 -17.5 -44.5t-44.5 -18.5z" />
    <glyph glyph-name="quoteright" unicode="&#x2019;" 
d="M308 800q25 0 43.5 -16.5t18.5 -46.5q0 -48 -7 -94t-19.5 -82t-29.5 -58t-38 -22q-17 0 -17 21q0 13 5 24.5t10.5 24t10.5 26.5t5 32q0 16 -7 31t-15.5 30t-15.5 31.5t-7 35.5q0 26 17.5 44.5t45.5 18.5z" />
    <glyph glyph-name="quotesinglbase" unicode="&#x201a;" 
d="M308 120q25 0 43.5 -18.5t18.5 -44.5q0 -48 -7 -94t-19.5 -82t-29.5 -58t-38 -22q-17 0 -17 21q0 13 5 24.5t10.5 23.5t10.5 26.5t5 32.5q0 15 -7 30t-15.5 30.5t-15.5 32t-7 35.5q0 26 17.5 44.5t45.5 18.5z" />
    <glyph glyph-name="quotedblleft" unicode="&#x201c;" 
d="M218 479q-26 0 -44.5 18.5t-18.5 44.5q0 48 7 94t19.5 82t30 58t37.5 22q18 0 18 -21q0 -13 -5 -24.5t-11 -24t-11 -26.5t-5 -32q0 -16 7 -31t16 -30t16 -31.5t7 -35.5q0 -26 -18 -44.5t-45 -18.5zM396 479q-26 0 -44.5 18.5t-18.5 44.5q0 48 7 94t20 82t30 58t38 22
q17 0 17 -21q0 -13 -5 -24.5t-10.5 -24t-10.5 -26.5t-5 -32q0 -16 7 -31t15.5 -30t15.5 -31.5t7 -35.5q0 -26 -18 -44.5t-45 -18.5z" />
    <glyph glyph-name="quotedblright" unicode="&#x201d;" 
d="M396 798q26 0 44.5 -18.5t18.5 -44.5q0 -48 -7 -94t-19.5 -82t-30 -58t-37.5 -22q-18 0 -18 21q0 13 5 24.5t11 24t11 26.5t5 32q0 16 -7 31t-16 30t-16 31.5t-7 35.5q0 26 18 44.5t45 18.5zM218 798q26 0 44.5 -18.5t18.5 -44.5q0 -48 -7 -94t-20 -82t-30 -58t-38 -22
q-17 0 -17 21q0 13 5 24.5t10.5 24t10.5 26.5t5 32q0 16 -7 31t-15.5 30t-15.5 31.5t-7 35.5q0 26 18 44.5t45 18.5z" />
    <glyph glyph-name="quotedblbase" unicode="&#x201e;" 
d="M396 120q26 0 44.5 -18.5t18.5 -44.5q0 -48 -7 -94t-19.5 -82t-30 -58t-37.5 -22q-18 0 -18 21q0 13 5 24.5t11 23.5t11 26.5t5 32.5q0 15 -7 30t-16 30.5t-16 32t-7 35.5q0 26 18 44.5t45 18.5zM218 120q26 0 44.5 -18.5t18.5 -44.5q0 -48 -7 -94t-20 -82t-30 -58
t-38 -22q-17 0 -17 21q0 13 5 24.5t10.5 23.5t10.5 26.5t5 32.5q0 15 -7 30t-15.5 30.5t-15.5 32t-7 35.5q0 26 18 44.5t45 18.5z" />
    <glyph glyph-name="dagger" unicode="&#x2020;" 
d="M309 722q25 0 25 -26v-159q0 -12 12 -12h160q25 0 25 -26q0 -25 -25 -25h-160q-12 0 -12 -12v-436q0 -26 -25 -26q-26 0 -26 26v436q0 12 -12 12h-161q-26 0 -26 25q0 26 26 26h161q12 0 12 12v159q0 26 26 26z" />
    <glyph glyph-name="daggerdbl" unicode="&#x2021;" 
d="M309 0q-26 0 -26 26v159q0 12 -12 12h-161q-26 0 -26 26q0 25 26 25h161q12 0 12 12v202q0 12 -12 12h-161q-26 0 -26 25q0 26 26 26h161q12 0 12 12v159q0 26 26 26q25 0 25 -26v-159q0 -12 12 -12h160q25 0 25 -26q0 -25 -25 -25h-160q-12 0 -12 -12v-202q0 -12 12 -12
h160q25 0 25 -25q0 -26 -25 -26h-160q-12 0 -12 -12v-159q0 -26 -25 -26z" />
    <glyph glyph-name="bullet" unicode="&#x2022;" 
d="M308 521q32 0 60.5 -12.5t50.5 -34t34.5 -50t12.5 -61.5q0 -32 -12.5 -61t-34 -50.5t-50.5 -34t-61 -12.5q-33 0 -61.5 12.5t-50.5 34t-34.5 50.5t-12.5 61q0 33 13 61.5t34.5 50t50.5 34t61 12.5z" />
    <glyph glyph-name="ellipsis" unicode="&#x2026;" 
d="M308 133q29 0 49 -20.5t20 -49.5t-20 -49.5t-49 -20.5t-49.5 20.5t-20.5 49.5t20.5 49.5t49.5 20.5zM494 133q29 0 49.5 -20.5t20.5 -49.5t-20.5 -49.5t-49.5 -20.5t-49.5 20.5t-20.5 49.5t20.5 49.5t49.5 20.5zM121 133q29 0 49.5 -20.5t20.5 -49.5t-20.5 -49.5
t-49.5 -20.5t-49.5 20.5t-20.5 49.5t20.5 49.5t49.5 20.5z" />
    <glyph glyph-name="perthousand" unicode="&#x2030;" 
d="M271 722q20 0 39 -2.5t34 -11.5l167 -102q51 -32 51 -95v-300q0 -64 -51 -95l-167 -102q-25 -15 -55 -14h-7h-204q-26 0 -26 26v671q0 25 26 25h193zM104 63q0 -12 11 -12h156q18 0 34.5 4t33.5 14l141 85q31 19 31 52v310q0 34 -31 53l-141 85q-17 11 -34 13l-34 4h-156
q-11 0 -11 -12v-596z" />
    <glyph glyph-name="guilsinglleft" unicode="&#x2039;" 
d="M396 559q26 0 26 -27q0 -6 -8 -17l-153 -153q-2 -6 -2 -8t2 -8l153 -153q8 -8 8 -18q0 -26 -26 -26q-11 0 -19 8l-141 135q-43 42 -43 62t43 62l141 135q8 8 19 8z" />
    <glyph glyph-name="guilsinglright" unicode="&#x203a;" 
d="M219 559q11 0 19 -8l141 -135q43 -42 43 -62t-43 -62l-141 -135q-8 -8 -19 -8q-26 0 -26 26q0 10 9 18l152 153q2 6 2 8t-2 8l-152 153q-9 9 -9 17q0 27 26 27z" />
    <glyph glyph-name="fraction" unicode="&#x2044;" 
d="M42 0zM546 786q27 0 27 -24q0 -7 -4 -14l-477 -798q-10 -13 -23 -13q-27 0 -27 25q0 7 5 12l476 798q8 14 23 14z" />
    <glyph glyph-name="Euro" unicode="&#x20ac;" 
d="M492 722q65 0 65 -63v-79q0 -21 -27 -21t-27 21v79q0 12 -11 12h-288q-12 0 -12 -12v-185h230q25 0 25 -25q0 -26 -25 -26h-230v-154h183q26 0 26 -26q0 -25 -26 -25h-183v-155q0 -12 12 -12h288q11 0 11 12v136q0 24 27 24t27 -24v-136q0 -27 -18 -45t-47 -18h-288
q-26 0 -44.5 18t-18.5 45v155h-57q-26 0 -26 25q0 26 26 26h57v154h-57q-26 0 -26 26q0 25 26 25h57v185q0 63 63 63h288z" />
    <glyph glyph-name="trademark" unicode="&#x2122;" 
d="M273 722q17 0 17 -21q0 -18 -17 -18h-52v-200q0 -18 -17 -18q-20 0 -20 18v200h-52q-20 0 -20 18q0 21 20 21h141zM503 483q0 -18 -17 -18q-19 0 -19 18v125l-32 -81q-6 -14 -18 -14t-20 14l-31 81v-125q0 -18 -20 -18q-17 0 -17 18v217q0 22 16 22q13 0 18 -14l54 -134
l51 134q6 14 20 14q15 0 15 -22v-217z" />
    <glyph glyph-name="Delta" unicode="&#x2206;" 
d="M90 0q-27 0 -27 24l87 616q5 35 29 58.5t62 23.5h133q38 0 62 -23.5t29 -58.5l87 -616q0 -24 -27 -24h-435zM118 51h379l-82 582q-6 38 -41 38h-133q-17 0 -28 -9.5t-13 -28.5z" />
    <glyph glyph-name="minus" unicode="&#x2212;" 
d="M506 389q25 0 25 -26q0 -25 -25 -25h-396q-26 0 -26 25q0 26 26 26h396z" />
    <glyph glyph-name="approxequal" unicode="&#x2248;" 
d="M127 207zM231 519q19 0 41 -9.5t43 -21t38.5 -21t28.5 -9.5q10 0 22 8.5t23 19t20 19.5t14 9q26 0 26 -25q0 -13 -10 -27.5t-26 -27t-34.5 -20.5t-34.5 -8q-18 0 -39.5 9.5t-42.5 21.5t-39 21.5t-30 9.5q-15 0 -26.5 -9.5t-21 -21.5t-16.5 -21.5t-13 -9.5q-27 0 -27 27
q0 13 9 28t23.5 28t33 21.5t38.5 8.5zM231 320q19 0 41 -9.5t43 -21t38.5 -21t28.5 -9.5q10 0 22 8.5t23 19t20 19.5t14 9q26 0 26 -25q0 -13 -10 -27.5t-26 -27t-34.5 -20.5t-34.5 -8q-18 0 -39.5 9.5t-42.5 21.5t-39 21.5t-30 9.5q-15 0 -26.5 -9.5t-21 -21.5t-16.5 -21.5
t-13 -9.5q-27 0 -27 27q0 13 9 28t23.5 28t33 21.5t38.5 8.5z" />
    <glyph glyph-name="notequal" unicode="&#x2260;" 
d="M239 287l97 153h-226q-26 0 -26 26t26 26h258l95 150q8 14 23 14q27 0 27 -24q0 -7 -4 -14l-80 -126h77q25 0 25 -26t-25 -26h-110l-96 -153h206q25 0 25 -26t-25 -26h-239l-116 -184q-10 -13 -23 -13q-27 0 -27 25q0 7 5 12l100 160h-96q-26 0 -26 26t26 26h129z" />
    <glyph glyph-name="lessequal" unicode="&#x2264;" 
d="M84 1zM396 559q26 0 26 -27q0 -6 -8 -17l-153 -153q-2 -6 -2 -8t2 -8l153 -153q8 -8 8 -18q0 -26 -26 -26q-11 0 -19 8l-141 135q-43 42 -43 62t43 62l141 135q8 8 19 8zM506 52q25 0 25 -26q0 -25 -25 -25h-396q-26 0 -26 25q0 26 26 26h396z" />
    <glyph glyph-name="greaterequal" unicode="&#x2265;" 
d="M84 1zM219 559q11 0 19 -8l141 -135q43 -42 43 -62t-43 -62l-141 -135q-8 -8 -19 -8q-26 0 -26 26q0 10 9 18l152 153q2 6 2 8t-2 8l-152 153q-9 9 -9 17q0 27 26 27zM506 52q25 0 25 -26q0 -25 -25 -25h-396q-26 0 -26 25q0 26 26 26h396z" />
    <glyph glyph-name="uniF8FF" unicode="&#xf8ff;" 
 />
    <glyph glyph-name="NULL" 
 />
    <glyph glyph-name=".ttfautohint" 
d="M0 0z" />
  </font>
</defs>
</svg>
